<?xml version="1.0" encoding="UTF-8" standalone="no"?>
<!DOCTYPE svg PUBLIC "-//W3C//DTD SVG 1.1//EN"
 "http://www.w3.org/Graphics/SVG/1.1/DTD/svg11.dtd">
<!-- Generated by graphviz version 2.38.0 (20140413.2041)
 -->
<!-- Title: %3 Pages: 1 -->
<svg width="1608pt" height="548pt"
 viewBox="0.00 0.00 1607.50 548.00" xmlns="http://www.w3.org/2000/svg" xmlns:xlink="http://www.w3.org/1999/xlink">
<g id="graph0" class="graph" transform="scale(1 1) rotate(0) translate(4 544)">
<title>%3</title>
<polygon fill="white" stroke="none" points="-4,4 -4,-544 1603.5,-544 1603.5,4 -4,4"/>
<!-- [root] digitalocean_domain.miab -->
<g id="node1" class="node"><title>[root] digitalocean_domain.miab</title>
<polygon fill="none" stroke="black" points="1375,-180 1213,-180 1213,-144 1375,-144 1375,-180"/>
<text text-anchor="middle" x="1294" y="-158.3" font-family="Times,serif" font-size="14.00">digitalocean_domain.miab</text>
</g>
<!-- [root] provider.digitalocean -->
<g id="node8" class="node"><title>[root] provider.digitalocean</title>
<polygon fill="none" stroke="black" points="1379,-108 1257.84,-90 1379,-72 1500.16,-90 1379,-108"/>
<text text-anchor="middle" x="1379" y="-86.3" font-family="Times,serif" font-size="14.00">provider.digitalocean</text>
</g>
<!-- [root] digitalocean_domain.miab&#45;&gt;[root] provider.digitalocean -->
<g id="edge1" class="edge"><title>[root] digitalocean_domain.miab&#45;&gt;[root] provider.digitalocean</title>
<path fill="none" stroke="black" d="M1315.01,-143.697C1326.6,-134.157 1341.07,-122.237 1353.32,-112.148"/>
<polygon fill="black" stroke="black" points="1355.89,-114.567 1361.38,-105.508 1351.44,-109.163 1355.89,-114.567"/>
</g>
<!-- [root] var.fqdn -->
<g id="node15" class="node"><title>[root] var.fqdn</title>
<polygon fill="none" stroke="black" points="1234,-108 1178,-108 1178,-72 1240,-72 1240,-102 1234,-108"/>
<polyline fill="none" stroke="black" points="1234,-108 1234,-102 "/>
<polyline fill="none" stroke="black" points="1240,-102 1234,-102 "/>
<text text-anchor="middle" x="1209" y="-86.3" font-family="Times,serif" font-size="14.00">var.fqdn</text>
</g>
<!-- [root] digitalocean_domain.miab&#45;&gt;[root] var.fqdn -->
<g id="edge2" class="edge"><title>[root] digitalocean_domain.miab&#45;&gt;[root] var.fqdn</title>
<path fill="none" stroke="black" d="M1272.99,-143.697C1262.28,-134.881 1249.11,-124.032 1237.5,-114.474"/>
<polygon fill="black" stroke="black" points="1239.71,-111.76 1229.77,-108.104 1235.26,-117.163 1239.71,-111.76"/>
</g>
<!-- [root] digitalocean_droplet.miab -->
<g id="node2" class="node"><title>[root] digitalocean_droplet.miab</title>
<polygon fill="none" stroke="black" points="786.5,-324 627.5,-324 627.5,-288 786.5,-288 786.5,-324"/>
<text text-anchor="middle" x="707" y="-302.3" font-family="Times,serif" font-size="14.00">digitalocean_droplet.miab</text>
</g>
<!-- [root] digitalocean_floating_ip.miab -->
<g id="node3" class="node"><title>[root] digitalocean_floating_ip.miab</title>
<polygon fill="none" stroke="black" points="1597,-252 1417,-252 1417,-216 1597,-216 1597,-252"/>
<text text-anchor="middle" x="1507" y="-230.3" font-family="Times,serif" font-size="14.00">digitalocean_floating_ip.miab</text>
</g>
<!-- [root] digitalocean_droplet.miab&#45;&gt;[root] digitalocean_floating_ip.miab -->
<g id="edge3" class="edge"><title>[root] digitalocean_droplet.miab&#45;&gt;[root] digitalocean_floating_ip.miab</title>
<path fill="none" stroke="black" d="M786.758,-301.375C915.099,-295.008 1175.55,-279.889 1406.89,-251.935"/>
<polygon fill="black" stroke="black" points="1407.34,-255.407 1416.84,-250.723 1406.49,-248.458 1407.34,-255.407"/>
</g>
<!-- [root] digitalocean_spaces_bucket.miab -->
<g id="node5" class="node"><title>[root] digitalocean_spaces_bucket.miab</title>
<polygon fill="none" stroke="black" points="1398.5,-252 1199.5,-252 1199.5,-216 1398.5,-216 1398.5,-252"/>
<text text-anchor="middle" x="1299" y="-230.3" font-family="Times,serif" font-size="14.00">digitalocean_spaces_bucket.miab</text>
</g>
<!-- [root] digitalocean_droplet.miab&#45;&gt;[root] digitalocean_spaces_bucket.miab -->
<g id="edge4" class="edge"><title>[root] digitalocean_droplet.miab&#45;&gt;[root] digitalocean_spaces_bucket.miab</title>
<path fill="none" stroke="black" d="M786.619,-297.382C880.319,-288.165 1040.85,-271.586 1189.04,-252.094"/>
<polygon fill="black" stroke="black" points="1189.78,-255.526 1199.23,-250.746 1188.86,-248.587 1189.78,-255.526"/>
</g>
<!-- [root] digitalocean_ssh_key.miab -->
<g id="node6" class="node"><title>[root] digitalocean_ssh_key.miab</title>
<polygon fill="none" stroke="black" points="1181,-252 1017,-252 1017,-216 1181,-216 1181,-252"/>
<text text-anchor="middle" x="1099" y="-230.3" font-family="Times,serif" font-size="14.00">digitalocean_ssh_key.miab</text>
</g>
<!-- [root] digitalocean_droplet.miab&#45;&gt;[root] digitalocean_ssh_key.miab -->
<g id="edge5" class="edge"><title>[root] digitalocean_droplet.miab&#45;&gt;[root] digitalocean_ssh_key.miab</title>
<path fill="none" stroke="black" d="M786.575,-291.221C844.787,-281.086 925.965,-266.843 1006.36,-252.289"/>
<polygon fill="black" stroke="black" points="1007.45,-255.648 1016.67,-250.421 1006.2,-248.76 1007.45,-255.648"/>
</g>
<!-- [root] var.droplet_image -->
<g id="node11" class="node"><title>[root] var.droplet_image</title>
<polygon fill="none" stroke="black" points="110,-252 7.10543e-15,-252 7.10543e-15,-216 116,-216 116,-246 110,-252"/>
<polyline fill="none" stroke="black" points="110,-252 110,-246 "/>
<polyline fill="none" stroke="black" points="116,-246 110,-246 "/>
<text text-anchor="middle" x="58" y="-230.3" font-family="Times,serif" font-size="14.00">var.droplet_image</text>
</g>
<!-- [root] digitalocean_droplet.miab&#45;&gt;[root] var.droplet_image -->
<g id="edge7" class="edge"><title>[root] digitalocean_droplet.miab&#45;&gt;[root] var.droplet_image</title>
<path fill="none" stroke="black" d="M627.411,-301.73C516.824,-296.302 310.422,-282.972 126.215,-252.058"/>
<polygon fill="black" stroke="black" points="126.794,-248.606 116.349,-250.382 125.622,-255.507 126.794,-248.606"/>
</g>
<!-- [root] var.droplet_private_networking -->
<g id="node12" class="node"><title>[root] var.droplet_private_networking</title>
<polygon fill="none" stroke="black" points="316,-252 134,-252 134,-216 322,-216 322,-246 316,-252"/>
<polyline fill="none" stroke="black" points="316,-252 316,-246 "/>
<polyline fill="none" stroke="black" points="322,-246 316,-246 "/>
<text text-anchor="middle" x="228" y="-230.3" font-family="Times,serif" font-size="14.00">var.droplet_private_networking</text>
</g>
<!-- [root] digitalocean_droplet.miab&#45;&gt;[root] var.droplet_private_networking -->
<g id="edge8" class="edge"><title>[root] digitalocean_droplet.miab&#45;&gt;[root] var.droplet_private_networking</title>
<path fill="none" stroke="black" d="M627.335,-294.324C553.478,-284.3 440.254,-268.612 332.121,-252.153"/>
<polygon fill="black" stroke="black" points="332.423,-248.659 322.01,-250.61 331.367,-255.579 332.423,-248.659"/>
</g>
<!-- [root] var.droplet_size -->
<g id="node14" class="node"><title>[root] var.droplet_size</title>
<polygon fill="none" stroke="black" points="438,-252 340,-252 340,-216 444,-216 444,-246 438,-252"/>
<polyline fill="none" stroke="black" points="438,-252 438,-246 "/>
<polyline fill="none" stroke="black" points="444,-246 438,-246 "/>
<text text-anchor="middle" x="392" y="-230.3" font-family="Times,serif" font-size="14.00">var.droplet_size</text>
</g>
<!-- [root] digitalocean_droplet.miab&#45;&gt;[root] var.droplet_size -->
<g id="edge9" class="edge"><title>[root] digitalocean_droplet.miab&#45;&gt;[root] var.droplet_size</title>
<path fill="none" stroke="black" d="M627.47,-289.808C579.7,-280.354 517.525,-267.474 453.979,-252.164"/>
<polygon fill="black" stroke="black" points="454.727,-248.744 444.184,-249.787 453.077,-255.547 454.727,-248.744"/>
</g>
<!-- [root] var.miab_STORAGE_ROOT -->
<g id="node16" class="node"><title>[root] var.miab_STORAGE_ROOT</title>
<polygon fill="none" stroke="black" points="634,-252 462,-252 462,-216 640,-216 640,-246 634,-252"/>
<polyline fill="none" stroke="black" points="634,-252 634,-246 "/>
<polyline fill="none" stroke="black" points="640,-246 634,-246 "/>
<text text-anchor="middle" x="551" y="-230.3" font-family="Times,serif" font-size="14.00">var.miab_STORAGE_ROOT</text>
</g>
<!-- [root] digitalocean_droplet.miab&#45;&gt;[root] var.miab_STORAGE_ROOT -->
<g id="edge10" class="edge"><title>[root] digitalocean_droplet.miab&#45;&gt;[root] var.miab_STORAGE_ROOT</title>
<path fill="none" stroke="black" d="M668.838,-287.876C647.607,-278.349 620.992,-266.407 598.431,-256.283"/>
<polygon fill="black" stroke="black" points="599.594,-252.969 589.038,-252.068 596.729,-259.356 599.594,-252.969"/>
</g>
<!-- [root] var.ssh_port -->
<g id="node19" class="node"><title>[root] var.ssh_port</title>
<polygon fill="none" stroke="black" points="735.5,-252 658.5,-252 658.5,-216 741.5,-216 741.5,-246 735.5,-252"/>
<polyline fill="none" stroke="black" points="735.5,-252 735.5,-246 "/>
<polyline fill="none" stroke="black" points="741.5,-246 735.5,-246 "/>
<text text-anchor="middle" x="700" y="-230.3" font-family="Times,serif" font-size="14.00">var.ssh_port</text>
</g>
<!-- [root] digitalocean_droplet.miab&#45;&gt;[root] var.ssh_port -->
<g id="edge11" class="edge"><title>[root] digitalocean_droplet.miab&#45;&gt;[root] var.ssh_port</title>
<path fill="none" stroke="black" d="M705.27,-287.697C704.498,-279.983 703.571,-270.712 702.711,-262.112"/>
<polygon fill="black" stroke="black" points="706.188,-261.706 701.71,-252.104 699.223,-262.403 706.188,-261.706"/>
</g>
<!-- [root] provisioner.remote&#45;exec -->
<g id="node21" class="node"><title>[root] provisioner.remote&#45;exec</title>
<ellipse fill="none" stroke="black" cx="879" cy="-234" rx="119.679" ry="18"/>
<text text-anchor="middle" x="879" y="-230.3" font-family="Times,serif" font-size="14.00">[root] provisioner.remote&#45;exec</text>
</g>
<!-- [root] digitalocean_droplet.miab&#45;&gt;[root] provisioner.remote&#45;exec -->
<g id="edge6" class="edge"><title>[root] digitalocean_droplet.miab&#45;&gt;[root] provisioner.remote&#45;exec</title>
<path fill="none" stroke="black" d="M749.076,-287.876C773.504,-277.934 804.395,-265.363 829.926,-254.972"/>
<polygon fill="black" stroke="black" points="831.481,-258.118 839.424,-251.106 828.843,-251.634 831.481,-258.118"/>
</g>
<!-- [root] digitalocean_floating_ip.miab&#45;&gt;[root] provider.digitalocean -->
<g id="edge12" class="edge"><title>[root] digitalocean_floating_ip.miab&#45;&gt;[root] provider.digitalocean</title>
<path fill="none" stroke="black" d="M1509.04,-215.782C1510.39,-196.396 1509.62,-164.886 1494,-144 1479.67,-124.829 1456.72,-112.377 1435.08,-104.398"/>
<polygon fill="black" stroke="black" points="1436.19,-101.078 1425.6,-101.142 1433.92,-107.699 1436.19,-101.078"/>
</g>
<!-- [root] var.do_region -->
<g id="node9" class="node"><title>[root] var.do_region</title>
<polygon fill="none" stroke="black" points="1479,-180 1393,-180 1393,-144 1485,-144 1485,-174 1479,-180"/>
<polyline fill="none" stroke="black" points="1479,-180 1479,-174 "/>
<polyline fill="none" stroke="black" points="1485,-174 1479,-174 "/>
<text text-anchor="middle" x="1439" y="-158.3" font-family="Times,serif" font-size="14.00">var.do_region</text>
</g>
<!-- [root] digitalocean_floating_ip.miab&#45;&gt;[root] var.do_region -->
<g id="edge13" class="edge"><title>[root] digitalocean_floating_ip.miab&#45;&gt;[root] var.do_region</title>
<path fill="none" stroke="black" d="M1490.19,-215.697C1481.87,-207.135 1471.69,-196.656 1462.61,-187.304"/>
<polygon fill="black" stroke="black" points="1465.09,-184.838 1455.62,-180.104 1460.07,-189.716 1465.09,-184.838"/>
</g>
<!-- [root] digitalocean_floating_ip_assignment.miab -->
<g id="node4" class="node"><title>[root] digitalocean_floating_ip_assignment.miab</title>
<polygon fill="none" stroke="black" points="1119,-396 871,-396 871,-360 1119,-360 1119,-396"/>
<text text-anchor="middle" x="995" y="-374.3" font-family="Times,serif" font-size="14.00">digitalocean_floating_ip_assignment.miab</text>
</g>
<!-- [root] digitalocean_floating_ip_assignment.miab&#45;&gt;[root] digitalocean_droplet.miab -->
<g id="edge14" class="edge"><title>[root] digitalocean_floating_ip_assignment.miab&#45;&gt;[root] digitalocean_droplet.miab</title>
<path fill="none" stroke="black" d="M924.916,-359.966C883.363,-349.866 830.546,-337.028 787.316,-326.521"/>
<polygon fill="black" stroke="black" points="787.942,-323.072 777.399,-324.111 786.289,-329.874 787.942,-323.072"/>
</g>
<!-- [root] digitalocean_spaces_bucket.miab&#45;&gt;[root] digitalocean_domain.miab -->
<g id="edge15" class="edge"><title>[root] digitalocean_spaces_bucket.miab&#45;&gt;[root] digitalocean_domain.miab</title>
<path fill="none" stroke="black" d="M1297.76,-215.697C1297.21,-207.983 1296.55,-198.712 1295.94,-190.112"/>
<polygon fill="black" stroke="black" points="1299.43,-189.83 1295.22,-180.104 1292.44,-190.328 1299.43,-189.83"/>
</g>
<!-- [root] digitalocean_spaces_bucket.miab&#45;&gt;[root] var.do_region -->
<g id="edge16" class="edge"><title>[root] digitalocean_spaces_bucket.miab&#45;&gt;[root] var.do_region</title>
<path fill="none" stroke="black" d="M1333.25,-215.876C1352.06,-206.469 1375.58,-194.708 1395.67,-184.667"/>
<polygon fill="black" stroke="black" points="1397.24,-187.792 1404.62,-180.19 1394.11,-181.531 1397.24,-187.792"/>
</g>
<!-- [root] digitalocean_ssh_key.miab&#45;&gt;[root] provider.digitalocean -->
<g id="edge17" class="edge"><title>[root] digitalocean_ssh_key.miab&#45;&gt;[root] provider.digitalocean</title>
<path fill="none" stroke="black" d="M1121.01,-215.945C1133.99,-205.733 1150.64,-192.371 1165,-180 1182.87,-164.606 1183.53,-155.716 1204,-144 1238.86,-124.054 1282,-110.878 1316.73,-102.653"/>
<polygon fill="black" stroke="black" points="1317.78,-106.002 1326.75,-100.36 1316.22,-99.1781 1317.78,-106.002"/>
</g>
<!-- [root] var.ssh_private_key -->
<g id="node20" class="node"><title>[root] var.ssh_private_key</title>
<polygon fill="none" stroke="black" points="1150.5,-180 1031.5,-180 1031.5,-144 1156.5,-144 1156.5,-174 1150.5,-180"/>
<polyline fill="none" stroke="black" points="1150.5,-180 1150.5,-174 "/>
<polyline fill="none" stroke="black" points="1156.5,-174 1150.5,-174 "/>
<text text-anchor="middle" x="1094" y="-158.3" font-family="Times,serif" font-size="14.00">var.ssh_private_key</text>
</g>
<!-- [root] digitalocean_ssh_key.miab&#45;&gt;[root] var.ssh_private_key -->
<g id="edge18" class="edge"><title>[root] digitalocean_ssh_key.miab&#45;&gt;[root] var.ssh_private_key</title>
<path fill="none" stroke="black" d="M1097.76,-215.697C1097.21,-207.983 1096.55,-198.712 1095.94,-190.112"/>
<polygon fill="black" stroke="black" points="1099.43,-189.83 1095.22,-180.104 1092.44,-190.328 1099.43,-189.83"/>
</g>
<!-- [root] output.floating_ip_address -->
<g id="node7" class="node"><title>[root] output.floating_ip_address</title>
<polygon fill="none" stroke="black" points="1573.5,-324 1418.5,-324 1418.5,-288 1579.5,-288 1579.5,-318 1573.5,-324"/>
<polyline fill="none" stroke="black" points="1573.5,-324 1573.5,-318 "/>
<polyline fill="none" stroke="black" points="1579.5,-318 1573.5,-318 "/>
<text text-anchor="middle" x="1499" y="-302.3" font-family="Times,serif" font-size="14.00">output.floating_ip_address</text>
</g>
<!-- [root] output.floating_ip_address&#45;&gt;[root] digitalocean_floating_ip.miab -->
<g id="edge22" class="edge"><title>[root] output.floating_ip_address&#45;&gt;[root] digitalocean_floating_ip.miab</title>
<path fill="none" stroke="black" d="M1500.98,-287.697C1501.86,-279.983 1502.92,-270.712 1503.9,-262.112"/>
<polygon fill="black" stroke="black" points="1507.39,-262.437 1505.05,-252.104 1500.43,-261.642 1507.39,-262.437"/>
</g>
<!-- [root] var.do_token -->
<g id="node10" class="node"><title>[root] var.do_token</title>
<polygon fill="none" stroke="black" points="1289,-36 1207,-36 1207,-0 1295,-0 1295,-30 1289,-36"/>
<polyline fill="none" stroke="black" points="1289,-36 1289,-30 "/>
<polyline fill="none" stroke="black" points="1295,-30 1289,-30 "/>
<text text-anchor="middle" x="1251" y="-14.3" font-family="Times,serif" font-size="14.00">var.do_token</text>
</g>
<!-- [root] provider.digitalocean&#45;&gt;[root] var.do_token -->
<g id="edge24" class="edge"><title>[root] provider.digitalocean&#45;&gt;[root] var.do_token</title>
<path fill="none" stroke="black" d="M1354.32,-75.5033C1336.47,-65.744 1311.97,-52.3428 1291.3,-41.0409"/>
<polygon fill="black" stroke="black" points="1292.87,-37.9073 1282.41,-36.1799 1289.51,-44.0489 1292.87,-37.9073"/>
</g>
<!-- [root] var.spaces_access_id -->
<g id="node17" class="node"><title>[root] var.spaces_access_id</title>
<polygon fill="none" stroke="black" points="1438.5,-36 1313.5,-36 1313.5,-0 1444.5,-0 1444.5,-30 1438.5,-36"/>
<polyline fill="none" stroke="black" points="1438.5,-36 1438.5,-30 "/>
<polyline fill="none" stroke="black" points="1444.5,-30 1438.5,-30 "/>
<text text-anchor="middle" x="1379" y="-14.3" font-family="Times,serif" font-size="14.00">var.spaces_access_id</text>
</g>
<!-- [root] provider.digitalocean&#45;&gt;[root] var.spaces_access_id -->
<g id="edge25" class="edge"><title>[root] provider.digitalocean&#45;&gt;[root] var.spaces_access_id</title>
<path fill="none" stroke="black" d="M1379,-71.6966C1379,-63.9827 1379,-54.7125 1379,-46.1124"/>
<polygon fill="black" stroke="black" points="1382.5,-46.1043 1379,-36.1043 1375.5,-46.1044 1382.5,-46.1043"/>
</g>
<!-- [root] var.spaces_secret_key -->
<g id="node18" class="node"><title>[root] var.spaces_secret_key</title>
<polygon fill="none" stroke="black" points="1593.5,-36 1462.5,-36 1462.5,-0 1599.5,-0 1599.5,-30 1593.5,-36"/>
<polyline fill="none" stroke="black" points="1593.5,-36 1593.5,-30 "/>
<polyline fill="none" stroke="black" points="1599.5,-30 1593.5,-30 "/>
<text text-anchor="middle" x="1531" y="-14.3" font-family="Times,serif" font-size="14.00">var.spaces_secret_key</text>
</g>
<!-- [root] provider.digitalocean&#45;&gt;[root] var.spaces_secret_key -->
<g id="edge26" class="edge"><title>[root] provider.digitalocean&#45;&gt;[root] var.spaces_secret_key</title>
<path fill="none" stroke="black" d="M1407.23,-75.9976C1428.93,-66.0057 1459.36,-51.9915 1484.62,-40.3599"/>
<polygon fill="black" stroke="black" points="1486.4,-43.3941 1494.02,-36.032 1483.47,-37.0359 1486.4,-43.3941"/>
</g>
<!-- [root] var.droplet_region -->
<g id="node13" class="node"><title>[root] var.droplet_region</title>
<polygon fill="none" stroke="black" points="1336.5,-396 1225.5,-396 1225.5,-360 1342.5,-360 1342.5,-390 1336.5,-396"/>
<polyline fill="none" stroke="black" points="1336.5,-396 1336.5,-390 "/>
<polyline fill="none" stroke="black" points="1342.5,-390 1336.5,-390 "/>
<text text-anchor="middle" x="1284" y="-374.3" font-family="Times,serif" font-size="14.00">var.droplet_region</text>
</g>
<!-- [root] meta.count&#45;boundary (EachMode fixup) -->
<g id="node22" class="node"><title>[root] meta.count&#45;boundary (EachMode fixup)</title>
<ellipse fill="none" stroke="black" cx="1284" cy="-450" rx="176.569" ry="18"/>
<text text-anchor="middle" x="1284" y="-446.3" font-family="Times,serif" font-size="14.00">[root] meta.count&#45;boundary (EachMode fixup)</text>
</g>
<!-- [root] meta.count&#45;boundary (EachMode fixup)&#45;&gt;[root] digitalocean_floating_ip_assignment.miab -->
<g id="edge19" class="edge"><title>[root] meta.count&#45;boundary (EachMode fixup)&#45;&gt;[root] digitalocean_floating_ip_assignment.miab</title>
<path fill="none" stroke="black" d="M1218.78,-433.203C1176.21,-422.891 1120.33,-409.358 1075.07,-398.394"/>
<polygon fill="black" stroke="black" points="1075.83,-394.976 1065.28,-396.024 1074.18,-401.78 1075.83,-394.976"/>
</g>
<!-- [root] meta.count&#45;boundary (EachMode fixup)&#45;&gt;[root] output.floating_ip_address -->
<g id="edge20" class="edge"><title>[root] meta.count&#45;boundary (EachMode fixup)&#45;&gt;[root] output.floating_ip_address</title>
<path fill="none" stroke="black" d="M1309.51,-432.153C1348.12,-406.654 1421.46,-358.212 1464.7,-329.652"/>
<polygon fill="black" stroke="black" points="1466.78,-332.478 1473.19,-324.046 1462.92,-326.636 1466.78,-332.478"/>
</g>
<!-- [root] meta.count&#45;boundary (EachMode fixup)&#45;&gt;[root] var.droplet_region -->
<g id="edge21" class="edge"><title>[root] meta.count&#45;boundary (EachMode fixup)&#45;&gt;[root] var.droplet_region</title>
<path fill="none" stroke="black" d="M1284,-431.697C1284,-423.983 1284,-414.712 1284,-406.112"/>
<polygon fill="black" stroke="black" points="1287.5,-406.104 1284,-396.104 1280.5,-406.104 1287.5,-406.104"/>
</g>
<!-- [root] provider.digitalocean (close) -->
<g id="node23" class="node"><title>[root] provider.digitalocean (close)</title>
<ellipse fill="none" stroke="black" cx="955" cy="-450" rx="134.576" ry="18"/>
<text text-anchor="middle" x="955" y="-446.3" font-family="Times,serif" font-size="14.00">[root] provider.digitalocean (close)</text>
</g>
<!-- [root] provider.digitalocean (close)&#45;&gt;[root] digitalocean_floating_ip_assignment.miab -->
<g id="edge23" class="edge"><title>[root] provider.digitalocean (close)&#45;&gt;[root] digitalocean_floating_ip_assignment.miab</title>
<path fill="none" stroke="black" d="M964.888,-431.697C969.489,-423.644 975.06,-413.894 980.153,-404.982"/>
<polygon fill="black" stroke="black" points="983.304,-406.523 985.226,-396.104 977.226,-403.05 983.304,-406.523"/>
</g>
<!-- [root] provisioner.remote&#45;exec (close) -->
<g id="node24" class="node"><title>[root] provisioner.remote&#45;exec (close)</title>
<ellipse fill="none" stroke="black" cx="707" cy="-378" rx="145.674" ry="18"/>
<text text-anchor="middle" x="707" y="-374.3" font-family="Times,serif" font-size="14.00">[root] provisioner.remote&#45;exec (close)</text>
</g>
<!-- [root] provisioner.remote&#45;exec (close)&#45;&gt;[root] digitalocean_droplet.miab -->
<g id="edge27" class="edge"><title>[root] provisioner.remote&#45;exec (close)&#45;&gt;[root] digitalocean_droplet.miab</title>
<path fill="none" stroke="black" d="M707,-359.697C707,-351.983 707,-342.712 707,-334.112"/>
<polygon fill="black" stroke="black" points="710.5,-334.104 707,-324.104 703.5,-334.104 710.5,-334.104"/>
</g>
<!-- [root] root -->
<g id="node25" class="node"><title>[root] root</title>
<ellipse fill="none" stroke="black" cx="955" cy="-522" rx="47.3916" ry="18"/>
<text text-anchor="middle" x="955" y="-518.3" font-family="Times,serif" font-size="14.00">[root] root</text>
</g>
<!-- [root] root&#45;&gt;[root] meta.count&#45;boundary (EachMode fixup) -->
<g id="edge28" class="edge"><title>[root] root&#45;&gt;[root] meta.count&#45;boundary (EachMode fixup)</title>
<path fill="none" stroke="black" d="M995.342,-512.417C1046.43,-501.548 1135.7,-482.553 1201.48,-468.557"/>
<polygon fill="black" stroke="black" points="1202.37,-471.948 1211.42,-466.443 1200.91,-465.101 1202.37,-471.948"/>
</g>
<!-- [root] root&#45;&gt;[root] provider.digitalocean (close) -->
<g id="edge29" class="edge"><title>[root] root&#45;&gt;[root] provider.digitalocean (close)</title>
<path fill="none" stroke="black" d="M955,-503.697C955,-495.983 955,-486.712 955,-478.112"/>
<polygon fill="black" stroke="black" points="958.5,-478.104 955,-468.104 951.5,-478.104 958.5,-478.104"/>
</g>
<!-- [root] root&#45;&gt;[root] provisioner.remote&#45;exec (close) -->
<g id="edge30" class="edge"><title>[root] root&#45;&gt;[root] provisioner.remote&#45;exec (close)</title>
<path fill="none" stroke="black" d="M916.98,-511.039C886.96,-502.242 844.668,-487.738 811,-468 780.46,-450.096 750.247,-422.892 730.321,-403.274"/>
<polygon fill="black" stroke="black" points="732.755,-400.758 723.209,-396.162 727.805,-405.708 732.755,-400.758"/>
</g>
</g>
</svg>
