<?xml version="1.0" encoding="UTF-8" standalone="no"?>
<!DOCTYPE svg PUBLIC "-//W3C//DTD SVG 1.1//EN"
 "http://www.w3.org/Graphics/SVG/1.1/DTD/svg11.dtd">
<!-- Generated by graphviz version 2.38.0 (20140413.2041)
 -->
<!-- Title: %3 Pages: 1 -->
<svg width="1828pt" height="476pt"
 viewBox="0.00 0.00 1827.50 476.00" xmlns="http://www.w3.org/2000/svg" xmlns:xlink="http://www.w3.org/1999/xlink">
<g id="graph0" class="graph" transform="scale(1 1) rotate(0) translate(4 472)">
<title>%3</title>
<polygon fill="white" stroke="none" points="-4,4 -4,-472 1823.5,-472 1823.5,4 -4,4"/>
<!-- [root] digitalocean_domain.miab -->
<g id="node1" class="node"><title>[root] digitalocean_domain.miab</title>
<polygon fill="none" stroke="black" points="403.5,-180 241.5,-180 241.5,-144 403.5,-144 403.5,-180"/>
<text text-anchor="middle" x="322.5" y="-158.3" font-family="Times,serif" font-size="14.00">digitalocean_domain.miab</text>
</g>
<!-- [root] provider.digitalocean -->
<g id="node12" class="node"><title>[root] provider.digitalocean</title>
<polygon fill="none" stroke="black" points="643.5,-108 522.342,-90 643.5,-72 764.658,-90 643.5,-108"/>
<text text-anchor="middle" x="643.5" y="-86.3" font-family="Times,serif" font-size="14.00">provider.digitalocean</text>
</g>
<!-- [root] digitalocean_domain.miab&#45;&gt;[root] provider.digitalocean -->
<g id="edge1" class="edge"><title>[root] digitalocean_domain.miab&#45;&gt;[root] provider.digitalocean</title>
<path fill="none" stroke="black" d="M400.615,-143.966C458.203,-131.408 535.204,-114.616 586.933,-103.335"/>
<polygon fill="black" stroke="black" points="587.904,-106.706 596.929,-101.156 586.413,-99.8667 587.904,-106.706"/>
</g>
<!-- [root] var.fqdn -->
<g id="node20" class="node"><title>[root] var.fqdn</title>
<polygon fill="none" stroke="black" points="347.5,-108 291.5,-108 291.5,-72 353.5,-72 353.5,-102 347.5,-108"/>
<polyline fill="none" stroke="black" points="347.5,-108 347.5,-102 "/>
<polyline fill="none" stroke="black" points="353.5,-102 347.5,-102 "/>
<text text-anchor="middle" x="322.5" y="-86.3" font-family="Times,serif" font-size="14.00">var.fqdn</text>
</g>
<!-- [root] digitalocean_domain.miab&#45;&gt;[root] var.fqdn -->
<g id="edge2" class="edge"><title>[root] digitalocean_domain.miab&#45;&gt;[root] var.fqdn</title>
<path fill="none" stroke="black" d="M322.5,-143.697C322.5,-135.983 322.5,-126.712 322.5,-118.112"/>
<polygon fill="black" stroke="black" points="326,-118.104 322.5,-108.104 319,-118.104 326,-118.104"/>
</g>
<!-- [root] digitalocean_droplet.miab -->
<g id="node2" class="node"><title>[root] digitalocean_droplet.miab</title>
<polygon fill="none" stroke="black" points="959,-252 800,-252 800,-216 959,-216 959,-252"/>
<text text-anchor="middle" x="879.5" y="-230.3" font-family="Times,serif" font-size="14.00">digitalocean_droplet.miab</text>
</g>
<!-- [root] digitalocean_droplet.miab&#45;&gt;[root] digitalocean_domain.miab -->
<g id="edge3" class="edge"><title>[root] digitalocean_droplet.miab&#45;&gt;[root] digitalocean_domain.miab</title>
<path fill="none" stroke="black" d="M799.94,-225.772C708.991,-217.103 555.452,-201.231 414.048,-180.177"/>
<polygon fill="black" stroke="black" points="414.298,-176.675 403.889,-178.652 413.259,-183.597 414.298,-176.675"/>
</g>
<!-- [root] digitalocean_floating_ip.miab -->
<g id="node3" class="node"><title>[root] digitalocean_floating_ip.miab</title>
<polygon fill="none" stroke="black" points="223.5,-180 43.5,-180 43.5,-144 223.5,-144 223.5,-180"/>
<text text-anchor="middle" x="133.5" y="-158.3" font-family="Times,serif" font-size="14.00">digitalocean_floating_ip.miab</text>
</g>
<!-- [root] digitalocean_droplet.miab&#45;&gt;[root] digitalocean_floating_ip.miab -->
<g id="edge4" class="edge"><title>[root] digitalocean_droplet.miab&#45;&gt;[root] digitalocean_floating_ip.miab</title>
<path fill="none" stroke="black" d="M799.832,-228.745C679.403,-221.81 443.648,-206.269 233.543,-180.067"/>
<polygon fill="black" stroke="black" points="233.916,-176.587 223.558,-178.812 233.043,-183.532 233.916,-176.587"/>
</g>
<!-- [root] digitalocean_spaces_bucket.miab -->
<g id="node9" class="node"><title>[root] digitalocean_spaces_bucket.miab</title>
<polygon fill="none" stroke="black" points="979,-180 780,-180 780,-144 979,-144 979,-180"/>
<text text-anchor="middle" x="879.5" y="-158.3" font-family="Times,serif" font-size="14.00">digitalocean_spaces_bucket.miab</text>
</g>
<!-- [root] digitalocean_droplet.miab&#45;&gt;[root] digitalocean_spaces_bucket.miab -->
<g id="edge5" class="edge"><title>[root] digitalocean_droplet.miab&#45;&gt;[root] digitalocean_spaces_bucket.miab</title>
<path fill="none" stroke="black" d="M879.5,-215.697C879.5,-207.983 879.5,-198.712 879.5,-190.112"/>
<polygon fill="black" stroke="black" points="883,-190.104 879.5,-180.104 876,-190.104 883,-190.104"/>
</g>
<!-- [root] digitalocean_ssh_key.miab -->
<g id="node10" class="node"><title>[root] digitalocean_ssh_key.miab</title>
<polygon fill="none" stroke="black" points="1161.5,-180 997.5,-180 997.5,-144 1161.5,-144 1161.5,-180"/>
<text text-anchor="middle" x="1079.5" y="-158.3" font-family="Times,serif" font-size="14.00">digitalocean_ssh_key.miab</text>
</g>
<!-- [root] digitalocean_droplet.miab&#45;&gt;[root] digitalocean_ssh_key.miab -->
<g id="edge6" class="edge"><title>[root] digitalocean_droplet.miab&#45;&gt;[root] digitalocean_ssh_key.miab</title>
<path fill="none" stroke="black" d="M928.17,-215.966C956.114,-206.185 991.396,-193.836 1020.86,-183.524"/>
<polygon fill="black" stroke="black" points="1022.33,-186.718 1030.61,-180.111 1020.02,-180.111 1022.33,-186.718"/>
</g>
<!-- [root] var.droplet_image -->
<g id="node15" class="node"><title>[root] var.droplet_image</title>
<polygon fill="none" stroke="black" points="1289.5,-180 1179.5,-180 1179.5,-144 1295.5,-144 1295.5,-174 1289.5,-180"/>
<polyline fill="none" stroke="black" points="1289.5,-180 1289.5,-174 "/>
<polyline fill="none" stroke="black" points="1295.5,-174 1289.5,-174 "/>
<text text-anchor="middle" x="1237.5" y="-158.3" font-family="Times,serif" font-size="14.00">var.droplet_image</text>
</g>
<!-- [root] digitalocean_droplet.miab&#45;&gt;[root] var.droplet_image -->
<g id="edge8" class="edge"><title>[root] digitalocean_droplet.miab&#45;&gt;[root] var.droplet_image</title>
<path fill="none" stroke="black" d="M959.146,-220.004C1015.39,-210.476 1092.72,-196.67 1169.59,-180.125"/>
<polygon fill="black" stroke="black" points="1170.42,-183.526 1179.45,-177.987 1168.94,-176.685 1170.42,-183.526"/>
</g>
<!-- [root] var.droplet_private_networking -->
<g id="node17" class="node"><title>[root] var.droplet_private_networking</title>
<polygon fill="none" stroke="black" points="1495.5,-180 1313.5,-180 1313.5,-144 1501.5,-144 1501.5,-174 1495.5,-180"/>
<polyline fill="none" stroke="black" points="1495.5,-180 1495.5,-174 "/>
<polyline fill="none" stroke="black" points="1501.5,-174 1495.5,-174 "/>
<text text-anchor="middle" x="1407.5" y="-158.3" font-family="Times,serif" font-size="14.00">var.droplet_private_networking</text>
</g>
<!-- [root] digitalocean_droplet.miab&#45;&gt;[root] var.droplet_private_networking -->
<g id="edge9" class="edge"><title>[root] digitalocean_droplet.miab&#45;&gt;[root] var.droplet_private_networking</title>
<path fill="none" stroke="black" d="M959.131,-224.021C1042.37,-214.419 1177.04,-198.277 1303.26,-180.149"/>
<polygon fill="black" stroke="black" points="1304.1,-183.564 1313.5,-178.672 1303.1,-176.636 1304.1,-183.564"/>
</g>
<!-- [root] var.droplet_size -->
<g id="node19" class="node"><title>[root] var.droplet_size</title>
<polygon fill="none" stroke="black" points="1617.5,-180 1519.5,-180 1519.5,-144 1623.5,-144 1623.5,-174 1617.5,-180"/>
<polyline fill="none" stroke="black" points="1617.5,-180 1617.5,-174 "/>
<polyline fill="none" stroke="black" points="1623.5,-174 1617.5,-174 "/>
<text text-anchor="middle" x="1571.5" y="-158.3" font-family="Times,serif" font-size="14.00">var.droplet_size</text>
</g>
<!-- [root] digitalocean_droplet.miab&#45;&gt;[root] var.droplet_size -->
<g id="edge10" class="edge"><title>[root] digitalocean_droplet.miab&#45;&gt;[root] var.droplet_size</title>
<path fill="none" stroke="black" d="M959.317,-231.096C1077.73,-227.211 1306.85,-215.622 1509.47,-179.983"/>
<polygon fill="black" stroke="black" points="1510.18,-183.413 1519.41,-178.212 1508.95,-176.521 1510.18,-183.413"/>
</g>
<!-- [root] var.miab_STORAGE_ROOT -->
<g id="node21" class="node"><title>[root] var.miab_STORAGE_ROOT</title>
<polygon fill="none" stroke="black" points="1813.5,-180 1641.5,-180 1641.5,-144 1819.5,-144 1819.5,-174 1813.5,-180"/>
<polyline fill="none" stroke="black" points="1813.5,-180 1813.5,-174 "/>
<polyline fill="none" stroke="black" points="1819.5,-174 1813.5,-174 "/>
<text text-anchor="middle" x="1730.5" y="-158.3" font-family="Times,serif" font-size="14.00">var.miab_STORAGE_ROOT</text>
</g>
<!-- [root] digitalocean_droplet.miab&#45;&gt;[root] var.miab_STORAGE_ROOT -->
<g id="edge11" class="edge"><title>[root] digitalocean_droplet.miab&#45;&gt;[root] var.miab_STORAGE_ROOT</title>
<path fill="none" stroke="black" d="M959.168,-230.052C1095.04,-224.44 1380.43,-210.107 1631.32,-180.071"/>
<polygon fill="black" stroke="black" points="1631.85,-183.532 1641.36,-178.858 1631.01,-176.583 1631.85,-183.532"/>
</g>
<!-- [root] var.ssh_port -->
<g id="node24" class="node"><title>[root] var.ssh_port</title>
<polygon fill="none" stroke="black" points="499,-180 422,-180 422,-144 505,-144 505,-174 499,-180"/>
<polyline fill="none" stroke="black" points="499,-180 499,-174 "/>
<polyline fill="none" stroke="black" points="505,-174 499,-174 "/>
<text text-anchor="middle" x="463.5" y="-158.3" font-family="Times,serif" font-size="14.00">var.ssh_port</text>
</g>
<!-- [root] digitalocean_droplet.miab&#45;&gt;[root] var.ssh_port -->
<g id="edge12" class="edge"><title>[root] digitalocean_droplet.miab&#45;&gt;[root] var.ssh_port</title>
<path fill="none" stroke="black" d="M799.81,-225.729C727.461,-218.157 617.843,-204.262 515.003,-180.14"/>
<polygon fill="black" stroke="black" points="515.613,-176.688 505.074,-177.774 513.99,-183.497 515.613,-176.688"/>
</g>
<!-- [root] provisioner.remote&#45;exec -->
<g id="node26" class="node"><title>[root] provisioner.remote&#45;exec</title>
<ellipse fill="none" stroke="black" cx="642.5" cy="-162" rx="119.679" ry="18"/>
<text text-anchor="middle" x="642.5" y="-158.3" font-family="Times,serif" font-size="14.00">[root] provisioner.remote&#45;exec</text>
</g>
<!-- [root] digitalocean_droplet.miab&#45;&gt;[root] provisioner.remote&#45;exec -->
<g id="edge7" class="edge"><title>[root] digitalocean_droplet.miab&#45;&gt;[root] provisioner.remote&#45;exec</title>
<path fill="none" stroke="black" d="M821.826,-215.966C786.258,-205.46 740.658,-191.992 704.342,-181.266"/>
<polygon fill="black" stroke="black" points="704.944,-177.794 694.362,-178.318 702.961,-184.507 704.944,-177.794"/>
</g>
<!-- [root] digitalocean_floating_ip.miab&#45;&gt;[root] provider.digitalocean -->
<g id="edge13" class="edge"><title>[root] digitalocean_floating_ip.miab&#45;&gt;[root] provider.digitalocean</title>
<path fill="none" stroke="black" d="M223.582,-145.367C226.589,-144.898 229.568,-144.441 232.5,-144 349.801,-126.373 486.486,-109.468 568.932,-99.6654"/>
<polygon fill="black" stroke="black" points="569.441,-103.13 578.96,-98.4765 568.617,-96.1783 569.441,-103.13"/>
</g>
<!-- [root] var.do_region -->
<g id="node13" class="node"><title>[root] var.do_region</title>
<polygon fill="none" stroke="black" points="477.5,-108 391.5,-108 391.5,-72 483.5,-72 483.5,-102 477.5,-108"/>
<polyline fill="none" stroke="black" points="477.5,-108 477.5,-102 "/>
<polyline fill="none" stroke="black" points="483.5,-102 477.5,-102 "/>
<text text-anchor="middle" x="437.5" y="-86.3" font-family="Times,serif" font-size="14.00">var.do_region</text>
</g>
<!-- [root] digitalocean_floating_ip.miab&#45;&gt;[root] var.do_region -->
<g id="edge14" class="edge"><title>[root] digitalocean_floating_ip.miab&#45;&gt;[root] var.do_region</title>
<path fill="none" stroke="black" d="M207.478,-143.966C261.08,-131.623 332.443,-115.191 381.387,-103.921"/>
<polygon fill="black" stroke="black" points="382.21,-107.323 391.17,-101.668 380.64,-100.501 382.21,-107.323"/>
</g>
<!-- [root] digitalocean_floating_ip_assignment.miab -->
<g id="node4" class="node"><title>[root] digitalocean_floating_ip_assignment.miab</title>
<polygon fill="none" stroke="black" points="787.5,-324 539.5,-324 539.5,-288 787.5,-288 787.5,-324"/>
<text text-anchor="middle" x="663.5" y="-302.3" font-family="Times,serif" font-size="14.00">digitalocean_floating_ip_assignment.miab</text>
</g>
<!-- [root] digitalocean_floating_ip_assignment.miab&#45;&gt;[root] digitalocean_droplet.miab -->
<g id="edge15" class="edge"><title>[root] digitalocean_floating_ip_assignment.miab&#45;&gt;[root] digitalocean_droplet.miab</title>
<path fill="none" stroke="black" d="M716.063,-287.966C746.506,-278.1 785.011,-265.622 816.999,-255.255"/>
<polygon fill="black" stroke="black" points="818.267,-258.523 826.701,-252.111 816.109,-251.864 818.267,-258.523"/>
</g>
<!-- [root] digitalocean_record.box -->
<g id="node5" class="node"><title>[root] digitalocean_record.box</title>
<polygon fill="none" stroke="black" points="337.5,-252 189.5,-252 189.5,-216 337.5,-216 337.5,-252"/>
<text text-anchor="middle" x="263.5" y="-230.3" font-family="Times,serif" font-size="14.00">digitalocean_record.box</text>
</g>
<!-- [root] digitalocean_record.box&#45;&gt;[root] digitalocean_domain.miab -->
<g id="edge16" class="edge"><title>[root] digitalocean_record.box&#45;&gt;[root] digitalocean_domain.miab</title>
<path fill="none" stroke="black" d="M278.084,-215.697C285.158,-207.305 293.783,-197.07 301.545,-187.861"/>
<polygon fill="black" stroke="black" points="304.315,-190.006 308.083,-180.104 298.963,-185.495 304.315,-190.006"/>
</g>
<!-- [root] digitalocean_record.box&#45;&gt;[root] digitalocean_floating_ip.miab -->
<g id="edge17" class="edge"><title>[root] digitalocean_record.box&#45;&gt;[root] digitalocean_floating_ip.miab</title>
<path fill="none" stroke="black" d="M231.698,-215.876C214.386,-206.554 192.779,-194.919 174.244,-184.939"/>
<polygon fill="black" stroke="black" points="175.888,-181.849 165.424,-180.19 172.569,-188.012 175.888,-181.849"/>
</g>
<!-- [root] digitalocean_record.ns1 -->
<g id="node6" class="node"><title>[root] digitalocean_record.ns1</title>
<polygon fill="none" stroke="black" points="357.5,-324 211.5,-324 211.5,-288 357.5,-288 357.5,-324"/>
<text text-anchor="middle" x="284.5" y="-302.3" font-family="Times,serif" font-size="14.00">digitalocean_record.ns1</text>
</g>
<!-- [root] digitalocean_record.ns1&#45;&gt;[root] digitalocean_domain.miab -->
<g id="edge18" class="edge"><title>[root] digitalocean_record.ns1&#45;&gt;[root] digitalocean_domain.miab</title>
<path fill="none" stroke="black" d="M314.005,-287.937C326.482,-278.988 339.685,-266.79 346.5,-252 355.795,-231.825 347.955,-207.363 338.828,-189.194"/>
<polygon fill="black" stroke="black" points="341.863,-187.448 334.023,-180.323 335.708,-190.783 341.863,-187.448"/>
</g>
<!-- [root] digitalocean_record.ns2 -->
<g id="node7" class="node"><title>[root] digitalocean_record.ns2</title>
<polygon fill="none" stroke="black" points="521.5,-324 375.5,-324 375.5,-288 521.5,-288 521.5,-324"/>
<text text-anchor="middle" x="448.5" y="-302.3" font-family="Times,serif" font-size="14.00">digitalocean_record.ns2</text>
</g>
<!-- [root] digitalocean_record.ns2&#45;&gt;[root] digitalocean_domain.miab -->
<g id="edge19" class="edge"><title>[root] digitalocean_record.ns2&#45;&gt;[root] digitalocean_domain.miab</title>
<path fill="none" stroke="black" d="M433.301,-287.871C411.165,-262.924 369.927,-216.45 344.482,-187.773"/>
<polygon fill="black" stroke="black" points="347.008,-185.346 337.752,-180.189 341.772,-189.992 347.008,-185.346"/>
</g>
<!-- [root] digitalocean_record.ssh -->
<g id="node8" class="node"><title>[root] digitalocean_record.ssh</title>
<polygon fill="none" stroke="black" points="951,-324 806,-324 806,-288 951,-288 951,-324"/>
<text text-anchor="middle" x="878.5" y="-302.3" font-family="Times,serif" font-size="14.00">digitalocean_record.ssh</text>
</g>
<!-- [root] digitalocean_record.ssh&#45;&gt;[root] digitalocean_droplet.miab -->
<g id="edge20" class="edge"><title>[root] digitalocean_record.ssh&#45;&gt;[root] digitalocean_droplet.miab</title>
<path fill="none" stroke="black" d="M878.747,-287.697C878.857,-279.983 878.99,-270.712 879.113,-262.112"/>
<polygon fill="black" stroke="black" points="882.612,-262.153 879.256,-252.104 875.613,-262.053 882.612,-262.153"/>
</g>
<!-- [root] digitalocean_spaces_bucket.miab&#45;&gt;[root] provider.digitalocean -->
<g id="edge21" class="edge"><title>[root] digitalocean_spaces_bucket.miab&#45;&gt;[root] provider.digitalocean</title>
<path fill="none" stroke="black" d="M822.07,-143.966C782.116,-132.115 729.452,-116.494 691.686,-105.292"/>
<polygon fill="black" stroke="black" points="692.521,-101.889 681.938,-102.401 690.53,-108.6 692.521,-101.889"/>
</g>
<!-- [root] digitalocean_spaces_bucket.miab&#45;&gt;[root] var.do_region -->
<g id="edge22" class="edge"><title>[root] digitalocean_spaces_bucket.miab&#45;&gt;[root] var.do_region</title>
<path fill="none" stroke="black" d="M779.768,-145.236C776.983,-144.817 774.222,-144.404 771.5,-144 656.978,-126.998 627.42,-128.654 513.5,-108 506.975,-106.817 500.161,-105.463 493.407,-104.048"/>
<polygon fill="black" stroke="black" points="494.109,-100.619 483.597,-101.942 492.64,-107.463 494.109,-100.619"/>
</g>
<!-- [root] var.droplet_name -->
<g id="node16" class="node"><title>[root] var.droplet_name</title>
<polygon fill="none" stroke="black" points="930,-108 823,-108 823,-72 936,-72 936,-102 930,-108"/>
<polyline fill="none" stroke="black" points="930,-108 930,-102 "/>
<polyline fill="none" stroke="black" points="936,-102 930,-102 "/>
<text text-anchor="middle" x="879.5" y="-86.3" font-family="Times,serif" font-size="14.00">var.droplet_name</text>
</g>
<!-- [root] digitalocean_spaces_bucket.miab&#45;&gt;[root] var.droplet_name -->
<g id="edge23" class="edge"><title>[root] digitalocean_spaces_bucket.miab&#45;&gt;[root] var.droplet_name</title>
<path fill="none" stroke="black" d="M879.5,-143.697C879.5,-135.983 879.5,-126.712 879.5,-118.112"/>
<polygon fill="black" stroke="black" points="883,-118.104 879.5,-108.104 876,-118.104 883,-118.104"/>
</g>
<!-- [root] digitalocean_ssh_key.miab&#45;&gt;[root] provider.digitalocean -->
<g id="edge24" class="edge"><title>[root] digitalocean_ssh_key.miab&#45;&gt;[root] provider.digitalocean</title>
<path fill="none" stroke="black" d="M997.181,-145.499C994.253,-144.986 991.352,-144.485 988.5,-144 892.7,-127.697 781.543,-111.022 711.862,-100.838"/>
<polygon fill="black" stroke="black" points="712.289,-97.3635 701.889,-99.3835 711.279,-104.29 712.289,-97.3635"/>
</g>
<!-- [root] var.ssh_private_key -->
<g id="node25" class="node"><title>[root] var.ssh_private_key</title>
<polygon fill="none" stroke="black" points="1136,-108 1017,-108 1017,-72 1142,-72 1142,-102 1136,-108"/>
<polyline fill="none" stroke="black" points="1136,-108 1136,-102 "/>
<polyline fill="none" stroke="black" points="1142,-102 1136,-102 "/>
<text text-anchor="middle" x="1079.5" y="-86.3" font-family="Times,serif" font-size="14.00">var.ssh_private_key</text>
</g>
<!-- [root] digitalocean_ssh_key.miab&#45;&gt;[root] var.ssh_private_key -->
<g id="edge25" class="edge"><title>[root] digitalocean_ssh_key.miab&#45;&gt;[root] var.ssh_private_key</title>
<path fill="none" stroke="black" d="M1079.5,-143.697C1079.5,-135.983 1079.5,-126.712 1079.5,-118.112"/>
<polygon fill="black" stroke="black" points="1083,-118.104 1079.5,-108.104 1076,-118.104 1083,-118.104"/>
</g>
<!-- [root] output.floating_ip_address -->
<g id="node11" class="node"><title>[root] output.floating_ip_address</title>
<polygon fill="none" stroke="black" points="165,-252 10,-252 10,-216 171,-216 171,-246 165,-252"/>
<polyline fill="none" stroke="black" points="165,-252 165,-246 "/>
<polyline fill="none" stroke="black" points="171,-246 165,-246 "/>
<text text-anchor="middle" x="90.5" y="-230.3" font-family="Times,serif" font-size="14.00">output.floating_ip_address</text>
</g>
<!-- [root] output.floating_ip_address&#45;&gt;[root] digitalocean_floating_ip.miab -->
<g id="edge33" class="edge"><title>[root] output.floating_ip_address&#45;&gt;[root] digitalocean_floating_ip.miab</title>
<path fill="none" stroke="black" d="M101.129,-215.697C106.128,-207.559 112.191,-197.689 117.712,-188.701"/>
<polygon fill="black" stroke="black" points="120.741,-190.457 122.993,-180.104 114.777,-186.793 120.741,-190.457"/>
</g>
<!-- [root] var.do_token -->
<g id="node14" class="node"><title>[root] var.do_token</title>
<polygon fill="none" stroke="black" points="553.5,-36 471.5,-36 471.5,-0 559.5,-0 559.5,-30 553.5,-36"/>
<polyline fill="none" stroke="black" points="553.5,-36 553.5,-30 "/>
<polyline fill="none" stroke="black" points="559.5,-30 553.5,-30 "/>
<text text-anchor="middle" x="515.5" y="-14.3" font-family="Times,serif" font-size="14.00">var.do_token</text>
</g>
<!-- [root] provider.digitalocean&#45;&gt;[root] var.do_token -->
<g id="edge39" class="edge"><title>[root] provider.digitalocean&#45;&gt;[root] var.do_token</title>
<path fill="none" stroke="black" d="M618.82,-75.5033C600.975,-65.744 576.47,-52.3428 555.803,-41.0409"/>
<polygon fill="black" stroke="black" points="557.368,-37.9073 546.915,-36.1799 554.009,-44.0489 557.368,-37.9073"/>
</g>
<!-- [root] var.spaces_access_id -->
<g id="node22" class="node"><title>[root] var.spaces_access_id</title>
<polygon fill="none" stroke="black" points="703,-36 578,-36 578,-0 709,-0 709,-30 703,-36"/>
<polyline fill="none" stroke="black" points="703,-36 703,-30 "/>
<polyline fill="none" stroke="black" points="709,-30 703,-30 "/>
<text text-anchor="middle" x="643.5" y="-14.3" font-family="Times,serif" font-size="14.00">var.spaces_access_id</text>
</g>
<!-- [root] provider.digitalocean&#45;&gt;[root] var.spaces_access_id -->
<g id="edge40" class="edge"><title>[root] provider.digitalocean&#45;&gt;[root] var.spaces_access_id</title>
<path fill="none" stroke="black" d="M643.5,-71.6966C643.5,-63.9827 643.5,-54.7125 643.5,-46.1124"/>
<polygon fill="black" stroke="black" points="647,-46.1043 643.5,-36.1043 640,-46.1044 647,-46.1043"/>
</g>
<!-- [root] var.spaces_secret_key -->
<g id="node23" class="node"><title>[root] var.spaces_secret_key</title>
<polygon fill="none" stroke="black" points="858,-36 727,-36 727,-0 864,-0 864,-30 858,-36"/>
<polyline fill="none" stroke="black" points="858,-36 858,-30 "/>
<polyline fill="none" stroke="black" points="864,-30 858,-30 "/>
<text text-anchor="middle" x="795.5" y="-14.3" font-family="Times,serif" font-size="14.00">var.spaces_secret_key</text>
</g>
<!-- [root] provider.digitalocean&#45;&gt;[root] var.spaces_secret_key -->
<g id="edge41" class="edge"><title>[root] provider.digitalocean&#45;&gt;[root] var.spaces_secret_key</title>
<path fill="none" stroke="black" d="M671.734,-75.9976C693.43,-66.0057 723.861,-51.9915 749.119,-40.3599"/>
<polygon fill="black" stroke="black" points="750.897,-43.3941 758.516,-36.032 747.969,-37.0359 750.897,-43.3941"/>
</g>
<!-- [root] var.droplet_region -->
<g id="node18" class="node"><title>[root] var.droplet_region</title>
<polygon fill="none" stroke="black" points="111,-324 -7.10543e-15,-324 -7.10543e-15,-288 117,-288 117,-318 111,-324"/>
<polyline fill="none" stroke="black" points="111,-324 111,-318 "/>
<polyline fill="none" stroke="black" points="117,-318 111,-318 "/>
<text text-anchor="middle" x="58.5" y="-302.3" font-family="Times,serif" font-size="14.00">var.droplet_region</text>
</g>
<!-- [root] meta.count&#45;boundary (EachMode fixup) -->
<g id="node27" class="node"><title>[root] meta.count&#45;boundary (EachMode fixup)</title>
<ellipse fill="none" stroke="black" cx="309.5" cy="-378" rx="176.569" ry="18"/>
<text text-anchor="middle" x="309.5" y="-374.3" font-family="Times,serif" font-size="14.00">[root] meta.count&#45;boundary (EachMode fixup)</text>
</g>
<!-- [root] meta.count&#45;boundary (EachMode fixup)&#45;&gt;[root] digitalocean_floating_ip_assignment.miab -->
<g id="edge26" class="edge"><title>[root] meta.count&#45;boundary (EachMode fixup)&#45;&gt;[root] digitalocean_floating_ip_assignment.miab</title>
<path fill="none" stroke="black" d="M386.749,-361.725C439.814,-351.232 510.639,-337.227 567.356,-326.012"/>
<polygon fill="black" stroke="black" points="568.281,-329.396 577.412,-324.023 566.923,-322.529 568.281,-329.396"/>
</g>
<!-- [root] meta.count&#45;boundary (EachMode fixup)&#45;&gt;[root] digitalocean_record.box -->
<g id="edge27" class="edge"><title>[root] meta.count&#45;boundary (EachMode fixup)&#45;&gt;[root] digitalocean_record.box</title>
<path fill="none" stroke="black" d="M249.497,-360.957C231.219,-352.953 213.158,-341.174 202.5,-324 194.063,-310.405 195.863,-302.559 202.5,-288 207.728,-276.531 216.8,-266.584 226.374,-258.504"/>
<polygon fill="black" stroke="black" points="228.751,-261.088 234.46,-252.163 224.431,-255.58 228.751,-261.088"/>
</g>
<!-- [root] meta.count&#45;boundary (EachMode fixup)&#45;&gt;[root] digitalocean_record.ns1 -->
<g id="edge28" class="edge"><title>[root] meta.count&#45;boundary (EachMode fixup)&#45;&gt;[root] digitalocean_record.ns1</title>
<path fill="none" stroke="black" d="M303.32,-359.697C300.505,-351.813 297.109,-342.304 293.981,-333.546"/>
<polygon fill="black" stroke="black" points="297.268,-332.345 290.609,-324.104 290.676,-334.699 297.268,-332.345"/>
</g>
<!-- [root] meta.count&#45;boundary (EachMode fixup)&#45;&gt;[root] digitalocean_record.ns2 -->
<g id="edge29" class="edge"><title>[root] meta.count&#45;boundary (EachMode fixup)&#45;&gt;[root] digitalocean_record.ns2</title>
<path fill="none" stroke="black" d="M342.794,-360.233C361.599,-350.763 385.311,-338.822 405.509,-328.65"/>
<polygon fill="black" stroke="black" points="407.155,-331.74 414.512,-324.116 404.006,-325.488 407.155,-331.74"/>
</g>
<!-- [root] meta.count&#45;boundary (EachMode fixup)&#45;&gt;[root] digitalocean_record.ssh -->
<g id="edge30" class="edge"><title>[root] meta.count&#45;boundary (EachMode fixup)&#45;&gt;[root] digitalocean_record.ssh</title>
<path fill="none" stroke="black" d="M441.982,-366.046C537.585,-357.323 669.907,-343.577 795.501,-324.071"/>
<polygon fill="black" stroke="black" points="796.352,-327.48 805.689,-322.473 795.267,-320.565 796.352,-327.48"/>
</g>
<!-- [root] meta.count&#45;boundary (EachMode fixup)&#45;&gt;[root] output.floating_ip_address -->
<g id="edge31" class="edge"><title>[root] meta.count&#45;boundary (EachMode fixup)&#45;&gt;[root] output.floating_ip_address</title>
<path fill="none" stroke="black" d="M265.834,-360.516C243.419,-351.207 216.14,-338.53 193.5,-324 164.178,-305.181 134.468,-278.52 114.542,-259.291"/>
<polygon fill="black" stroke="black" points="116.745,-256.55 107.148,-252.062 111.852,-261.555 116.745,-256.55"/>
</g>
<!-- [root] meta.count&#45;boundary (EachMode fixup)&#45;&gt;[root] var.droplet_region -->
<g id="edge32" class="edge"><title>[root] meta.count&#45;boundary (EachMode fixup)&#45;&gt;[root] var.droplet_region</title>
<path fill="none" stroke="black" d="M251.916,-360.941C214.69,-350.559 166.055,-336.995 126.868,-326.067"/>
<polygon fill="black" stroke="black" points="127.695,-322.664 117.122,-323.349 125.814,-329.406 127.695,-322.664"/>
</g>
<!-- [root] provider.digitalocean (close) -->
<g id="node28" class="node"><title>[root] provider.digitalocean (close)</title>
<ellipse fill="none" stroke="black" cx="663.5" cy="-378" rx="134.576" ry="18"/>
<text text-anchor="middle" x="663.5" y="-374.3" font-family="Times,serif" font-size="14.00">[root] provider.digitalocean (close)</text>
</g>
<!-- [root] provider.digitalocean (close)&#45;&gt;[root] digitalocean_floating_ip_assignment.miab -->
<g id="edge34" class="edge"><title>[root] provider.digitalocean (close)&#45;&gt;[root] digitalocean_floating_ip_assignment.miab</title>
<path fill="none" stroke="black" d="M663.5,-359.697C663.5,-351.983 663.5,-342.712 663.5,-334.112"/>
<polygon fill="black" stroke="black" points="667,-334.104 663.5,-324.104 660,-334.104 667,-334.104"/>
</g>
<!-- [root] provider.digitalocean (close)&#45;&gt;[root] digitalocean_record.box -->
<g id="edge35" class="edge"><title>[root] provider.digitalocean (close)&#45;&gt;[root] digitalocean_record.box</title>
<path fill="none" stroke="black" d="M762.005,-365.726C843.386,-355.396 947.596,-339.411 960.5,-324 970.772,-311.733 971.376,-299.735 960.5,-288 939.943,-265.82 528.723,-246.044 347.752,-238.378"/>
<polygon fill="black" stroke="black" points="347.877,-234.881 337.739,-237.957 347.583,-241.875 347.877,-234.881"/>
</g>
<!-- [root] provider.digitalocean (close)&#45;&gt;[root] digitalocean_record.ns1 -->
<g id="edge36" class="edge"><title>[root] provider.digitalocean (close)&#45;&gt;[root] digitalocean_record.ns1</title>
<path fill="none" stroke="black" d="M583.972,-363.427C526.553,-353.483 446.898,-339.395 367.925,-324.25"/>
<polygon fill="black" stroke="black" points="368.279,-320.754 357.797,-322.301 366.956,-327.628 368.279,-320.754"/>
</g>
<!-- [root] provider.digitalocean (close)&#45;&gt;[root] digitalocean_record.ns2 -->
<g id="edge37" class="edge"><title>[root] provider.digitalocean (close)&#45;&gt;[root] digitalocean_record.ns2</title>
<path fill="none" stroke="black" d="M614.982,-361.203C584.095,-351.147 543.8,-338.028 510.59,-327.215"/>
<polygon fill="black" stroke="black" points="511.57,-323.854 500.978,-324.086 509.403,-330.51 511.57,-323.854"/>
</g>
<!-- [root] provider.digitalocean (close)&#45;&gt;[root] digitalocean_record.ssh -->
<g id="edge38" class="edge"><title>[root] provider.digitalocean (close)&#45;&gt;[root] digitalocean_record.ssh</title>
<path fill="none" stroke="black" d="M712.018,-361.203C742.905,-351.147 783.2,-338.028 816.41,-327.215"/>
<polygon fill="black" stroke="black" points="817.597,-330.51 826.022,-324.086 815.43,-323.854 817.597,-330.51"/>
</g>
<!-- [root] provisioner.remote&#45;exec (close) -->
<g id="node29" class="node"><title>[root] provisioner.remote&#45;exec (close)</title>
<ellipse fill="none" stroke="black" cx="989.5" cy="-378" rx="145.674" ry="18"/>
<text text-anchor="middle" x="989.5" y="-374.3" font-family="Times,serif" font-size="14.00">[root] provisioner.remote&#45;exec (close)</text>
</g>
<!-- [root] provisioner.remote&#45;exec (close)&#45;&gt;[root] digitalocean_droplet.miab -->
<g id="edge42" class="edge"><title>[root] provisioner.remote&#45;exec (close)&#45;&gt;[root] digitalocean_droplet.miab</title>
<path fill="none" stroke="black" d="M995.755,-359.76C1001.53,-340.642 1007.31,-309.646 993.5,-288 984.752,-274.285 971.435,-264.064 956.95,-256.465"/>
<polygon fill="black" stroke="black" points="958.34,-253.249 947.812,-252.064 955.303,-259.556 958.34,-253.249"/>
</g>
<!-- [root] root -->
<g id="node30" class="node"><title>[root] root</title>
<ellipse fill="none" stroke="black" cx="663.5" cy="-450" rx="47.3916" ry="18"/>
<text text-anchor="middle" x="663.5" y="-446.3" font-family="Times,serif" font-size="14.00">[root] root</text>
</g>
<!-- [root] root&#45;&gt;[root] meta.count&#45;boundary (EachMode fixup) -->
<g id="edge43" class="edge"><title>[root] root&#45;&gt;[root] meta.count&#45;boundary (EachMode fixup)</title>
<path fill="none" stroke="black" d="M622.546,-440.902C567.618,-430.04 468.673,-410.475 396.689,-396.241"/>
<polygon fill="black" stroke="black" points="397.208,-392.776 386.719,-394.269 395.85,-399.643 397.208,-392.776"/>
</g>
<!-- [root] root&#45;&gt;[root] provider.digitalocean (close) -->
<g id="edge44" class="edge"><title>[root] root&#45;&gt;[root] provider.digitalocean (close)</title>
<path fill="none" stroke="black" d="M663.5,-431.697C663.5,-423.983 663.5,-414.712 663.5,-406.112"/>
<polygon fill="black" stroke="black" points="667,-406.104 663.5,-396.104 660,-406.104 667,-406.104"/>
</g>
<!-- [root] root&#45;&gt;[root] provisioner.remote&#45;exec (close) -->
<g id="edge45" class="edge"><title>[root] root&#45;&gt;[root] provisioner.remote&#45;exec (close)</title>
<path fill="none" stroke="black" d="M703.801,-440.346C755.167,-429.317 845.117,-410.002 910.392,-395.986"/>
<polygon fill="black" stroke="black" points="911.199,-399.393 920.241,-393.871 909.73,-392.549 911.199,-399.393"/>
</g>
</g>
</svg>
