<?xml version="1.0" encoding="UTF-8" standalone="no"?>
<!DOCTYPE svg PUBLIC "-//W3C//DTD SVG 1.1//EN"
 "http://www.w3.org/Graphics/SVG/1.1/DTD/svg11.dtd">
<!-- Generated by graphviz version 2.38.0 (20140413.2041)
 -->
<!-- Title: %3 Pages: 1 -->
<svg width="1605pt" height="476pt"
 viewBox="0.00 0.00 1604.50 476.00" xmlns="http://www.w3.org/2000/svg" xmlns:xlink="http://www.w3.org/1999/xlink">
<g id="graph0" class="graph" transform="scale(1 1) rotate(0) translate(4 472)">
<title>%3</title>
<polygon fill="white" stroke="none" points="-4,4 -4,-472 1600.5,-472 1600.5,4 -4,4"/>
<!-- [root] digitalocean_droplet.miab -->
<g id="node1" class="node"><title>[root] digitalocean_droplet.miab</title>
<polygon fill="none" stroke="black" points="852,-252 693,-252 693,-216 852,-216 852,-252"/>
<text text-anchor="middle" x="772.5" y="-230.3" font-family="Times,serif" font-size="14.00">digitalocean_droplet.miab</text>
</g>
<!-- [root] digitalocean_floating_ip.miab -->
<g id="node2" class="node"><title>[root] digitalocean_floating_ip.miab</title>
<polygon fill="none" stroke="black" points="1414.5,-180 1234.5,-180 1234.5,-144 1414.5,-144 1414.5,-180"/>
<text text-anchor="middle" x="1324.5" y="-158.3" font-family="Times,serif" font-size="14.00">digitalocean_floating_ip.miab</text>
</g>
<!-- [root] digitalocean_droplet.miab&#45;&gt;[root] digitalocean_floating_ip.miab -->
<g id="edge1" class="edge"><title>[root] digitalocean_droplet.miab&#45;&gt;[root] digitalocean_floating_ip.miab</title>
<path fill="none" stroke="black" d="M852.044,-224.998C940.426,-215.811 1087.61,-199.637 1224.19,-180.148"/>
<polygon fill="black" stroke="black" points="1225.02,-183.564 1234.42,-178.678 1224.03,-176.635 1225.02,-183.564"/>
</g>
<!-- [root] digitalocean_spaces_bucket.miab -->
<g id="node4" class="node"><title>[root] digitalocean_spaces_bucket.miab</title>
<polygon fill="none" stroke="black" points="199,-180 0,-180 0,-144 199,-144 199,-180"/>
<text text-anchor="middle" x="99.5" y="-158.3" font-family="Times,serif" font-size="14.00">digitalocean_spaces_bucket.miab</text>
</g>
<!-- [root] digitalocean_droplet.miab&#45;&gt;[root] digitalocean_spaces_bucket.miab -->
<g id="edge2" class="edge"><title>[root] digitalocean_droplet.miab&#45;&gt;[root] digitalocean_spaces_bucket.miab</title>
<path fill="none" stroke="black" d="M692.941,-227.062C585.606,-218.708 388.242,-202.135 209.382,-180.066"/>
<polygon fill="black" stroke="black" points="209.613,-176.568 199.258,-178.808 208.75,-183.514 209.613,-176.568"/>
</g>
<!-- [root] digitalocean_ssh_key.miab -->
<g id="node5" class="node"><title>[root] digitalocean_ssh_key.miab</title>
<polygon fill="none" stroke="black" points="1596.5,-180 1432.5,-180 1432.5,-144 1596.5,-144 1596.5,-180"/>
<text text-anchor="middle" x="1514.5" y="-158.3" font-family="Times,serif" font-size="14.00">digitalocean_ssh_key.miab</text>
</g>
<!-- [root] digitalocean_droplet.miab&#45;&gt;[root] digitalocean_ssh_key.miab -->
<g id="edge3" class="edge"><title>[root] digitalocean_droplet.miab&#45;&gt;[root] digitalocean_ssh_key.miab</title>
<path fill="none" stroke="black" d="M852.203,-229.173C973.282,-222.769 1210.95,-207.89 1422.18,-180.098"/>
<polygon fill="black" stroke="black" points="1422.77,-183.551 1432.22,-178.765 1421.85,-176.612 1422.77,-183.551"/>
</g>
<!-- [root] var.droplet_image -->
<g id="node10" class="node"><title>[root] var.droplet_image</title>
<polygon fill="none" stroke="black" points="327.5,-180 217.5,-180 217.5,-144 333.5,-144 333.5,-174 327.5,-180"/>
<polyline fill="none" stroke="black" points="327.5,-180 327.5,-174 "/>
<polyline fill="none" stroke="black" points="333.5,-174 327.5,-174 "/>
<text text-anchor="middle" x="275.5" y="-158.3" font-family="Times,serif" font-size="14.00">var.droplet_image</text>
</g>
<!-- [root] digitalocean_droplet.miab&#45;&gt;[root] var.droplet_image -->
<g id="edge5" class="edge"><title>[root] digitalocean_droplet.miab&#45;&gt;[root] var.droplet_image</title>
<path fill="none" stroke="black" d="M692.786,-226.203C608.314,-218.315 470.933,-203.534 343.448,-180.047"/>
<polygon fill="black" stroke="black" points="343.977,-176.585 333.505,-178.193 342.695,-183.467 343.977,-176.585"/>
</g>
<!-- [root] var.droplet_private_networking -->
<g id="node11" class="node"><title>[root] var.droplet_private_networking</title>
<polygon fill="none" stroke="black" points="533.5,-180 351.5,-180 351.5,-144 539.5,-144 539.5,-174 533.5,-180"/>
<polyline fill="none" stroke="black" points="533.5,-180 533.5,-174 "/>
<polyline fill="none" stroke="black" points="539.5,-174 533.5,-174 "/>
<text text-anchor="middle" x="445.5" y="-158.3" font-family="Times,serif" font-size="14.00">var.droplet_private_networking</text>
</g>
<!-- [root] digitalocean_droplet.miab&#45;&gt;[root] var.droplet_private_networking -->
<g id="edge6" class="edge"><title>[root] digitalocean_droplet.miab&#45;&gt;[root] var.droplet_private_networking</title>
<path fill="none" stroke="black" d="M692.925,-215.966C645.26,-205.762 584.539,-192.764 535.18,-182.198"/>
<polygon fill="black" stroke="black" points="535.659,-178.721 525.148,-180.05 534.194,-185.566 535.659,-178.721"/>
</g>
<!-- [root] var.droplet_size -->
<g id="node13" class="node"><title>[root] var.droplet_size</title>
<polygon fill="none" stroke="black" points="655.5,-180 557.5,-180 557.5,-144 661.5,-144 661.5,-174 655.5,-180"/>
<polyline fill="none" stroke="black" points="655.5,-180 655.5,-174 "/>
<polyline fill="none" stroke="black" points="661.5,-174 655.5,-174 "/>
<text text-anchor="middle" x="609.5" y="-158.3" font-family="Times,serif" font-size="14.00">var.droplet_size</text>
</g>
<!-- [root] digitalocean_droplet.miab&#45;&gt;[root] var.droplet_size -->
<g id="edge7" class="edge"><title>[root] digitalocean_droplet.miab&#45;&gt;[root] var.droplet_size</title>
<path fill="none" stroke="black" d="M732.626,-215.876C710.343,-206.307 682.385,-194.3 658.744,-184.148"/>
<polygon fill="black" stroke="black" points="659.814,-180.798 649.245,-180.068 657.052,-187.23 659.814,-180.798"/>
</g>
<!-- [root] var.miab_STORAGE_ROOT -->
<g id="node15" class="node"><title>[root] var.miab_STORAGE_ROOT</title>
<polygon fill="none" stroke="black" points="851.5,-180 679.5,-180 679.5,-144 857.5,-144 857.5,-174 851.5,-180"/>
<polyline fill="none" stroke="black" points="851.5,-180 851.5,-174 "/>
<polyline fill="none" stroke="black" points="857.5,-174 851.5,-174 "/>
<text text-anchor="middle" x="768.5" y="-158.3" font-family="Times,serif" font-size="14.00">var.miab_STORAGE_ROOT</text>
</g>
<!-- [root] digitalocean_droplet.miab&#45;&gt;[root] var.miab_STORAGE_ROOT -->
<g id="edge8" class="edge"><title>[root] digitalocean_droplet.miab&#45;&gt;[root] var.miab_STORAGE_ROOT</title>
<path fill="none" stroke="black" d="M771.511,-215.697C771.07,-207.983 770.541,-198.712 770.049,-190.112"/>
<polygon fill="black" stroke="black" points="773.542,-189.888 769.477,-180.104 766.554,-190.288 773.542,-189.888"/>
</g>
<!-- [root] var.ssh_port -->
<g id="node18" class="node"><title>[root] var.ssh_port</title>
<polygon fill="none" stroke="black" points="953,-180 876,-180 876,-144 959,-144 959,-174 953,-180"/>
<polyline fill="none" stroke="black" points="953,-180 953,-174 "/>
<polyline fill="none" stroke="black" points="959,-174 953,-174 "/>
<text text-anchor="middle" x="917.5" y="-158.3" font-family="Times,serif" font-size="14.00">var.ssh_port</text>
</g>
<!-- [root] digitalocean_droplet.miab&#45;&gt;[root] var.ssh_port -->
<g id="edge9" class="edge"><title>[root] digitalocean_droplet.miab&#45;&gt;[root] var.ssh_port</title>
<path fill="none" stroke="black" d="M807.971,-215.876C827.617,-206.392 852.222,-194.513 873.132,-184.419"/>
<polygon fill="black" stroke="black" points="874.66,-187.568 882.144,-180.068 871.617,-181.264 874.66,-187.568"/>
</g>
<!-- [root] provisioner.remote&#45;exec -->
<g id="node20" class="node"><title>[root] provisioner.remote&#45;exec</title>
<ellipse fill="none" stroke="black" cx="1096.5" cy="-162" rx="119.679" ry="18"/>
<text text-anchor="middle" x="1096.5" y="-158.3" font-family="Times,serif" font-size="14.00">[root] provisioner.remote&#45;exec</text>
</g>
<!-- [root] digitalocean_droplet.miab&#45;&gt;[root] provisioner.remote&#45;exec -->
<g id="edge4" class="edge"><title>[root] digitalocean_droplet.miab&#45;&gt;[root] provisioner.remote&#45;exec</title>
<path fill="none" stroke="black" d="M851.345,-215.966C903.061,-204.792 970.29,-190.268 1021.26,-179.255"/>
<polygon fill="black" stroke="black" points="1022.2,-182.634 1031.23,-177.101 1020.72,-175.792 1022.2,-182.634"/>
</g>
<!-- [root] provider.digitalocean -->
<g id="node7" class="node"><title>[root] provider.digitalocean</title>
<polygon fill="none" stroke="black" points="1318.5,-108 1197.34,-90 1318.5,-72 1439.66,-90 1318.5,-108"/>
<text text-anchor="middle" x="1318.5" y="-86.3" font-family="Times,serif" font-size="14.00">provider.digitalocean</text>
</g>
<!-- [root] digitalocean_floating_ip.miab&#45;&gt;[root] provider.digitalocean -->
<g id="edge10" class="edge"><title>[root] digitalocean_floating_ip.miab&#45;&gt;[root] provider.digitalocean</title>
<path fill="none" stroke="black" d="M1323.02,-143.697C1322.36,-135.983 1321.56,-126.712 1320.82,-118.112"/>
<polygon fill="black" stroke="black" points="1324.31,-117.769 1319.97,-108.104 1317.33,-118.367 1324.31,-117.769"/>
</g>
<!-- [root] var.do_region -->
<g id="node8" class="node"><title>[root] var.do_region</title>
<polygon fill="none" stroke="black" points="707.5,-108 621.5,-108 621.5,-72 713.5,-72 713.5,-102 707.5,-108"/>
<polyline fill="none" stroke="black" points="707.5,-108 707.5,-102 "/>
<polyline fill="none" stroke="black" points="713.5,-102 707.5,-102 "/>
<text text-anchor="middle" x="667.5" y="-86.3" font-family="Times,serif" font-size="14.00">var.do_region</text>
</g>
<!-- [root] digitalocean_floating_ip.miab&#45;&gt;[root] var.do_region -->
<g id="edge11" class="edge"><title>[root] digitalocean_floating_ip.miab&#45;&gt;[root] var.do_region</title>
<path fill="none" stroke="black" d="M1234.44,-145.238C1231.42,-144.806 1228.44,-144.391 1225.5,-144 1042.67,-119.655 824.683,-102.306 723.826,-94.9388"/>
<polygon fill="black" stroke="black" points="723.792,-91.4273 713.565,-94.1944 723.286,-98.4089 723.792,-91.4273"/>
</g>
<!-- [root] digitalocean_floating_ip_assignment.miab -->
<g id="node3" class="node"><title>[root] digitalocean_floating_ip_assignment.miab</title>
<polygon fill="none" stroke="black" points="1184.5,-324 936.5,-324 936.5,-288 1184.5,-288 1184.5,-324"/>
<text text-anchor="middle" x="1060.5" y="-302.3" font-family="Times,serif" font-size="14.00">digitalocean_floating_ip_assignment.miab</text>
</g>
<!-- [root] digitalocean_floating_ip_assignment.miab&#45;&gt;[root] digitalocean_droplet.miab -->
<g id="edge12" class="edge"><title>[root] digitalocean_floating_ip_assignment.miab&#45;&gt;[root] digitalocean_droplet.miab</title>
<path fill="none" stroke="black" d="M990.416,-287.966C948.863,-277.866 896.046,-265.028 852.816,-254.521"/>
<polygon fill="black" stroke="black" points="853.442,-251.072 842.899,-252.111 851.789,-257.874 853.442,-251.072"/>
</g>
<!-- [root] digitalocean_spaces_bucket.miab&#45;&gt;[root] provider.digitalocean -->
<g id="edge13" class="edge"><title>[root] digitalocean_spaces_bucket.miab&#45;&gt;[root] provider.digitalocean</title>
<path fill="none" stroke="black" d="M199.237,-145.007C202.358,-144.647 205.451,-144.31 208.5,-144 401.766,-124.372 977.849,-102.827 1214.87,-94.5278"/>
<polygon fill="black" stroke="black" points="1215.34,-98.0135 1225.21,-94.1665 1215.1,-91.0178 1215.34,-98.0135"/>
</g>
<!-- [root] digitalocean_spaces_bucket.miab&#45;&gt;[root] var.do_region -->
<g id="edge14" class="edge"><title>[root] digitalocean_spaces_bucket.miab&#45;&gt;[root] var.do_region</title>
<path fill="none" stroke="black" d="M199.269,-145.277C202.381,-144.839 205.463,-144.412 208.5,-144 353.438,-124.337 524.765,-105.797 611.361,-96.7553"/>
<polygon fill="black" stroke="black" points="611.911,-100.217 621.494,-95.7003 611.186,-93.2547 611.911,-100.217"/>
</g>
<!-- [root] var.fqdn -->
<g id="node14" class="node"><title>[root] var.fqdn</title>
<polygon fill="none" stroke="black" points="124.5,-108 68.5,-108 68.5,-72 130.5,-72 130.5,-102 124.5,-108"/>
<polyline fill="none" stroke="black" points="124.5,-108 124.5,-102 "/>
<polyline fill="none" stroke="black" points="130.5,-102 124.5,-102 "/>
<text text-anchor="middle" x="99.5" y="-86.3" font-family="Times,serif" font-size="14.00">var.fqdn</text>
</g>
<!-- [root] digitalocean_spaces_bucket.miab&#45;&gt;[root] var.fqdn -->
<g id="edge15" class="edge"><title>[root] digitalocean_spaces_bucket.miab&#45;&gt;[root] var.fqdn</title>
<path fill="none" stroke="black" d="M99.5,-143.697C99.5,-135.983 99.5,-126.712 99.5,-118.112"/>
<polygon fill="black" stroke="black" points="103,-118.104 99.5,-108.104 96.0001,-118.104 103,-118.104"/>
</g>
<!-- [root] digitalocean_ssh_key.miab&#45;&gt;[root] provider.digitalocean -->
<g id="edge16" class="edge"><title>[root] digitalocean_ssh_key.miab&#45;&gt;[root] provider.digitalocean</title>
<path fill="none" stroke="black" d="M1466.8,-143.966C1434.8,-132.536 1392.98,-117.599 1361.91,-106.502"/>
<polygon fill="black" stroke="black" points="1362.82,-103.111 1352.22,-103.044 1360.46,-109.703 1362.82,-103.111"/>
</g>
<!-- [root] var.ssh_private_key -->
<g id="node19" class="node"><title>[root] var.ssh_private_key</title>
<polygon fill="none" stroke="black" points="1577,-108 1458,-108 1458,-72 1583,-72 1583,-102 1577,-108"/>
<polyline fill="none" stroke="black" points="1577,-108 1577,-102 "/>
<polyline fill="none" stroke="black" points="1583,-102 1577,-102 "/>
<text text-anchor="middle" x="1520.5" y="-86.3" font-family="Times,serif" font-size="14.00">var.ssh_private_key</text>
</g>
<!-- [root] digitalocean_ssh_key.miab&#45;&gt;[root] var.ssh_private_key -->
<g id="edge17" class="edge"><title>[root] digitalocean_ssh_key.miab&#45;&gt;[root] var.ssh_private_key</title>
<path fill="none" stroke="black" d="M1515.98,-143.697C1516.64,-135.983 1517.44,-126.712 1518.18,-118.112"/>
<polygon fill="black" stroke="black" points="1521.67,-118.367 1519.03,-108.104 1514.69,-117.769 1521.67,-118.367"/>
</g>
<!-- [root] output.floating_ip_address -->
<g id="node6" class="node"><title>[root] output.floating_ip_address</title>
<polygon fill="none" stroke="black" points="1395,-252 1240,-252 1240,-216 1401,-216 1401,-246 1395,-252"/>
<polyline fill="none" stroke="black" points="1395,-252 1395,-246 "/>
<polyline fill="none" stroke="black" points="1401,-246 1395,-246 "/>
<text text-anchor="middle" x="1320.5" y="-230.3" font-family="Times,serif" font-size="14.00">output.floating_ip_address</text>
</g>
<!-- [root] output.floating_ip_address&#45;&gt;[root] digitalocean_floating_ip.miab -->
<g id="edge21" class="edge"><title>[root] output.floating_ip_address&#45;&gt;[root] digitalocean_floating_ip.miab</title>
<path fill="none" stroke="black" d="M1321.49,-215.697C1321.93,-207.983 1322.46,-198.712 1322.95,-190.112"/>
<polygon fill="black" stroke="black" points="1326.45,-190.288 1323.52,-180.104 1319.46,-189.888 1326.45,-190.288"/>
</g>
<!-- [root] var.do_token -->
<g id="node9" class="node"><title>[root] var.do_token</title>
<polygon fill="none" stroke="black" points="1228.5,-36 1146.5,-36 1146.5,-0 1234.5,-0 1234.5,-30 1228.5,-36"/>
<polyline fill="none" stroke="black" points="1228.5,-36 1228.5,-30 "/>
<polyline fill="none" stroke="black" points="1234.5,-30 1228.5,-30 "/>
<text text-anchor="middle" x="1190.5" y="-14.3" font-family="Times,serif" font-size="14.00">var.do_token</text>
</g>
<!-- [root] provider.digitalocean&#45;&gt;[root] var.do_token -->
<g id="edge23" class="edge"><title>[root] provider.digitalocean&#45;&gt;[root] var.do_token</title>
<path fill="none" stroke="black" d="M1293.82,-75.5033C1275.97,-65.744 1251.47,-52.3428 1230.8,-41.0409"/>
<polygon fill="black" stroke="black" points="1232.37,-37.9073 1221.91,-36.1799 1229.01,-44.0489 1232.37,-37.9073"/>
</g>
<!-- [root] var.spaces_access_id -->
<g id="node16" class="node"><title>[root] var.spaces_access_id</title>
<polygon fill="none" stroke="black" points="1378,-36 1253,-36 1253,-0 1384,-0 1384,-30 1378,-36"/>
<polyline fill="none" stroke="black" points="1378,-36 1378,-30 "/>
<polyline fill="none" stroke="black" points="1384,-30 1378,-30 "/>
<text text-anchor="middle" x="1318.5" y="-14.3" font-family="Times,serif" font-size="14.00">var.spaces_access_id</text>
</g>
<!-- [root] provider.digitalocean&#45;&gt;[root] var.spaces_access_id -->
<g id="edge24" class="edge"><title>[root] provider.digitalocean&#45;&gt;[root] var.spaces_access_id</title>
<path fill="none" stroke="black" d="M1318.5,-71.6966C1318.5,-63.9827 1318.5,-54.7125 1318.5,-46.1124"/>
<polygon fill="black" stroke="black" points="1322,-46.1043 1318.5,-36.1043 1315,-46.1044 1322,-46.1043"/>
</g>
<!-- [root] var.spaces_secret_key -->
<g id="node17" class="node"><title>[root] var.spaces_secret_key</title>
<polygon fill="none" stroke="black" points="1533,-36 1402,-36 1402,-0 1539,-0 1539,-30 1533,-36"/>
<polyline fill="none" stroke="black" points="1533,-36 1533,-30 "/>
<polyline fill="none" stroke="black" points="1539,-30 1533,-30 "/>
<text text-anchor="middle" x="1470.5" y="-14.3" font-family="Times,serif" font-size="14.00">var.spaces_secret_key</text>
</g>
<!-- [root] provider.digitalocean&#45;&gt;[root] var.spaces_secret_key -->
<g id="edge25" class="edge"><title>[root] provider.digitalocean&#45;&gt;[root] var.spaces_secret_key</title>
<path fill="none" stroke="black" d="M1346.73,-75.9976C1368.43,-66.0057 1398.86,-51.9915 1424.12,-40.3599"/>
<polygon fill="black" stroke="black" points="1425.9,-43.3941 1433.52,-36.032 1422.97,-37.0359 1425.9,-43.3941"/>
</g>
<!-- [root] var.droplet_region -->
<g id="node12" class="node"><title>[root] var.droplet_region</title>
<polygon fill="none" stroke="black" points="1452,-324 1341,-324 1341,-288 1458,-288 1458,-318 1452,-324"/>
<polyline fill="none" stroke="black" points="1452,-324 1452,-318 "/>
<polyline fill="none" stroke="black" points="1458,-318 1452,-318 "/>
<text text-anchor="middle" x="1399.5" y="-302.3" font-family="Times,serif" font-size="14.00">var.droplet_region</text>
</g>
<!-- [root] meta.count&#45;boundary (EachMode fixup) -->
<g id="node21" class="node"><title>[root] meta.count&#45;boundary (EachMode fixup)</title>
<ellipse fill="none" stroke="black" cx="1312.5" cy="-378" rx="176.569" ry="18"/>
<text text-anchor="middle" x="1312.5" y="-374.3" font-family="Times,serif" font-size="14.00">[root] meta.count&#45;boundary (EachMode fixup)</text>
</g>
<!-- [root] meta.count&#45;boundary (EachMode fixup)&#45;&gt;[root] digitalocean_floating_ip_assignment.miab -->
<g id="edge18" class="edge"><title>[root] meta.count&#45;boundary (EachMode fixup)&#45;&gt;[root] digitalocean_floating_ip_assignment.miab</title>
<path fill="none" stroke="black" d="M1254.69,-360.941C1218.12,-350.782 1170.58,-337.577 1131.69,-326.776"/>
<polygon fill="black" stroke="black" points="1132.58,-323.389 1122,-324.084 1130.7,-330.133 1132.58,-323.389"/>
</g>
<!-- [root] meta.count&#45;boundary (EachMode fixup)&#45;&gt;[root] output.floating_ip_address -->
<g id="edge19" class="edge"><title>[root] meta.count&#45;boundary (EachMode fixup)&#45;&gt;[root] output.floating_ip_address</title>
<path fill="none" stroke="black" d="M1313.46,-359.871C1314.83,-335.67 1317.33,-291.211 1318.96,-262.393"/>
<polygon fill="black" stroke="black" points="1322.46,-262.37 1319.53,-252.189 1315.47,-261.977 1322.46,-262.37"/>
</g>
<!-- [root] meta.count&#45;boundary (EachMode fixup)&#45;&gt;[root] var.droplet_region -->
<g id="edge20" class="edge"><title>[root] meta.count&#45;boundary (EachMode fixup)&#45;&gt;[root] var.droplet_region</title>
<path fill="none" stroke="black" d="M1333.56,-360.055C1344.59,-351.179 1358.28,-340.169 1370.31,-330.483"/>
<polygon fill="black" stroke="black" points="1372.74,-333.027 1378.33,-324.032 1368.35,-327.574 1372.74,-333.027"/>
</g>
<!-- [root] provider.digitalocean (close) -->
<g id="node22" class="node"><title>[root] provider.digitalocean (close)</title>
<ellipse fill="none" stroke="black" cx="983.5" cy="-378" rx="134.576" ry="18"/>
<text text-anchor="middle" x="983.5" y="-374.3" font-family="Times,serif" font-size="14.00">[root] provider.digitalocean (close)</text>
</g>
<!-- [root] provider.digitalocean (close)&#45;&gt;[root] digitalocean_floating_ip_assignment.miab -->
<g id="edge22" class="edge"><title>[root] provider.digitalocean (close)&#45;&gt;[root] digitalocean_floating_ip_assignment.miab</title>
<path fill="none" stroke="black" d="M1002.14,-360.055C1011.81,-351.264 1023.78,-340.38 1034.36,-330.763"/>
<polygon fill="black" stroke="black" points="1036.72,-333.348 1041.77,-324.032 1032.01,-328.169 1036.72,-333.348"/>
</g>
<!-- [root] provisioner.remote&#45;exec (close) -->
<g id="node23" class="node"><title>[root] provisioner.remote&#45;exec (close)</title>
<ellipse fill="none" stroke="black" cx="772.5" cy="-306" rx="145.674" ry="18"/>
<text text-anchor="middle" x="772.5" y="-302.3" font-family="Times,serif" font-size="14.00">[root] provisioner.remote&#45;exec (close)</text>
</g>
<!-- [root] provisioner.remote&#45;exec (close)&#45;&gt;[root] digitalocean_droplet.miab -->
<g id="edge26" class="edge"><title>[root] provisioner.remote&#45;exec (close)&#45;&gt;[root] digitalocean_droplet.miab</title>
<path fill="none" stroke="black" d="M772.5,-287.697C772.5,-279.983 772.5,-270.712 772.5,-262.112"/>
<polygon fill="black" stroke="black" points="776,-262.104 772.5,-252.104 769,-262.104 776,-262.104"/>
</g>
<!-- [root] root -->
<g id="node24" class="node"><title>[root] root</title>
<ellipse fill="none" stroke="black" cx="983.5" cy="-450" rx="47.3916" ry="18"/>
<text text-anchor="middle" x="983.5" y="-446.3" font-family="Times,serif" font-size="14.00">[root] root</text>
</g>
<!-- [root] root&#45;&gt;[root] meta.count&#45;boundary (EachMode fixup) -->
<g id="edge27" class="edge"><title>[root] root&#45;&gt;[root] meta.count&#45;boundary (EachMode fixup)</title>
<path fill="none" stroke="black" d="M1023.84,-440.417C1074.93,-429.548 1164.2,-410.553 1229.98,-396.557"/>
<polygon fill="black" stroke="black" points="1230.87,-399.948 1239.92,-394.443 1229.41,-393.101 1230.87,-399.948"/>
</g>
<!-- [root] root&#45;&gt;[root] provider.digitalocean (close) -->
<g id="edge28" class="edge"><title>[root] root&#45;&gt;[root] provider.digitalocean (close)</title>
<path fill="none" stroke="black" d="M983.5,-431.697C983.5,-423.983 983.5,-414.712 983.5,-406.112"/>
<polygon fill="black" stroke="black" points="987,-406.104 983.5,-396.104 980,-406.104 987,-406.104"/>
</g>
<!-- [root] root&#45;&gt;[root] provisioner.remote&#45;exec (close) -->
<g id="edge29" class="edge"><title>[root] root&#45;&gt;[root] provisioner.remote&#45;exec (close)</title>
<path fill="none" stroke="black" d="M942.928,-440.662C912.294,-432.887 870.397,-418.96 839.5,-396 816.852,-379.17 798.258,-352.617 786.452,-332.889"/>
<polygon fill="black" stroke="black" points="789.402,-330.999 781.365,-324.096 783.343,-334.504 789.402,-330.999"/>
</g>
</g>
</svg>
