<?xml version="1.0" encoding="UTF-8" standalone="no"?>
<!DOCTYPE svg PUBLIC "-//W3C//DTD SVG 1.1//EN"
 "http://www.w3.org/Graphics/SVG/1.1/DTD/svg11.dtd">
<!-- Generated by graphviz version 2.38.0 (20140413.2041)
 -->
<!-- Title: %3 Pages: 1 -->
<svg width="1676pt" height="548pt"
 viewBox="0.00 0.00 1676.00 548.00" xmlns="http://www.w3.org/2000/svg" xmlns:xlink="http://www.w3.org/1999/xlink">
<g id="graph0" class="graph" transform="scale(1 1) rotate(0) translate(4 544)">
<title>%3</title>
<polygon fill="white" stroke="none" points="-4,4 -4,-544 1672,-544 1672,4 -4,4"/>
<!-- [root] digitalocean_domain.miab -->
<g id="node1" class="node"><title>[root] digitalocean_domain.miab</title>
<polygon fill="none" stroke="black" points="162,-180 0,-180 0,-144 162,-144 162,-180"/>
<text text-anchor="middle" x="81" y="-158.3" font-family="Times,serif" font-size="14.00">digitalocean_domain.miab</text>
</g>
<!-- [root] provider.digitalocean -->
<g id="node10" class="node"><title>[root] provider.digitalocean</title>
<polygon fill="none" stroke="black" points="223,-108 101.842,-90 223,-72 344.158,-90 223,-108"/>
<text text-anchor="middle" x="223" y="-86.3" font-family="Times,serif" font-size="14.00">provider.digitalocean</text>
</g>
<!-- [root] digitalocean_domain.miab&#45;&gt;[root] provider.digitalocean -->
<g id="edge1" class="edge"><title>[root] digitalocean_domain.miab&#45;&gt;[root] provider.digitalocean</title>
<path fill="none" stroke="black" d="M115.737,-143.876C137.434,-133.18 165.307,-119.44 187.201,-108.647"/>
<polygon fill="black" stroke="black" points="188.761,-111.781 196.183,-104.22 185.666,-105.502 188.761,-111.781"/>
</g>
<!-- [root] var.fqdn -->
<g id="node17" class="node"><title>[root] var.fqdn</title>
<polygon fill="none" stroke="black" points="78,-108 22,-108 22,-72 84,-72 84,-102 78,-108"/>
<polyline fill="none" stroke="black" points="78,-108 78,-102 "/>
<polyline fill="none" stroke="black" points="84,-102 78,-102 "/>
<text text-anchor="middle" x="53" y="-86.3" font-family="Times,serif" font-size="14.00">var.fqdn</text>
</g>
<!-- [root] digitalocean_domain.miab&#45;&gt;[root] var.fqdn -->
<g id="edge2" class="edge"><title>[root] digitalocean_domain.miab&#45;&gt;[root] var.fqdn</title>
<path fill="none" stroke="black" d="M74.0786,-143.697C70.9253,-135.813 67.1217,-126.304 63.6186,-117.546"/>
<polygon fill="black" stroke="black" points="66.8054,-116.089 59.8417,-108.104 60.306,-118.689 66.8054,-116.089"/>
</g>
<!-- [root] digitalocean_droplet.miab -->
<g id="node2" class="node"><title>[root] digitalocean_droplet.miab</title>
<polygon fill="none" stroke="black" points="823.5,-324 664.5,-324 664.5,-288 823.5,-288 823.5,-324"/>
<text text-anchor="middle" x="744" y="-302.3" font-family="Times,serif" font-size="14.00">digitalocean_droplet.miab</text>
</g>
<!-- [root] digitalocean_floating_ip.miab -->
<g id="node3" class="node"><title>[root] digitalocean_floating_ip.miab</title>
<polygon fill="none" stroke="black" points="251,-252 71,-252 71,-216 251,-216 251,-252"/>
<text text-anchor="middle" x="161" y="-230.3" font-family="Times,serif" font-size="14.00">digitalocean_floating_ip.miab</text>
</g>
<!-- [root] digitalocean_droplet.miab&#45;&gt;[root] digitalocean_floating_ip.miab -->
<g id="edge3" class="edge"><title>[root] digitalocean_droplet.miab&#45;&gt;[root] digitalocean_floating_ip.miab</title>
<path fill="none" stroke="black" d="M664.165,-297.763C570.222,-288.908 409.315,-272.681 261.256,-252.13"/>
<polygon fill="black" stroke="black" points="261.46,-248.625 251.072,-250.707 260.491,-255.557 261.46,-248.625"/>
</g>
<!-- [root] digitalocean_spaces_bucket.miab -->
<g id="node7" class="node"><title>[root] digitalocean_spaces_bucket.miab</title>
<polygon fill="none" stroke="black" points="468.5,-252 269.5,-252 269.5,-216 468.5,-216 468.5,-252"/>
<text text-anchor="middle" x="369" y="-230.3" font-family="Times,serif" font-size="14.00">digitalocean_spaces_bucket.miab</text>
</g>
<!-- [root] digitalocean_droplet.miab&#45;&gt;[root] digitalocean_spaces_bucket.miab -->
<g id="edge4" class="edge"><title>[root] digitalocean_droplet.miab&#45;&gt;[root] digitalocean_spaces_bucket.miab</title>
<path fill="none" stroke="black" d="M664.472,-290.155C607.855,-279.586 531.314,-265.299 470.321,-253.913"/>
<polygon fill="black" stroke="black" points="470.758,-250.434 460.286,-252.04 469.474,-257.316 470.758,-250.434"/>
</g>
<!-- [root] digitalocean_ssh_key.miab -->
<g id="node8" class="node"><title>[root] digitalocean_ssh_key.miab</title>
<polygon fill="none" stroke="black" points="1546,-252 1382,-252 1382,-216 1546,-216 1546,-252"/>
<text text-anchor="middle" x="1464" y="-230.3" font-family="Times,serif" font-size="14.00">digitalocean_ssh_key.miab</text>
</g>
<!-- [root] digitalocean_droplet.miab&#45;&gt;[root] digitalocean_ssh_key.miab -->
<g id="edge5" class="edge"><title>[root] digitalocean_droplet.miab&#45;&gt;[root] digitalocean_ssh_key.miab</title>
<path fill="none" stroke="black" d="M823.715,-300.861C941.463,-294.174 1168.95,-279.07 1371.78,-252.09"/>
<polygon fill="black" stroke="black" points="1372.27,-255.554 1381.72,-250.755 1371.34,-248.617 1372.27,-255.554"/>
</g>
<!-- [root] var.droplet_image -->
<g id="node13" class="node"><title>[root] var.droplet_image</title>
<polygon fill="none" stroke="black" points="1152,-252 1042,-252 1042,-216 1158,-216 1158,-246 1152,-252"/>
<polyline fill="none" stroke="black" points="1152,-252 1152,-246 "/>
<polyline fill="none" stroke="black" points="1158,-246 1152,-246 "/>
<text text-anchor="middle" x="1100" y="-230.3" font-family="Times,serif" font-size="14.00">var.droplet_image</text>
</g>
<!-- [root] digitalocean_droplet.miab&#45;&gt;[root] var.droplet_image -->
<g id="edge7" class="edge"><title>[root] digitalocean_droplet.miab&#45;&gt;[root] var.droplet_image</title>
<path fill="none" stroke="black" d="M823.712,-291.863C879.41,-282.339 955.712,-268.609 1031.72,-252.207"/>
<polygon fill="black" stroke="black" points="1032.92,-255.527 1041.95,-249.982 1031.44,-248.687 1032.92,-255.527"/>
</g>
<!-- [root] var.droplet_private_networking -->
<g id="node14" class="node"><title>[root] var.droplet_private_networking</title>
<polygon fill="none" stroke="black" points="1358,-252 1176,-252 1176,-216 1364,-216 1364,-246 1358,-252"/>
<polyline fill="none" stroke="black" points="1358,-252 1358,-246 "/>
<polyline fill="none" stroke="black" points="1364,-246 1358,-246 "/>
<text text-anchor="middle" x="1270" y="-230.3" font-family="Times,serif" font-size="14.00">var.droplet_private_networking</text>
</g>
<!-- [root] digitalocean_droplet.miab&#45;&gt;[root] var.droplet_private_networking -->
<g id="edge8" class="edge"><title>[root] digitalocean_droplet.miab&#45;&gt;[root] var.droplet_private_networking</title>
<path fill="none" stroke="black" d="M823.646,-295.958C906.524,-286.335 1040.33,-270.204 1165.82,-252.141"/>
<polygon fill="black" stroke="black" points="1166.6,-255.565 1176,-250.67 1165.6,-248.637 1166.6,-255.565"/>
</g>
<!-- [root] var.droplet_size -->
<g id="node16" class="node"><title>[root] var.droplet_size</title>
<polygon fill="none" stroke="black" points="1662,-252 1564,-252 1564,-216 1668,-216 1668,-246 1662,-252"/>
<polyline fill="none" stroke="black" points="1662,-252 1662,-246 "/>
<polyline fill="none" stroke="black" points="1668,-246 1662,-246 "/>
<text text-anchor="middle" x="1616" y="-230.3" font-family="Times,serif" font-size="14.00">var.droplet_size</text>
</g>
<!-- [root] digitalocean_droplet.miab&#45;&gt;[root] var.droplet_size -->
<g id="edge9" class="edge"><title>[root] digitalocean_droplet.miab&#45;&gt;[root] var.droplet_size</title>
<path fill="none" stroke="black" d="M823.777,-305.222C968.111,-304.438 1282.06,-297.292 1553.86,-251.975"/>
<polygon fill="black" stroke="black" points="1554.64,-255.393 1563.92,-250.277 1553.47,-248.491 1554.64,-255.393"/>
</g>
<!-- [root] var.miab_STORAGE_ROOT -->
<g id="node18" class="node"><title>[root] var.miab_STORAGE_ROOT</title>
<polygon fill="none" stroke="black" points="659,-252 487,-252 487,-216 665,-216 665,-246 659,-252"/>
<polyline fill="none" stroke="black" points="659,-252 659,-246 "/>
<polyline fill="none" stroke="black" points="665,-246 659,-246 "/>
<text text-anchor="middle" x="576" y="-230.3" font-family="Times,serif" font-size="14.00">var.miab_STORAGE_ROOT</text>
</g>
<!-- [root] digitalocean_droplet.miab&#45;&gt;[root] var.miab_STORAGE_ROOT -->
<g id="edge10" class="edge"><title>[root] digitalocean_droplet.miab&#45;&gt;[root] var.miab_STORAGE_ROOT</title>
<path fill="none" stroke="black" d="M702.903,-287.876C679.834,-278.264 650.864,-266.193 626.43,-256.013"/>
<polygon fill="black" stroke="black" points="627.541,-252.684 616.964,-252.068 624.849,-259.145 627.541,-252.684"/>
</g>
<!-- [root] var.ssh_port -->
<g id="node21" class="node"><title>[root] var.ssh_port</title>
<polygon fill="none" stroke="black" points="760.5,-252 683.5,-252 683.5,-216 766.5,-216 766.5,-246 760.5,-252"/>
<polyline fill="none" stroke="black" points="760.5,-252 760.5,-246 "/>
<polyline fill="none" stroke="black" points="766.5,-246 760.5,-246 "/>
<text text-anchor="middle" x="725" y="-230.3" font-family="Times,serif" font-size="14.00">var.ssh_port</text>
</g>
<!-- [root] digitalocean_droplet.miab&#45;&gt;[root] var.ssh_port -->
<g id="edge11" class="edge"><title>[root] digitalocean_droplet.miab&#45;&gt;[root] var.ssh_port</title>
<path fill="none" stroke="black" d="M739.303,-287.697C737.187,-279.898 734.638,-270.509 732.282,-261.829"/>
<polygon fill="black" stroke="black" points="735.64,-260.838 729.643,-252.104 728.884,-262.672 735.64,-260.838"/>
</g>
<!-- [root] provisioner.remote&#45;exec -->
<g id="node23" class="node"><title>[root] provisioner.remote&#45;exec</title>
<ellipse fill="none" stroke="black" cx="904" cy="-234" rx="119.679" ry="18"/>
<text text-anchor="middle" x="904" y="-230.3" font-family="Times,serif" font-size="14.00">[root] provisioner.remote&#45;exec</text>
</g>
<!-- [root] digitalocean_droplet.miab&#45;&gt;[root] provisioner.remote&#45;exec -->
<g id="edge6" class="edge"><title>[root] digitalocean_droplet.miab&#45;&gt;[root] provisioner.remote&#45;exec</title>
<path fill="none" stroke="black" d="M783.14,-287.876C805.583,-278.058 833.889,-265.674 857.465,-255.359"/>
<polygon fill="black" stroke="black" points="859.154,-258.441 866.913,-251.226 856.348,-252.027 859.154,-258.441"/>
</g>
<!-- [root] digitalocean_floating_ip.miab&#45;&gt;[root] provider.digitalocean -->
<g id="edge12" class="edge"><title>[root] digitalocean_floating_ip.miab&#45;&gt;[root] provider.digitalocean</title>
<path fill="none" stroke="black" d="M168.479,-215.871C179.254,-191.193 199.226,-145.45 211.776,-116.707"/>
<polygon fill="black" stroke="black" points="215.084,-117.877 215.878,-107.312 208.669,-115.076 215.084,-117.877"/>
</g>
<!-- [root] var.do_region -->
<g id="node11" class="node"><title>[root] var.do_region</title>
<polygon fill="none" stroke="black" points="342,-180 256,-180 256,-144 348,-144 348,-174 342,-180"/>
<polyline fill="none" stroke="black" points="342,-180 342,-174 "/>
<polyline fill="none" stroke="black" points="348,-174 342,-174 "/>
<text text-anchor="middle" x="302" y="-158.3" font-family="Times,serif" font-size="14.00">var.do_region</text>
</g>
<!-- [root] digitalocean_floating_ip.miab&#45;&gt;[root] var.do_region -->
<g id="edge13" class="edge"><title>[root] digitalocean_floating_ip.miab&#45;&gt;[root] var.do_region</title>
<path fill="none" stroke="black" d="M195.492,-215.876C214.44,-206.469 238.132,-194.708 258.356,-184.667"/>
<polygon fill="black" stroke="black" points="259.974,-187.771 267.375,-180.19 256.862,-181.502 259.974,-187.771"/>
</g>
<!-- [root] digitalocean_floating_ip_assignment.miab -->
<g id="node4" class="node"><title>[root] digitalocean_floating_ip_assignment.miab</title>
<polygon fill="none" stroke="black" points="504,-396 256,-396 256,-360 504,-360 504,-396"/>
<text text-anchor="middle" x="380" y="-374.3" font-family="Times,serif" font-size="14.00">digitalocean_floating_ip_assignment.miab</text>
</g>
<!-- [root] digitalocean_floating_ip_assignment.miab&#45;&gt;[root] digitalocean_droplet.miab -->
<g id="edge14" class="edge"><title>[root] digitalocean_floating_ip_assignment.miab&#45;&gt;[root] digitalocean_droplet.miab</title>
<path fill="none" stroke="black" d="M468.579,-359.966C524.959,-349.123 597.748,-335.125 654.337,-324.243"/>
<polygon fill="black" stroke="black" points="655.188,-327.643 664.347,-322.318 653.866,-320.769 655.188,-327.643"/>
</g>
<!-- [root] digitalocean_record.box -->
<g id="node5" class="node"><title>[root] digitalocean_record.box</title>
<polygon fill="none" stroke="black" points="197,-324 49,-324 49,-288 197,-288 197,-324"/>
<text text-anchor="middle" x="123" y="-302.3" font-family="Times,serif" font-size="14.00">digitalocean_record.box</text>
</g>
<!-- [root] digitalocean_record.box&#45;&gt;[root] digitalocean_domain.miab -->
<g id="edge15" class="edge"><title>[root] digitalocean_record.box&#45;&gt;[root] digitalocean_domain.miab</title>
<path fill="none" stroke="black" d="M93.96,-287.837C81.6817,-278.866 68.6923,-266.68 62,-252 52.8893,-232.015 59.2761,-207.49 67.0158,-189.25"/>
<polygon fill="black" stroke="black" points="70.2317,-190.634 71.2378,-180.087 63.8741,-187.704 70.2317,-190.634"/>
</g>
<!-- [root] digitalocean_record.box&#45;&gt;[root] digitalocean_floating_ip.miab -->
<g id="edge16" class="edge"><title>[root] digitalocean_record.box&#45;&gt;[root] digitalocean_floating_ip.miab</title>
<path fill="none" stroke="black" d="M132.393,-287.697C136.765,-279.644 142.057,-269.894 146.895,-260.982"/>
<polygon fill="black" stroke="black" points="150.02,-262.563 151.715,-252.104 143.868,-259.223 150.02,-262.563"/>
</g>
<!-- [root] digitalocean_record.ssh -->
<g id="node6" class="node"><title>[root] digitalocean_record.ssh</title>
<polygon fill="none" stroke="black" points="705.5,-396 560.5,-396 560.5,-360 705.5,-360 705.5,-396"/>
<text text-anchor="middle" x="633" y="-374.3" font-family="Times,serif" font-size="14.00">digitalocean_record.ssh</text>
</g>
<!-- [root] digitalocean_record.ssh&#45;&gt;[root] digitalocean_droplet.miab -->
<g id="edge17" class="edge"><title>[root] digitalocean_record.ssh&#45;&gt;[root] digitalocean_droplet.miab</title>
<path fill="none" stroke="black" d="M660.154,-359.876C674.533,-350.808 692.381,-339.552 707.91,-329.759"/>
<polygon fill="black" stroke="black" points="710.15,-332.484 716.742,-324.19 706.416,-326.564 710.15,-332.484"/>
</g>
<!-- [root] digitalocean_spaces_bucket.miab&#45;&gt;[root] digitalocean_domain.miab -->
<g id="edge18" class="edge"><title>[root] digitalocean_spaces_bucket.miab&#45;&gt;[root] digitalocean_domain.miab</title>
<path fill="none" stroke="black" d="M298.916,-215.966C257.363,-205.866 204.546,-193.028 161.316,-182.521"/>
<polygon fill="black" stroke="black" points="161.942,-179.072 151.399,-180.111 160.289,-185.874 161.942,-179.072"/>
</g>
<!-- [root] digitalocean_spaces_bucket.miab&#45;&gt;[root] var.do_region -->
<g id="edge19" class="edge"><title>[root] digitalocean_spaces_bucket.miab&#45;&gt;[root] var.do_region</title>
<path fill="none" stroke="black" d="M352.438,-215.697C344.325,-207.22 334.412,-196.864 325.529,-187.583"/>
<polygon fill="black" stroke="black" points="327.814,-184.908 318.371,-180.104 322.757,-189.749 327.814,-184.908"/>
</g>
<!-- [root] digitalocean_ssh_key.miab&#45;&gt;[root] provider.digitalocean -->
<g id="edge20" class="edge"><title>[root] digitalocean_ssh_key.miab&#45;&gt;[root] provider.digitalocean</title>
<path fill="none" stroke="black" d="M1381.71,-217.335C1378.77,-216.869 1375.86,-216.422 1373,-216 975.751,-157.392 497.51,-114.082 307.124,-97.9248"/>
<polygon fill="black" stroke="black" points="307.169,-94.4162 296.91,-97.0606 306.579,-101.391 307.169,-94.4162"/>
</g>
<!-- [root] var.ssh_private_key -->
<g id="node22" class="node"><title>[root] var.ssh_private_key</title>
<polygon fill="none" stroke="black" points="1520.5,-180 1401.5,-180 1401.5,-144 1526.5,-144 1526.5,-174 1520.5,-180"/>
<polyline fill="none" stroke="black" points="1520.5,-180 1520.5,-174 "/>
<polyline fill="none" stroke="black" points="1526.5,-174 1520.5,-174 "/>
<text text-anchor="middle" x="1464" y="-158.3" font-family="Times,serif" font-size="14.00">var.ssh_private_key</text>
</g>
<!-- [root] digitalocean_ssh_key.miab&#45;&gt;[root] var.ssh_private_key -->
<g id="edge21" class="edge"><title>[root] digitalocean_ssh_key.miab&#45;&gt;[root] var.ssh_private_key</title>
<path fill="none" stroke="black" d="M1464,-215.697C1464,-207.983 1464,-198.712 1464,-190.112"/>
<polygon fill="black" stroke="black" points="1467.5,-190.104 1464,-180.104 1460.5,-190.104 1467.5,-190.104"/>
</g>
<!-- [root] output.floating_ip_address -->
<g id="node9" class="node"><title>[root] output.floating_ip_address</title>
<polygon fill="none" stroke="black" points="370.5,-324 215.5,-324 215.5,-288 376.5,-288 376.5,-318 370.5,-324"/>
<polyline fill="none" stroke="black" points="370.5,-324 370.5,-318 "/>
<polyline fill="none" stroke="black" points="376.5,-318 370.5,-318 "/>
<text text-anchor="middle" x="296" y="-302.3" font-family="Times,serif" font-size="14.00">output.floating_ip_address</text>
</g>
<!-- [root] output.floating_ip_address&#45;&gt;[root] digitalocean_floating_ip.miab -->
<g id="edge27" class="edge"><title>[root] output.floating_ip_address&#45;&gt;[root] digitalocean_floating_ip.miab</title>
<path fill="none" stroke="black" d="M262.975,-287.876C244.915,-278.512 222.355,-266.814 203.049,-256.803"/>
<polygon fill="black" stroke="black" points="204.64,-253.686 194.152,-252.19 201.418,-259.9 204.64,-253.686"/>
</g>
<!-- [root] var.do_token -->
<g id="node12" class="node"><title>[root] var.do_token</title>
<polygon fill="none" stroke="black" points="133,-36 51,-36 51,-0 139,-0 139,-30 133,-36"/>
<polyline fill="none" stroke="black" points="133,-36 133,-30 "/>
<polyline fill="none" stroke="black" points="139,-30 133,-30 "/>
<text text-anchor="middle" x="95" y="-14.3" font-family="Times,serif" font-size="14.00">var.do_token</text>
</g>
<!-- [root] provider.digitalocean&#45;&gt;[root] var.do_token -->
<g id="edge31" class="edge"><title>[root] provider.digitalocean&#45;&gt;[root] var.do_token</title>
<path fill="none" stroke="black" d="M198.32,-75.5033C180.475,-65.744 155.97,-52.3428 135.303,-41.0409"/>
<polygon fill="black" stroke="black" points="136.868,-37.9073 126.415,-36.1799 133.509,-44.0489 136.868,-37.9073"/>
</g>
<!-- [root] var.spaces_access_id -->
<g id="node19" class="node"><title>[root] var.spaces_access_id</title>
<polygon fill="none" stroke="black" points="282.5,-36 157.5,-36 157.5,-0 288.5,-0 288.5,-30 282.5,-36"/>
<polyline fill="none" stroke="black" points="282.5,-36 282.5,-30 "/>
<polyline fill="none" stroke="black" points="288.5,-30 282.5,-30 "/>
<text text-anchor="middle" x="223" y="-14.3" font-family="Times,serif" font-size="14.00">var.spaces_access_id</text>
</g>
<!-- [root] provider.digitalocean&#45;&gt;[root] var.spaces_access_id -->
<g id="edge32" class="edge"><title>[root] provider.digitalocean&#45;&gt;[root] var.spaces_access_id</title>
<path fill="none" stroke="black" d="M223,-71.6966C223,-63.9827 223,-54.7125 223,-46.1124"/>
<polygon fill="black" stroke="black" points="226.5,-46.1043 223,-36.1043 219.5,-46.1044 226.5,-46.1043"/>
</g>
<!-- [root] var.spaces_secret_key -->
<g id="node20" class="node"><title>[root] var.spaces_secret_key</title>
<polygon fill="none" stroke="black" points="437.5,-36 306.5,-36 306.5,-0 443.5,-0 443.5,-30 437.5,-36"/>
<polyline fill="none" stroke="black" points="437.5,-36 437.5,-30 "/>
<polyline fill="none" stroke="black" points="443.5,-30 437.5,-30 "/>
<text text-anchor="middle" x="375" y="-14.3" font-family="Times,serif" font-size="14.00">var.spaces_secret_key</text>
</g>
<!-- [root] provider.digitalocean&#45;&gt;[root] var.spaces_secret_key -->
<g id="edge33" class="edge"><title>[root] provider.digitalocean&#45;&gt;[root] var.spaces_secret_key</title>
<path fill="none" stroke="black" d="M251.234,-75.9976C272.93,-66.0057 303.361,-51.9915 328.619,-40.3599"/>
<polygon fill="black" stroke="black" points="330.397,-43.3941 338.016,-36.032 327.469,-37.0359 330.397,-43.3941"/>
</g>
<!-- [root] var.droplet_region -->
<g id="node15" class="node"><title>[root] var.droplet_region</title>
<polygon fill="none" stroke="black" points="155.5,-396 44.5,-396 44.5,-360 161.5,-360 161.5,-390 155.5,-396"/>
<polyline fill="none" stroke="black" points="155.5,-396 155.5,-390 "/>
<polyline fill="none" stroke="black" points="161.5,-390 155.5,-390 "/>
<text text-anchor="middle" x="103" y="-374.3" font-family="Times,serif" font-size="14.00">var.droplet_region</text>
</g>
<!-- [root] meta.count&#45;boundary (EachMode fixup) -->
<g id="node24" class="node"><title>[root] meta.count&#45;boundary (EachMode fixup)</title>
<ellipse fill="none" stroke="black" cx="203" cy="-450" rx="176.569" ry="18"/>
<text text-anchor="middle" x="203" y="-446.3" font-family="Times,serif" font-size="14.00">[root] meta.count&#45;boundary (EachMode fixup)</text>
</g>
<!-- [root] meta.count&#45;boundary (EachMode fixup)&#45;&gt;[root] digitalocean_floating_ip_assignment.miab -->
<g id="edge22" class="edge"><title>[root] meta.count&#45;boundary (EachMode fixup)&#45;&gt;[root] digitalocean_floating_ip_assignment.miab</title>
<path fill="none" stroke="black" d="M244.947,-432.411C269.62,-422.653 301.044,-410.226 327.369,-399.814"/>
<polygon fill="black" stroke="black" points="328.804,-403.011 336.816,-396.078 326.23,-396.501 328.804,-403.011"/>
</g>
<!-- [root] meta.count&#45;boundary (EachMode fixup)&#45;&gt;[root] digitalocean_record.box -->
<g id="edge23" class="edge"><title>[root] meta.count&#45;boundary (EachMode fixup)&#45;&gt;[root] digitalocean_record.box</title>
<path fill="none" stroke="black" d="M198.664,-431.758C193.535,-413.184 183.901,-383.177 170,-360 163.994,-349.987 155.979,-340.112 148.271,-331.649"/>
<polygon fill="black" stroke="black" points="150.754,-329.181 141.345,-324.311 145.663,-333.986 150.754,-329.181"/>
</g>
<!-- [root] meta.count&#45;boundary (EachMode fixup)&#45;&gt;[root] digitalocean_record.ssh -->
<g id="edge24" class="edge"><title>[root] meta.count&#45;boundary (EachMode fixup)&#45;&gt;[root] digitalocean_record.ssh</title>
<path fill="none" stroke="black" d="M292.357,-434.453C368.149,-422.115 476.031,-404.553 549.964,-392.518"/>
<polygon fill="black" stroke="black" points="550.856,-395.918 560.164,-390.857 549.731,-389.009 550.856,-395.918"/>
</g>
<!-- [root] meta.count&#45;boundary (EachMode fixup)&#45;&gt;[root] output.floating_ip_address -->
<g id="edge25" class="edge"><title>[root] meta.count&#45;boundary (EachMode fixup)&#45;&gt;[root] output.floating_ip_address</title>
<path fill="none" stroke="black" d="M209.755,-431.801C217.425,-413.264 230.976,-383.288 247,-360 253.922,-349.939 262.675,-339.858 270.862,-331.229"/>
<polygon fill="black" stroke="black" points="273.378,-333.663 277.85,-324.058 268.364,-328.777 273.378,-333.663"/>
</g>
<!-- [root] meta.count&#45;boundary (EachMode fixup)&#45;&gt;[root] var.droplet_region -->
<g id="edge26" class="edge"><title>[root] meta.count&#45;boundary (EachMode fixup)&#45;&gt;[root] var.droplet_region</title>
<path fill="none" stroke="black" d="M178.793,-432.055C165.868,-423.008 149.778,-411.744 135.751,-401.926"/>
<polygon fill="black" stroke="black" points="137.53,-398.899 127.331,-396.032 133.516,-404.634 137.53,-398.899"/>
</g>
<!-- [root] provider.digitalocean (close) -->
<g id="node25" class="node"><title>[root] provider.digitalocean (close)</title>
<ellipse fill="none" stroke="black" cx="532" cy="-450" rx="134.576" ry="18"/>
<text text-anchor="middle" x="532" y="-446.3" font-family="Times,serif" font-size="14.00">[root] provider.digitalocean (close)</text>
</g>
<!-- [root] provider.digitalocean (close)&#45;&gt;[root] digitalocean_floating_ip_assignment.miab -->
<g id="edge28" class="edge"><title>[root] provider.digitalocean (close)&#45;&gt;[root] digitalocean_floating_ip_assignment.miab</title>
<path fill="none" stroke="black" d="M496.363,-432.588C475.479,-422.971 448.867,-410.715 426.365,-400.352"/>
<polygon fill="black" stroke="black" points="427.548,-397.044 417.001,-396.04 424.62,-403.402 427.548,-397.044"/>
</g>
<!-- [root] provider.digitalocean (close)&#45;&gt;[root] digitalocean_record.box -->
<g id="edge29" class="edge"><title>[root] provider.digitalocean (close)&#45;&gt;[root] digitalocean_record.box</title>
<path fill="none" stroke="black" d="M533.732,-431.739C534.722,-411.397 532.86,-378.083 513,-360 464.293,-315.651 289.042,-333.28 207.134,-323.876"/>
<polygon fill="black" stroke="black" points="207.536,-320.399 197.154,-322.515 206.589,-327.335 207.536,-320.399"/>
</g>
<!-- [root] provider.digitalocean (close)&#45;&gt;[root] digitalocean_record.ssh -->
<g id="edge30" class="edge"><title>[root] provider.digitalocean (close)&#45;&gt;[root] digitalocean_record.ssh</title>
<path fill="none" stroke="black" d="M556.192,-432.233C569.241,-423.19 585.541,-411.892 599.764,-402.035"/>
<polygon fill="black" stroke="black" points="602.078,-404.689 608.304,-396.116 598.091,-398.936 602.078,-404.689"/>
</g>
<!-- [root] provisioner.remote&#45;exec (close) -->
<g id="node26" class="node"><title>[root] provisioner.remote&#45;exec (close)</title>
<ellipse fill="none" stroke="black" cx="830" cy="-450" rx="145.674" ry="18"/>
<text text-anchor="middle" x="830" y="-446.3" font-family="Times,serif" font-size="14.00">[root] provisioner.remote&#45;exec (close)</text>
</g>
<!-- [root] provisioner.remote&#45;exec (close)&#45;&gt;[root] digitalocean_droplet.miab -->
<g id="edge34" class="edge"><title>[root] provisioner.remote&#45;exec (close)&#45;&gt;[root] digitalocean_droplet.miab</title>
<path fill="none" stroke="black" d="M819.626,-431.871C804.711,-407.244 777.09,-361.638 759.677,-332.885"/>
<polygon fill="black" stroke="black" points="762.585,-330.93 754.41,-324.189 756.597,-334.556 762.585,-330.93"/>
</g>
<!-- [root] root -->
<g id="node27" class="node"><title>[root] root</title>
<ellipse fill="none" stroke="black" cx="532" cy="-522" rx="47.3916" ry="18"/>
<text text-anchor="middle" x="532" y="-518.3" font-family="Times,serif" font-size="14.00">[root] root</text>
</g>
<!-- [root] root&#45;&gt;[root] meta.count&#45;boundary (EachMode fixup) -->
<g id="edge35" class="edge"><title>[root] root&#45;&gt;[root] meta.count&#45;boundary (EachMode fixup)</title>
<path fill="none" stroke="black" d="M491.658,-512.417C440.574,-501.548 351.298,-482.553 285.519,-468.557"/>
<polygon fill="black" stroke="black" points="286.092,-465.101 275.582,-466.443 284.635,-471.948 286.092,-465.101"/>
</g>
<!-- [root] root&#45;&gt;[root] provider.digitalocean (close) -->
<g id="edge36" class="edge"><title>[root] root&#45;&gt;[root] provider.digitalocean (close)</title>
<path fill="none" stroke="black" d="M532,-503.697C532,-495.983 532,-486.712 532,-478.112"/>
<polygon fill="black" stroke="black" points="535.5,-478.104 532,-468.104 528.5,-478.104 535.5,-478.104"/>
</g>
<!-- [root] root&#45;&gt;[root] provisioner.remote&#45;exec (close) -->
<g id="edge37" class="edge"><title>[root] root&#45;&gt;[root] provisioner.remote&#45;exec (close)</title>
<path fill="none" stroke="black" d="M571.265,-511.777C618.028,-500.792 697.151,-482.206 755.615,-468.473"/>
<polygon fill="black" stroke="black" points="756.61,-471.835 765.544,-466.141 755.009,-465.02 756.61,-471.835"/>
</g>
</g>
</svg>
