<?xml version="1.0" encoding="UTF-8" standalone="no"?>
<!DOCTYPE svg PUBLIC "-//W3C//DTD SVG 1.1//EN"
 "http://www.w3.org/Graphics/SVG/1.1/DTD/svg11.dtd">
<!-- Generated by graphviz version 2.38.0 (20140413.2041)
 -->
<!-- Title: %3 Pages: 1 -->
<svg width="1847pt" height="548pt"
 viewBox="0.00 0.00 1846.59 548.00" xmlns="http://www.w3.org/2000/svg" xmlns:xlink="http://www.w3.org/1999/xlink">
<g id="graph0" class="graph" transform="scale(1 1) rotate(0) translate(4 544)">
<title>%3</title>
<polygon fill="white" stroke="none" points="-4,4 -4,-544 1842.59,-544 1842.59,4 -4,4"/>
<!-- [root] digitalocean_domain.miab -->
<g id="node1" class="node"><title>[root] digitalocean_domain.miab</title>
<polygon fill="none" stroke="black" points="276,-180 114,-180 114,-144 276,-144 276,-180"/>
<text text-anchor="middle" x="195" y="-158.3" font-family="Times,serif" font-size="14.00">digitalocean_domain.miab</text>
</g>
<!-- [root] provider.digitalocean -->
<g id="node12" class="node"><title>[root] provider.digitalocean</title>
<polygon fill="none" stroke="black" points="362,-108 240.842,-90 362,-72 483.158,-90 362,-108"/>
<text text-anchor="middle" x="362" y="-86.3" font-family="Times,serif" font-size="14.00">provider.digitalocean</text>
</g>
<!-- [root] digitalocean_domain.miab&#45;&gt;[root] provider.digitalocean -->
<g id="edge1" class="edge"><title>[root] digitalocean_domain.miab&#45;&gt;[root] provider.digitalocean</title>
<path fill="none" stroke="black" d="M235.853,-143.876C262.341,-132.773 296.656,-118.39 322.808,-107.428"/>
<polygon fill="black" stroke="black" points="324.175,-110.65 332.044,-103.556 321.469,-104.194 324.175,-110.65"/>
</g>
<!-- [root] var.fqdn -->
<g id="node19" class="node"><title>[root] var.fqdn</title>
<polygon fill="none" stroke="black" points="217,-108 161,-108 161,-72 223,-72 223,-102 217,-108"/>
<polyline fill="none" stroke="black" points="217,-108 217,-102 "/>
<polyline fill="none" stroke="black" points="223,-102 217,-102 "/>
<text text-anchor="middle" x="192" y="-86.3" font-family="Times,serif" font-size="14.00">var.fqdn</text>
</g>
<!-- [root] digitalocean_domain.miab&#45;&gt;[root] var.fqdn -->
<g id="edge2" class="edge"><title>[root] digitalocean_domain.miab&#45;&gt;[root] var.fqdn</title>
<path fill="none" stroke="black" d="M194.258,-143.697C193.928,-135.983 193.531,-126.712 193.162,-118.112"/>
<polygon fill="black" stroke="black" points="196.658,-117.945 192.733,-108.104 189.665,-118.245 196.658,-117.945"/>
</g>
<!-- [root] digitalocean_droplet.miab -->
<g id="node2" class="node"><title>[root] digitalocean_droplet.miab</title>
<polygon fill="none" stroke="black" points="1050.5,-324 891.5,-324 891.5,-288 1050.5,-288 1050.5,-324"/>
<text text-anchor="middle" x="971" y="-302.3" font-family="Times,serif" font-size="14.00">digitalocean_droplet.miab</text>
</g>
<!-- [root] digitalocean_floating_ip.miab -->
<g id="node3" class="node"><title>[root] digitalocean_floating_ip.miab</title>
<polygon fill="none" stroke="black" points="422,-252 242,-252 242,-216 422,-216 422,-252"/>
<text text-anchor="middle" x="332" y="-230.3" font-family="Times,serif" font-size="14.00">digitalocean_floating_ip.miab</text>
</g>
<!-- [root] digitalocean_droplet.miab&#45;&gt;[root] digitalocean_floating_ip.miab -->
<g id="edge3" class="edge"><title>[root] digitalocean_droplet.miab&#45;&gt;[root] digitalocean_floating_ip.miab</title>
<path fill="none" stroke="black" d="M891.19,-298.98C787.69,-290.767 601.364,-274.6 432.157,-252.102"/>
<polygon fill="black" stroke="black" points="432.442,-248.609 422.066,-250.75 431.512,-255.547 432.442,-248.609"/>
</g>
<!-- [root] digitalocean_spaces_bucket.miab -->
<g id="node9" class="node"><title>[root] digitalocean_spaces_bucket.miab</title>
<polygon fill="none" stroke="black" points="639.5,-252 440.5,-252 440.5,-216 639.5,-216 639.5,-252"/>
<text text-anchor="middle" x="540" y="-230.3" font-family="Times,serif" font-size="14.00">digitalocean_spaces_bucket.miab</text>
</g>
<!-- [root] digitalocean_droplet.miab&#45;&gt;[root] digitalocean_spaces_bucket.miab -->
<g id="edge4" class="edge"><title>[root] digitalocean_droplet.miab&#45;&gt;[root] digitalocean_spaces_bucket.miab</title>
<path fill="none" stroke="black" d="M891.446,-292.079C823.474,-281.04 725.003,-265.047 649.576,-252.797"/>
<polygon fill="black" stroke="black" points="649.993,-249.318 639.561,-251.17 648.87,-256.228 649.993,-249.318"/>
</g>
<!-- [root] digitalocean_ssh_key.miab -->
<g id="node10" class="node"><title>[root] digitalocean_ssh_key.miab</title>
<polygon fill="none" stroke="black" points="822,-252 658,-252 658,-216 822,-216 822,-252"/>
<text text-anchor="middle" x="740" y="-230.3" font-family="Times,serif" font-size="14.00">digitalocean_ssh_key.miab</text>
</g>
<!-- [root] digitalocean_droplet.miab&#45;&gt;[root] digitalocean_ssh_key.miab -->
<g id="edge5" class="edge"><title>[root] digitalocean_droplet.miab&#45;&gt;[root] digitalocean_ssh_key.miab</title>
<path fill="none" stroke="black" d="M914.786,-287.966C882.09,-278.057 840.696,-265.514 806.399,-255.121"/>
<polygon fill="black" stroke="black" points="807.051,-251.661 796.466,-252.111 805.021,-258.361 807.051,-251.661"/>
</g>
<!-- [root] var.droplet_image -->
<g id="node15" class="node"><title>[root] var.droplet_image</title>
<polygon fill="none" stroke="black" points="950,-252 840,-252 840,-216 956,-216 956,-246 950,-252"/>
<polyline fill="none" stroke="black" points="950,-252 950,-246 "/>
<polyline fill="none" stroke="black" points="956,-246 950,-246 "/>
<text text-anchor="middle" x="898" y="-230.3" font-family="Times,serif" font-size="14.00">var.droplet_image</text>
</g>
<!-- [root] digitalocean_droplet.miab&#45;&gt;[root] var.droplet_image -->
<g id="edge7" class="edge"><title>[root] digitalocean_droplet.miab&#45;&gt;[root] var.droplet_image</title>
<path fill="none" stroke="black" d="M952.955,-287.697C943.938,-279.05 932.882,-268.449 923.057,-259.027"/>
<polygon fill="black" stroke="black" points="925.478,-256.499 915.837,-252.104 920.633,-261.552 925.478,-256.499"/>
</g>
<!-- [root] var.droplet_private_networking -->
<g id="node16" class="node"><title>[root] var.droplet_private_networking</title>
<polygon fill="none" stroke="black" points="1156,-252 974,-252 974,-216 1162,-216 1162,-246 1156,-252"/>
<polyline fill="none" stroke="black" points="1156,-252 1156,-246 "/>
<polyline fill="none" stroke="black" points="1162,-246 1156,-246 "/>
<text text-anchor="middle" x="1068" y="-230.3" font-family="Times,serif" font-size="14.00">var.droplet_private_networking</text>
</g>
<!-- [root] digitalocean_droplet.miab&#45;&gt;[root] var.droplet_private_networking -->
<g id="edge8" class="edge"><title>[root] digitalocean_droplet.miab&#45;&gt;[root] var.droplet_private_networking</title>
<path fill="none" stroke="black" d="M994.978,-287.697C1007.31,-278.796 1022.52,-267.823 1035.85,-258.199"/>
<polygon fill="black" stroke="black" points="1038.24,-260.794 1044.3,-252.104 1034.14,-255.118 1038.24,-260.794"/>
</g>
<!-- [root] var.droplet_size -->
<g id="node18" class="node"><title>[root] var.droplet_size</title>
<polygon fill="none" stroke="black" points="1278,-252 1180,-252 1180,-216 1284,-216 1284,-246 1278,-252"/>
<polyline fill="none" stroke="black" points="1278,-252 1278,-246 "/>
<polyline fill="none" stroke="black" points="1284,-246 1278,-246 "/>
<text text-anchor="middle" x="1232" y="-230.3" font-family="Times,serif" font-size="14.00">var.droplet_size</text>
</g>
<!-- [root] digitalocean_droplet.miab&#45;&gt;[root] var.droplet_size -->
<g id="edge9" class="edge"><title>[root] digitalocean_droplet.miab&#45;&gt;[root] var.droplet_size</title>
<path fill="none" stroke="black" d="M1036.36,-287.904C1073.09,-278.244 1120.02,-265.816 1170.06,-252.242"/>
<polygon fill="black" stroke="black" points="1171.04,-255.603 1179.77,-249.603 1169.2,-248.848 1171.04,-255.603"/>
</g>
<!-- [root] var.miab_STORAGE_ROOT -->
<g id="node20" class="node"><title>[root] var.miab_STORAGE_ROOT</title>
<polygon fill="none" stroke="black" points="1474,-252 1302,-252 1302,-216 1480,-216 1480,-246 1474,-252"/>
<polyline fill="none" stroke="black" points="1474,-252 1474,-246 "/>
<polyline fill="none" stroke="black" points="1480,-246 1474,-246 "/>
<text text-anchor="middle" x="1391" y="-230.3" font-family="Times,serif" font-size="14.00">var.miab_STORAGE_ROOT</text>
</g>
<!-- [root] digitalocean_droplet.miab&#45;&gt;[root] var.miab_STORAGE_ROOT -->
<g id="edge10" class="edge"><title>[root] digitalocean_droplet.miab&#45;&gt;[root] var.miab_STORAGE_ROOT</title>
<path fill="none" stroke="black" d="M1050.76,-292.068C1113.58,-281.836 1203.67,-267.065 1291.9,-252.18"/>
<polygon fill="black" stroke="black" points="1292.53,-255.622 1301.81,-250.506 1291.36,-248.72 1292.53,-255.622"/>
</g>
<!-- [root] var.ssh_port -->
<g id="node23" class="node"><title>[root] var.ssh_port</title>
<polygon fill="none" stroke="black" points="1575.5,-252 1498.5,-252 1498.5,-216 1581.5,-216 1581.5,-246 1575.5,-252"/>
<polyline fill="none" stroke="black" points="1575.5,-252 1575.5,-246 "/>
<polyline fill="none" stroke="black" points="1581.5,-246 1575.5,-246 "/>
<text text-anchor="middle" x="1540" y="-230.3" font-family="Times,serif" font-size="14.00">var.ssh_port</text>
</g>
<!-- [root] digitalocean_droplet.miab&#45;&gt;[root] var.ssh_port -->
<g id="edge11" class="edge"><title>[root] digitalocean_droplet.miab&#45;&gt;[root] var.ssh_port</title>
<path fill="none" stroke="black" d="M1050.83,-302.269C1151.2,-297.625 1328.64,-285.401 1488.45,-251.813"/>
<polygon fill="black" stroke="black" points="1489.41,-255.186 1498.46,-249.675 1487.95,-248.34 1489.41,-255.186"/>
</g>
<!-- [root] provisioner.remote&#45;exec -->
<g id="node25" class="node"><title>[root] provisioner.remote&#45;exec</title>
<ellipse fill="none" stroke="black" cx="1719" cy="-234" rx="119.679" ry="18"/>
<text text-anchor="middle" x="1719" y="-230.3" font-family="Times,serif" font-size="14.00">[root] provisioner.remote&#45;exec</text>
</g>
<!-- [root] digitalocean_droplet.miab&#45;&gt;[root] provisioner.remote&#45;exec -->
<g id="edge6" class="edge"><title>[root] digitalocean_droplet.miab&#45;&gt;[root] provisioner.remote&#45;exec</title>
<path fill="none" stroke="black" d="M1050.88,-299.372C1169.07,-290.772 1397.42,-273.117 1591,-252 1601.75,-250.827 1612.99,-249.493 1624.16,-248.1"/>
<polygon fill="black" stroke="black" points="1624.9,-251.534 1634.38,-246.807 1624.02,-244.59 1624.9,-251.534"/>
</g>
<!-- [root] digitalocean_floating_ip.miab&#45;&gt;[root] provider.digitalocean -->
<g id="edge12" class="edge"><title>[root] digitalocean_floating_ip.miab&#45;&gt;[root] provider.digitalocean</title>
<path fill="none" stroke="black" d="M335.619,-215.871C340.782,-191.432 350.31,-146.334 356.391,-117.548"/>
<polygon fill="black" stroke="black" points="359.819,-118.256 358.462,-107.748 352.97,-116.809 359.819,-118.256"/>
</g>
<!-- [root] var.do_region -->
<g id="node13" class="node"><title>[root] var.do_region</title>
<polygon fill="none" stroke="black" points="513,-180 427,-180 427,-144 519,-144 519,-174 513,-180"/>
<polyline fill="none" stroke="black" points="513,-180 513,-174 "/>
<polyline fill="none" stroke="black" points="519,-174 513,-174 "/>
<text text-anchor="middle" x="473" y="-158.3" font-family="Times,serif" font-size="14.00">var.do_region</text>
</g>
<!-- [root] digitalocean_floating_ip.miab&#45;&gt;[root] var.do_region -->
<g id="edge13" class="edge"><title>[root] digitalocean_floating_ip.miab&#45;&gt;[root] var.do_region</title>
<path fill="none" stroke="black" d="M366.492,-215.876C385.44,-206.469 409.132,-194.708 429.356,-184.667"/>
<polygon fill="black" stroke="black" points="430.974,-187.771 438.375,-180.19 427.862,-181.502 430.974,-187.771"/>
</g>
<!-- [root] digitalocean_floating_ip_assignment.miab -->
<g id="node4" class="node"><title>[root] digitalocean_floating_ip_assignment.miab</title>
<polygon fill="none" stroke="black" points="679,-396 431,-396 431,-360 679,-360 679,-396"/>
<text text-anchor="middle" x="555" y="-374.3" font-family="Times,serif" font-size="14.00">digitalocean_floating_ip_assignment.miab</text>
</g>
<!-- [root] digitalocean_floating_ip_assignment.miab&#45;&gt;[root] digitalocean_droplet.miab -->
<g id="edge14" class="edge"><title>[root] digitalocean_floating_ip_assignment.miab&#45;&gt;[root] digitalocean_droplet.miab</title>
<path fill="none" stroke="black" d="M656.233,-359.966C724.975,-348.398 815.063,-333.239 881.24,-322.104"/>
<polygon fill="black" stroke="black" points="881.956,-325.533 891.237,-320.422 880.794,-318.63 881.956,-325.533"/>
</g>
<!-- [root] digitalocean_record.box -->
<g id="node5" class="node"><title>[root] digitalocean_record.box</title>
<polygon fill="none" stroke="black" points="148,-324 0,-324 0,-288 148,-288 148,-324"/>
<text text-anchor="middle" x="74" y="-302.3" font-family="Times,serif" font-size="14.00">digitalocean_record.box</text>
</g>
<!-- [root] digitalocean_record.box&#45;&gt;[root] digitalocean_domain.miab -->
<g id="edge15" class="edge"><title>[root] digitalocean_record.box&#45;&gt;[root] digitalocean_domain.miab</title>
<path fill="none" stroke="black" d="M88.5954,-287.871C109.763,-263.031 149.117,-216.846 173.577,-188.142"/>
<polygon fill="black" stroke="black" points="176.531,-190.071 180.353,-180.189 171.203,-185.531 176.531,-190.071"/>
</g>
<!-- [root] digitalocean_record.box&#45;&gt;[root] digitalocean_floating_ip.miab -->
<g id="edge16" class="edge"><title>[root] digitalocean_record.box&#45;&gt;[root] digitalocean_floating_ip.miab</title>
<path fill="none" stroke="black" d="M136.784,-287.966C173.616,-277.972 220.329,-265.298 258.824,-254.854"/>
<polygon fill="black" stroke="black" points="260.2,-258.107 268.934,-252.111 258.367,-251.352 260.2,-258.107"/>
</g>
<!-- [root] digitalocean_record.ns1 -->
<g id="node6" class="node"><title>[root] digitalocean_record.ns1</title>
<polygon fill="none" stroke="black" points="249,-396 103,-396 103,-360 249,-360 249,-396"/>
<text text-anchor="middle" x="176" y="-374.3" font-family="Times,serif" font-size="14.00">digitalocean_record.ns1</text>
</g>
<!-- [root] digitalocean_record.ns1&#45;&gt;[root] digitalocean_domain.miab -->
<g id="edge17" class="edge"><title>[root] digitalocean_record.ns1&#45;&gt;[root] digitalocean_domain.miab</title>
<path fill="none" stroke="black" d="M177.523,-359.849C180.809,-322.832 188.591,-235.181 192.569,-190.386"/>
<polygon fill="black" stroke="black" points="196.072,-190.503 193.47,-180.232 189.099,-189.884 196.072,-190.503"/>
</g>
<!-- [root] digitalocean_record.ns2 -->
<g id="node7" class="node"><title>[root] digitalocean_record.ns2</title>
<polygon fill="none" stroke="black" points="413,-396 267,-396 267,-360 413,-360 413,-396"/>
<text text-anchor="middle" x="340" y="-374.3" font-family="Times,serif" font-size="14.00">digitalocean_record.ns2</text>
</g>
<!-- [root] digitalocean_record.ns2&#45;&gt;[root] digitalocean_domain.miab -->
<g id="edge18" class="edge"><title>[root] digitalocean_record.ns2&#45;&gt;[root] digitalocean_domain.miab</title>
<path fill="none" stroke="black" d="M322.17,-359.738C299.231,-336.797 259.224,-294.225 233,-252 220.735,-232.251 210.626,-207.848 203.927,-189.593"/>
<polygon fill="black" stroke="black" points="207.217,-188.398 200.563,-180.153 200.623,-190.747 207.217,-188.398"/>
</g>
<!-- [root] digitalocean_record.ssh -->
<g id="node8" class="node"><title>[root] digitalocean_record.ssh</title>
<polygon fill="none" stroke="black" points="842.5,-396 697.5,-396 697.5,-360 842.5,-360 842.5,-396"/>
<text text-anchor="middle" x="770" y="-374.3" font-family="Times,serif" font-size="14.00">digitalocean_record.ssh</text>
</g>
<!-- [root] digitalocean_record.ssh&#45;&gt;[root] digitalocean_droplet.miab -->
<g id="edge19" class="edge"><title>[root] digitalocean_record.ssh&#45;&gt;[root] digitalocean_droplet.miab</title>
<path fill="none" stroke="black" d="M818.913,-359.966C846.997,-350.185 882.455,-337.836 912.068,-327.524"/>
<polygon fill="black" stroke="black" points="913.575,-330.705 921.868,-324.111 911.273,-324.094 913.575,-330.705"/>
</g>
<!-- [root] digitalocean_spaces_bucket.miab&#45;&gt;[root] digitalocean_domain.miab -->
<g id="edge20" class="edge"><title>[root] digitalocean_spaces_bucket.miab&#45;&gt;[root] digitalocean_domain.miab</title>
<path fill="none" stroke="black" d="M456.045,-215.966C404.609,-205.529 338.764,-192.169 286.073,-181.478"/>
<polygon fill="black" stroke="black" points="286.552,-178.005 276.056,-179.446 285.16,-184.865 286.552,-178.005"/>
</g>
<!-- [root] digitalocean_spaces_bucket.miab&#45;&gt;[root] var.do_region -->
<g id="edge21" class="edge"><title>[root] digitalocean_spaces_bucket.miab&#45;&gt;[root] var.do_region</title>
<path fill="none" stroke="black" d="M523.438,-215.697C515.325,-207.22 505.412,-196.864 496.529,-187.583"/>
<polygon fill="black" stroke="black" points="498.814,-184.908 489.371,-180.104 493.757,-189.749 498.814,-184.908"/>
</g>
<!-- [root] digitalocean_ssh_key.miab&#45;&gt;[root] provider.digitalocean -->
<g id="edge22" class="edge"><title>[root] digitalocean_ssh_key.miab&#45;&gt;[root] provider.digitalocean</title>
<path fill="none" stroke="black" d="M702.106,-215.895C660.003,-197.172 589.797,-166.786 528,-144 489.029,-129.63 444.112,-115.429 410.836,-105.349"/>
<polygon fill="black" stroke="black" points="411.487,-101.89 400.903,-102.358 409.469,-108.593 411.487,-101.89"/>
</g>
<!-- [root] var.ssh_private_key -->
<g id="node24" class="node"><title>[root] var.ssh_private_key</title>
<polygon fill="none" stroke="black" points="796.5,-180 677.5,-180 677.5,-144 802.5,-144 802.5,-174 796.5,-180"/>
<polyline fill="none" stroke="black" points="796.5,-180 796.5,-174 "/>
<polyline fill="none" stroke="black" points="802.5,-174 796.5,-174 "/>
<text text-anchor="middle" x="740" y="-158.3" font-family="Times,serif" font-size="14.00">var.ssh_private_key</text>
</g>
<!-- [root] digitalocean_ssh_key.miab&#45;&gt;[root] var.ssh_private_key -->
<g id="edge23" class="edge"><title>[root] digitalocean_ssh_key.miab&#45;&gt;[root] var.ssh_private_key</title>
<path fill="none" stroke="black" d="M740,-215.697C740,-207.983 740,-198.712 740,-190.112"/>
<polygon fill="black" stroke="black" points="743.5,-190.104 740,-180.104 736.5,-190.104 743.5,-190.104"/>
</g>
<!-- [root] output.floating_ip_address -->
<g id="node11" class="node"><title>[root] output.floating_ip_address</title>
<polygon fill="none" stroke="black" points="673.5,-324 518.5,-324 518.5,-288 679.5,-288 679.5,-318 673.5,-324"/>
<polyline fill="none" stroke="black" points="673.5,-324 673.5,-318 "/>
<polyline fill="none" stroke="black" points="679.5,-318 673.5,-318 "/>
<text text-anchor="middle" x="599" y="-302.3" font-family="Times,serif" font-size="14.00">output.floating_ip_address</text>
</g>
<!-- [root] output.floating_ip_address&#45;&gt;[root] digitalocean_floating_ip.miab -->
<g id="edge31" class="edge"><title>[root] output.floating_ip_address&#45;&gt;[root] digitalocean_floating_ip.miab</title>
<path fill="none" stroke="black" d="M534.026,-287.966C495.666,-277.909 446.949,-265.136 406.967,-254.654"/>
<polygon fill="black" stroke="black" points="407.826,-251.261 397.266,-252.111 406.051,-258.032 407.826,-251.261"/>
</g>
<!-- [root] var.do_token -->
<g id="node14" class="node"><title>[root] var.do_token</title>
<polygon fill="none" stroke="black" points="272,-36 190,-36 190,-0 278,-0 278,-30 272,-36"/>
<polyline fill="none" stroke="black" points="272,-36 272,-30 "/>
<polyline fill="none" stroke="black" points="278,-30 272,-30 "/>
<text text-anchor="middle" x="234" y="-14.3" font-family="Times,serif" font-size="14.00">var.do_token</text>
</g>
<!-- [root] provider.digitalocean&#45;&gt;[root] var.do_token -->
<g id="edge37" class="edge"><title>[root] provider.digitalocean&#45;&gt;[root] var.do_token</title>
<path fill="none" stroke="black" d="M337.32,-75.5033C319.475,-65.744 294.97,-52.3428 274.303,-41.0409"/>
<polygon fill="black" stroke="black" points="275.868,-37.9073 265.415,-36.1799 272.509,-44.0489 275.868,-37.9073"/>
</g>
<!-- [root] var.spaces_access_id -->
<g id="node21" class="node"><title>[root] var.spaces_access_id</title>
<polygon fill="none" stroke="black" points="421.5,-36 296.5,-36 296.5,-0 427.5,-0 427.5,-30 421.5,-36"/>
<polyline fill="none" stroke="black" points="421.5,-36 421.5,-30 "/>
<polyline fill="none" stroke="black" points="427.5,-30 421.5,-30 "/>
<text text-anchor="middle" x="362" y="-14.3" font-family="Times,serif" font-size="14.00">var.spaces_access_id</text>
</g>
<!-- [root] provider.digitalocean&#45;&gt;[root] var.spaces_access_id -->
<g id="edge38" class="edge"><title>[root] provider.digitalocean&#45;&gt;[root] var.spaces_access_id</title>
<path fill="none" stroke="black" d="M362,-71.6966C362,-63.9827 362,-54.7125 362,-46.1124"/>
<polygon fill="black" stroke="black" points="365.5,-46.1043 362,-36.1043 358.5,-46.1044 365.5,-46.1043"/>
</g>
<!-- [root] var.spaces_secret_key -->
<g id="node22" class="node"><title>[root] var.spaces_secret_key</title>
<polygon fill="none" stroke="black" points="576.5,-36 445.5,-36 445.5,-0 582.5,-0 582.5,-30 576.5,-36"/>
<polyline fill="none" stroke="black" points="576.5,-36 576.5,-30 "/>
<polyline fill="none" stroke="black" points="582.5,-30 576.5,-30 "/>
<text text-anchor="middle" x="514" y="-14.3" font-family="Times,serif" font-size="14.00">var.spaces_secret_key</text>
</g>
<!-- [root] provider.digitalocean&#45;&gt;[root] var.spaces_secret_key -->
<g id="edge39" class="edge"><title>[root] provider.digitalocean&#45;&gt;[root] var.spaces_secret_key</title>
<path fill="none" stroke="black" d="M390.234,-75.9976C411.93,-66.0057 442.361,-51.9915 467.619,-40.3599"/>
<polygon fill="black" stroke="black" points="469.397,-43.3941 477.016,-36.032 466.469,-37.0359 469.397,-43.3941"/>
</g>
<!-- [root] var.droplet_region -->
<g id="node17" class="node"><title>[root] var.droplet_region</title>
<polygon fill="none" stroke="black" points="1010.5,-396 899.5,-396 899.5,-360 1016.5,-360 1016.5,-390 1010.5,-396"/>
<polyline fill="none" stroke="black" points="1010.5,-396 1010.5,-390 "/>
<polyline fill="none" stroke="black" points="1016.5,-390 1010.5,-390 "/>
<text text-anchor="middle" x="958" y="-374.3" font-family="Times,serif" font-size="14.00">var.droplet_region</text>
</g>
<!-- [root] meta.count&#45;boundary (EachMode fixup) -->
<g id="node26" class="node"><title>[root] meta.count&#45;boundary (EachMode fixup)</title>
<ellipse fill="none" stroke="black" cx="669" cy="-450" rx="176.569" ry="18"/>
<text text-anchor="middle" x="669" y="-446.3" font-family="Times,serif" font-size="14.00">[root] meta.count&#45;boundary (EachMode fixup)</text>
</g>
<!-- [root] meta.count&#45;boundary (EachMode fixup)&#45;&gt;[root] digitalocean_floating_ip_assignment.miab -->
<g id="edge24" class="edge"><title>[root] meta.count&#45;boundary (EachMode fixup)&#45;&gt;[root] digitalocean_floating_ip_assignment.miab</title>
<path fill="none" stroke="black" d="M641.404,-432.055C626.392,-422.837 607.633,-411.319 591.434,-401.371"/>
<polygon fill="black" stroke="black" points="593.09,-398.282 582.737,-396.032 589.428,-404.247 593.09,-398.282"/>
</g>
<!-- [root] meta.count&#45;boundary (EachMode fixup)&#45;&gt;[root] digitalocean_record.box -->
<g id="edge25" class="edge"><title>[root] meta.count&#45;boundary (EachMode fixup)&#45;&gt;[root] digitalocean_record.box</title>
<path fill="none" stroke="black" d="M542.814,-437.369C373.553,-421.768 94,-396 94,-396 76.7547,-380.849 72.6265,-354.323 72.29,-334.16"/>
<polygon fill="black" stroke="black" points="75.7916,-334.053 72.4218,-324.008 68.7921,-333.962 75.7916,-334.053"/>
</g>
<!-- [root] meta.count&#45;boundary (EachMode fixup)&#45;&gt;[root] digitalocean_record.ns1 -->
<g id="edge26" class="edge"><title>[root] meta.count&#45;boundary (EachMode fixup)&#45;&gt;[root] digitalocean_record.ns1</title>
<path fill="none" stroke="black" d="M552.614,-436.386C472.706,-427.159 364.02,-413.503 259.378,-396.167"/>
<polygon fill="black" stroke="black" points="259.706,-392.673 249.266,-394.477 258.552,-399.577 259.706,-392.673"/>
</g>
<!-- [root] meta.count&#45;boundary (EachMode fixup)&#45;&gt;[root] digitalocean_record.ns2 -->
<g id="edge27" class="edge"><title>[root] meta.count&#45;boundary (EachMode fixup)&#45;&gt;[root] digitalocean_record.ns2</title>
<path fill="none" stroke="black" d="M596.392,-433.552C545.176,-422.654 476.461,-408.034 423.06,-396.672"/>
<polygon fill="black" stroke="black" points="423.784,-393.248 413.275,-394.59 422.327,-400.095 423.784,-393.248"/>
</g>
<!-- [root] meta.count&#45;boundary (EachMode fixup)&#45;&gt;[root] digitalocean_record.ssh -->
<g id="edge28" class="edge"><title>[root] meta.count&#45;boundary (EachMode fixup)&#45;&gt;[root] digitalocean_record.ssh</title>
<path fill="none" stroke="black" d="M693.449,-432.055C706.503,-423.008 722.755,-411.744 736.922,-401.926"/>
<polygon fill="black" stroke="black" points="739.201,-404.605 745.426,-396.032 735.213,-398.851 739.201,-404.605"/>
</g>
<!-- [root] meta.count&#45;boundary (EachMode fixup)&#45;&gt;[root] output.floating_ip_address -->
<g id="edge29" class="edge"><title>[root] meta.count&#45;boundary (EachMode fixup)&#45;&gt;[root] output.floating_ip_address</title>
<path fill="none" stroke="black" d="M764.993,-434.801C824.284,-421.902 883.517,-398.804 852,-360 831.589,-334.87 753.821,-321.232 689.833,-314.114"/>
<polygon fill="black" stroke="black" points="690.009,-310.612 679.692,-313.026 689.262,-317.573 690.009,-310.612"/>
</g>
<!-- [root] meta.count&#45;boundary (EachMode fixup)&#45;&gt;[root] var.droplet_region -->
<g id="edge30" class="edge"><title>[root] meta.count&#45;boundary (EachMode fixup)&#45;&gt;[root] var.droplet_region</title>
<path fill="none" stroke="black" d="M734.218,-433.203C780.534,-421.985 842.59,-406.954 889.605,-395.566"/>
<polygon fill="black" stroke="black" points="890.503,-398.95 899.398,-393.194 888.855,-392.147 890.503,-398.95"/>
</g>
<!-- [root] provider.digitalocean (close) -->
<g id="node27" class="node"><title>[root] provider.digitalocean (close)</title>
<ellipse fill="none" stroke="black" cx="340" cy="-450" rx="134.576" ry="18"/>
<text text-anchor="middle" x="340" y="-446.3" font-family="Times,serif" font-size="14.00">[root] provider.digitalocean (close)</text>
</g>
<!-- [root] provider.digitalocean (close)&#45;&gt;[root] digitalocean_floating_ip_assignment.miab -->
<g id="edge32" class="edge"><title>[root] provider.digitalocean (close)&#45;&gt;[root] digitalocean_floating_ip_assignment.miab</title>
<path fill="none" stroke="black" d="M388.518,-433.203C419.405,-423.147 459.7,-410.028 492.91,-399.215"/>
<polygon fill="black" stroke="black" points="494.097,-402.51 502.522,-396.086 491.93,-395.854 494.097,-402.51"/>
</g>
<!-- [root] provider.digitalocean (close)&#45;&gt;[root] digitalocean_record.box -->
<g id="edge33" class="edge"><title>[root] provider.digitalocean (close)&#45;&gt;[root] digitalocean_record.box</title>
<path fill="none" stroke="black" d="M221.643,-441.384C155.281,-434.373 81.7517,-421.065 61,-396 46.6882,-378.713 52.5429,-352.786 60.4319,-333.368"/>
<polygon fill="black" stroke="black" points="63.6624,-334.717 64.5171,-324.156 57.2635,-331.879 63.6624,-334.717"/>
</g>
<!-- [root] provider.digitalocean (close)&#45;&gt;[root] digitalocean_record.ns1 -->
<g id="edge34" class="edge"><title>[root] provider.digitalocean (close)&#45;&gt;[root] digitalocean_record.ns1</title>
<path fill="none" stroke="black" d="M301.549,-432.588C278.816,-422.885 249.79,-410.496 225.376,-400.075"/>
<polygon fill="black" stroke="black" points="226.494,-396.747 215.922,-396.04 223.746,-403.185 226.494,-396.747"/>
</g>
<!-- [root] provider.digitalocean (close)&#45;&gt;[root] digitalocean_record.ns2 -->
<g id="edge35" class="edge"><title>[root] provider.digitalocean (close)&#45;&gt;[root] digitalocean_record.ns2</title>
<path fill="none" stroke="black" d="M340,-431.697C340,-423.983 340,-414.712 340,-406.112"/>
<polygon fill="black" stroke="black" points="343.5,-406.104 340,-396.104 336.5,-406.104 343.5,-406.104"/>
</g>
<!-- [root] provider.digitalocean (close)&#45;&gt;[root] digitalocean_record.ssh -->
<g id="edge36" class="edge"><title>[root] provider.digitalocean (close)&#45;&gt;[root] digitalocean_record.ssh</title>
<path fill="none" stroke="black" d="M430.348,-436.587C498.317,-426.934 593.977,-412.685 687.267,-396.082"/>
<polygon fill="black" stroke="black" points="687.935,-399.518 697.162,-394.311 686.701,-392.628 687.935,-399.518"/>
</g>
<!-- [root] provisioner.remote&#45;exec (close) -->
<g id="node28" class="node"><title>[root] provisioner.remote&#45;exec (close)</title>
<ellipse fill="none" stroke="black" cx="1027" cy="-450" rx="145.674" ry="18"/>
<text text-anchor="middle" x="1027" y="-446.3" font-family="Times,serif" font-size="14.00">[root] provisioner.remote&#45;exec (close)</text>
</g>
<!-- [root] provisioner.remote&#45;exec (close)&#45;&gt;[root] digitalocean_droplet.miab -->
<g id="edge40" class="edge"><title>[root] provisioner.remote&#45;exec (close)&#45;&gt;[root] digitalocean_droplet.miab</title>
<path fill="none" stroke="black" d="M1030.6,-431.793C1033.63,-413.248 1036.05,-383.266 1026,-360 1021.2,-348.889 1012.84,-338.964 1004.05,-330.792"/>
<polygon fill="black" stroke="black" points="1006.16,-327.983 996.309,-324.076 1001.57,-333.272 1006.16,-327.983"/>
</g>
<!-- [root] root -->
<g id="node29" class="node"><title>[root] root</title>
<ellipse fill="none" stroke="black" cx="669" cy="-522" rx="47.3916" ry="18"/>
<text text-anchor="middle" x="669" y="-518.3" font-family="Times,serif" font-size="14.00">[root] root</text>
</g>
<!-- [root] root&#45;&gt;[root] meta.count&#45;boundary (EachMode fixup) -->
<g id="edge41" class="edge"><title>[root] root&#45;&gt;[root] meta.count&#45;boundary (EachMode fixup)</title>
<path fill="none" stroke="black" d="M669,-503.697C669,-495.983 669,-486.712 669,-478.112"/>
<polygon fill="black" stroke="black" points="672.5,-478.104 669,-468.104 665.5,-478.104 672.5,-478.104"/>
</g>
<!-- [root] root&#45;&gt;[root] provider.digitalocean (close) -->
<g id="edge42" class="edge"><title>[root] root&#45;&gt;[root] provider.digitalocean (close)</title>
<path fill="none" stroke="black" d="M628.658,-512.417C576.513,-501.322 484.574,-481.76 418.451,-467.692"/>
<polygon fill="black" stroke="black" points="418.991,-464.228 408.481,-465.57 417.534,-471.075 418.991,-464.228"/>
</g>
<!-- [root] root&#45;&gt;[root] provisioner.remote&#45;exec (close) -->
<g id="edge43" class="edge"><title>[root] root&#45;&gt;[root] provisioner.remote&#45;exec (close)</title>
<path fill="none" stroke="black" d="M710.067,-512.97C766.462,-501.943 869.204,-481.854 942.42,-467.538"/>
<polygon fill="black" stroke="black" points="943.405,-470.912 952.547,-465.558 942.061,-464.042 943.405,-470.912"/>
</g>
</g>
</svg>
