<?xml version="1.0" encoding="UTF-8" standalone="no"?>
<!DOCTYPE svg PUBLIC "-//W3C//DTD SVG 1.1//EN"
 "http://www.w3.org/Graphics/SVG/1.1/DTD/svg11.dtd">
<!-- Generated by graphviz version 2.38.0 (20140413.2041)
 -->
<!-- Title: %3 Pages: 1 -->
<svg width="1586pt" height="548pt"
 viewBox="0.00 0.00 1586.00 548.00" xmlns="http://www.w3.org/2000/svg" xmlns:xlink="http://www.w3.org/1999/xlink">
<g id="graph0" class="graph" transform="scale(1 1) rotate(0) translate(4 544)">
<title>%3</title>
<polygon fill="white" stroke="none" points="-4,4 -4,-544 1582,-544 1582,4 -4,4"/>
<!-- [root] digitalocean_domain.miab -->
<g id="node1" class="node"><title>[root] digitalocean_domain.miab</title>
<polygon fill="none" stroke="black" points="1578,-180 1416,-180 1416,-144 1578,-144 1578,-180"/>
<text text-anchor="middle" x="1497" y="-158.3" font-family="Times,serif" font-size="14.00">digitalocean_domain.miab</text>
</g>
<!-- [root] provider.digitalocean -->
<g id="node11" class="node"><title>[root] provider.digitalocean</title>
<polygon fill="none" stroke="black" points="1081,-108 959.842,-90 1081,-72 1202.16,-90 1081,-108"/>
<text text-anchor="middle" x="1081" y="-86.3" font-family="Times,serif" font-size="14.00">provider.digitalocean</text>
</g>
<!-- [root] digitalocean_domain.miab&#45;&gt;[root] provider.digitalocean -->
<g id="edge1" class="edge"><title>[root] digitalocean_domain.miab&#45;&gt;[root] provider.digitalocean</title>
<path fill="none" stroke="black" d="M1415.58,-145.525C1412.69,-145.005 1409.82,-144.495 1407,-144 1317.34,-128.247 1213.51,-111.649 1147.57,-101.313"/>
<polygon fill="black" stroke="black" points="1147.74,-97.7974 1137.32,-99.7092 1146.66,-104.713 1147.74,-97.7974"/>
</g>
<!-- [root] var.fqdn -->
<g id="node18" class="node"><title>[root] var.fqdn</title>
<polygon fill="none" stroke="black" points="1543,-108 1487,-108 1487,-72 1549,-72 1549,-102 1543,-108"/>
<polyline fill="none" stroke="black" points="1543,-108 1543,-102 "/>
<polyline fill="none" stroke="black" points="1549,-102 1543,-102 "/>
<text text-anchor="middle" x="1518" y="-86.3" font-family="Times,serif" font-size="14.00">var.fqdn</text>
</g>
<!-- [root] digitalocean_domain.miab&#45;&gt;[root] var.fqdn -->
<g id="edge2" class="edge"><title>[root] digitalocean_domain.miab&#45;&gt;[root] var.fqdn</title>
<path fill="none" stroke="black" d="M1502.19,-143.697C1504.53,-135.898 1507.35,-126.509 1509.95,-117.829"/>
<polygon fill="black" stroke="black" points="1513.35,-118.688 1512.87,-108.104 1506.64,-116.677 1513.35,-118.688"/>
</g>
<!-- [root] digitalocean_droplet.miab -->
<g id="node2" class="node"><title>[root] digitalocean_droplet.miab</title>
<polygon fill="none" stroke="black" points="886.5,-252 727.5,-252 727.5,-216 886.5,-216 886.5,-252"/>
<text text-anchor="middle" x="807" y="-230.3" font-family="Times,serif" font-size="14.00">digitalocean_droplet.miab</text>
</g>
<!-- [root] digitalocean_droplet.miab&#45;&gt;[root] digitalocean_domain.miab -->
<g id="edge3" class="edge"><title>[root] digitalocean_droplet.miab&#45;&gt;[root] digitalocean_domain.miab</title>
<path fill="none" stroke="black" d="M886.866,-228.458C1000.14,-221.456 1214.11,-206.172 1405.65,-180.112"/>
<polygon fill="black" stroke="black" points="1406.19,-183.571 1415.62,-178.743 1405.24,-176.636 1406.19,-183.571"/>
</g>
<!-- [root] digitalocean_spaces_bucket.miab -->
<g id="node8" class="node"><title>[root] digitalocean_spaces_bucket.miab</title>
<polygon fill="none" stroke="black" points="1397.5,-180 1198.5,-180 1198.5,-144 1397.5,-144 1397.5,-180"/>
<text text-anchor="middle" x="1298" y="-158.3" font-family="Times,serif" font-size="14.00">digitalocean_spaces_bucket.miab</text>
</g>
<!-- [root] digitalocean_droplet.miab&#45;&gt;[root] digitalocean_spaces_bucket.miab -->
<g id="edge4" class="edge"><title>[root] digitalocean_droplet.miab&#45;&gt;[root] digitalocean_spaces_bucket.miab</title>
<path fill="none" stroke="black" d="M886.65,-222.418C961.892,-212.32 1078.19,-196.454 1188.32,-180.237"/>
<polygon fill="black" stroke="black" points="1188.89,-183.69 1198.27,-178.768 1187.87,-176.766 1188.89,-183.69"/>
</g>
<!-- [root] digitalocean_ssh_key.miab -->
<g id="node9" class="node"><title>[root] digitalocean_ssh_key.miab</title>
<polygon fill="none" stroke="black" points="164,-180 0,-180 0,-144 164,-144 164,-180"/>
<text text-anchor="middle" x="82" y="-158.3" font-family="Times,serif" font-size="14.00">digitalocean_ssh_key.miab</text>
</g>
<!-- [root] digitalocean_droplet.miab&#45;&gt;[root] digitalocean_ssh_key.miab -->
<g id="edge5" class="edge"><title>[root] digitalocean_droplet.miab&#45;&gt;[root] digitalocean_ssh_key.miab</title>
<path fill="none" stroke="black" d="M727.15,-228.926C608.613,-222.3 378.953,-207.25 174.313,-180.101"/>
<polygon fill="black" stroke="black" points="174.656,-176.616 164.28,-178.757 173.727,-183.554 174.656,-176.616"/>
</g>
<!-- [root] var.droplet_image -->
<g id="node13" class="node"><title>[root] var.droplet_image</title>
<polygon fill="none" stroke="black" points="292,-180 182,-180 182,-144 298,-144 298,-174 292,-180"/>
<polyline fill="none" stroke="black" points="292,-180 292,-174 "/>
<polyline fill="none" stroke="black" points="298,-174 292,-174 "/>
<text text-anchor="middle" x="240" y="-158.3" font-family="Times,serif" font-size="14.00">var.droplet_image</text>
</g>
<!-- [root] digitalocean_droplet.miab&#45;&gt;[root] var.droplet_image -->
<g id="edge7" class="edge"><title>[root] digitalocean_droplet.miab&#45;&gt;[root] var.droplet_image</title>
<path fill="none" stroke="black" d="M727.269,-228.076C630.303,-221.298 461.594,-206.961 308.424,-180.116"/>
<polygon fill="black" stroke="black" points="308.816,-176.631 298.358,-178.33 307.593,-183.524 308.816,-176.631"/>
</g>
<!-- [root] var.droplet_private_networking -->
<g id="node15" class="node"><title>[root] var.droplet_private_networking</title>
<polygon fill="none" stroke="black" points="498,-180 316,-180 316,-144 504,-144 504,-174 498,-180"/>
<polyline fill="none" stroke="black" points="498,-180 498,-174 "/>
<polyline fill="none" stroke="black" points="504,-174 498,-174 "/>
<text text-anchor="middle" x="410" y="-158.3" font-family="Times,serif" font-size="14.00">var.droplet_private_networking</text>
</g>
<!-- [root] digitalocean_droplet.miab&#45;&gt;[root] var.droplet_private_networking -->
<g id="edge8" class="edge"><title>[root] digitalocean_droplet.miab&#45;&gt;[root] var.droplet_private_networking</title>
<path fill="none" stroke="black" d="M727.139,-218.919C665.866,-208.115 580.771,-193.111 514.152,-181.364"/>
<polygon fill="black" stroke="black" points="514.5,-177.872 504.044,-179.582 513.284,-184.765 514.5,-177.872"/>
</g>
<!-- [root] var.droplet_size -->
<g id="node17" class="node"><title>[root] var.droplet_size</title>
<polygon fill="none" stroke="black" points="620,-180 522,-180 522,-144 626,-144 626,-174 620,-180"/>
<polyline fill="none" stroke="black" points="620,-180 620,-174 "/>
<polyline fill="none" stroke="black" points="626,-174 620,-174 "/>
<text text-anchor="middle" x="574" y="-158.3" font-family="Times,serif" font-size="14.00">var.droplet_size</text>
</g>
<!-- [root] digitalocean_droplet.miab&#45;&gt;[root] var.droplet_size -->
<g id="edge9" class="edge"><title>[root] digitalocean_droplet.miab&#45;&gt;[root] var.droplet_size</title>
<path fill="none" stroke="black" d="M750.3,-215.966C715.701,-205.571 671.447,-192.276 635.933,-181.607"/>
<polygon fill="black" stroke="black" points="636.748,-178.197 626.163,-178.671 634.733,-184.901 636.748,-178.197"/>
</g>
<!-- [root] var.miab_STORAGE_ROOT -->
<g id="node19" class="node"><title>[root] var.miab_STORAGE_ROOT</title>
<polygon fill="none" stroke="black" points="816,-180 644,-180 644,-144 822,-144 822,-174 816,-180"/>
<polyline fill="none" stroke="black" points="816,-180 816,-174 "/>
<polyline fill="none" stroke="black" points="822,-174 816,-174 "/>
<text text-anchor="middle" x="733" y="-158.3" font-family="Times,serif" font-size="14.00">var.miab_STORAGE_ROOT</text>
</g>
<!-- [root] digitalocean_droplet.miab&#45;&gt;[root] var.miab_STORAGE_ROOT -->
<g id="edge10" class="edge"><title>[root] digitalocean_droplet.miab&#45;&gt;[root] var.miab_STORAGE_ROOT</title>
<path fill="none" stroke="black" d="M788.708,-215.697C779.567,-207.05 768.36,-196.449 758.4,-187.027"/>
<polygon fill="black" stroke="black" points="760.752,-184.434 751.082,-180.104 755.941,-189.519 760.752,-184.434"/>
</g>
<!-- [root] var.ssh_port -->
<g id="node22" class="node"><title>[root] var.ssh_port</title>
<polygon fill="none" stroke="black" points="917.5,-180 840.5,-180 840.5,-144 923.5,-144 923.5,-174 917.5,-180"/>
<polyline fill="none" stroke="black" points="917.5,-180 917.5,-174 "/>
<polyline fill="none" stroke="black" points="923.5,-174 917.5,-174 "/>
<text text-anchor="middle" x="882" y="-158.3" font-family="Times,serif" font-size="14.00">var.ssh_port</text>
</g>
<!-- [root] digitalocean_droplet.miab&#45;&gt;[root] var.ssh_port -->
<g id="edge11" class="edge"><title>[root] digitalocean_droplet.miab&#45;&gt;[root] var.ssh_port</title>
<path fill="none" stroke="black" d="M825.539,-215.697C834.803,-207.05 846.162,-196.449 856.257,-187.027"/>
<polygon fill="black" stroke="black" points="858.751,-189.486 863.674,-180.104 853.975,-184.369 858.751,-189.486"/>
</g>
<!-- [root] provisioner.remote&#45;exec -->
<g id="node24" class="node"><title>[root] provisioner.remote&#45;exec</title>
<ellipse fill="none" stroke="black" cx="1061" cy="-162" rx="119.679" ry="18"/>
<text text-anchor="middle" x="1061" y="-158.3" font-family="Times,serif" font-size="14.00">[root] provisioner.remote&#45;exec</text>
</g>
<!-- [root] digitalocean_droplet.miab&#45;&gt;[root] provisioner.remote&#45;exec -->
<g id="edge6" class="edge"><title>[root] digitalocean_droplet.miab&#45;&gt;[root] provisioner.remote&#45;exec</title>
<path fill="none" stroke="black" d="M868.811,-215.966C907.527,-205.296 957.334,-191.569 996.541,-180.764"/>
<polygon fill="black" stroke="black" points="997.557,-184.115 1006.27,-178.084 995.698,-177.366 997.557,-184.115"/>
</g>
<!-- [root] digitalocean_floating_ip.miab -->
<g id="node3" class="node"><title>[root] digitalocean_floating_ip.miab</title>
<polygon fill="none" stroke="black" points="1066,-324 886,-324 886,-288 1066,-288 1066,-324"/>
<text text-anchor="middle" x="976" y="-302.3" font-family="Times,serif" font-size="14.00">digitalocean_floating_ip.miab</text>
</g>
<!-- [root] digitalocean_floating_ip.miab&#45;&gt;[root] digitalocean_droplet.miab -->
<g id="edge12" class="edge"><title>[root] digitalocean_floating_ip.miab&#45;&gt;[root] digitalocean_droplet.miab</title>
<path fill="none" stroke="black" d="M934.658,-287.876C911.452,-278.264 882.31,-266.193 857.73,-256.013"/>
<polygon fill="black" stroke="black" points="858.786,-252.662 848.208,-252.068 856.107,-259.129 858.786,-252.662"/>
</g>
<!-- [root] digitalocean_record.box -->
<g id="node4" class="node"><title>[root] digitalocean_record.box</title>
<polygon fill="none" stroke="black" points="1078,-396 930,-396 930,-360 1078,-360 1078,-396"/>
<text text-anchor="middle" x="1004" y="-374.3" font-family="Times,serif" font-size="14.00">digitalocean_record.box</text>
</g>
<!-- [root] digitalocean_record.box&#45;&gt;[root] digitalocean_floating_ip.miab -->
<g id="edge13" class="edge"><title>[root] digitalocean_record.box&#45;&gt;[root] digitalocean_floating_ip.miab</title>
<path fill="none" stroke="black" d="M997.079,-359.697C993.925,-351.813 990.122,-342.304 986.619,-333.546"/>
<polygon fill="black" stroke="black" points="989.805,-332.089 982.842,-324.104 983.306,-334.689 989.805,-332.089"/>
</g>
<!-- [root] digitalocean_record.ns1 -->
<g id="node5" class="node"><title>[root] digitalocean_record.ns1</title>
<polygon fill="none" stroke="black" points="1406,-396 1260,-396 1260,-360 1406,-360 1406,-396"/>
<text text-anchor="middle" x="1333" y="-374.3" font-family="Times,serif" font-size="14.00">digitalocean_record.ns1</text>
</g>
<!-- [root] digitalocean_record.ns1&#45;&gt;[root] digitalocean_domain.miab -->
<g id="edge14" class="edge"><title>[root] digitalocean_record.ns1&#45;&gt;[root] digitalocean_domain.miab</title>
<path fill="none" stroke="black" d="M1346.14,-359.849C1374.93,-322.284 1443.68,-232.575 1477.51,-188.426"/>
<polygon fill="black" stroke="black" points="1480.49,-190.299 1483.79,-180.232 1474.93,-186.041 1480.49,-190.299"/>
</g>
<!-- [root] digitalocean_record.ns2 -->
<g id="node6" class="node"><title>[root] digitalocean_record.ns2</title>
<polygon fill="none" stroke="black" points="1570,-396 1424,-396 1424,-360 1570,-360 1570,-396"/>
<text text-anchor="middle" x="1497" y="-374.3" font-family="Times,serif" font-size="14.00">digitalocean_record.ns2</text>
</g>
<!-- [root] digitalocean_record.ns2&#45;&gt;[root] digitalocean_domain.miab -->
<g id="edge15" class="edge"><title>[root] digitalocean_record.ns2&#45;&gt;[root] digitalocean_domain.miab</title>
<path fill="none" stroke="black" d="M1497,-359.849C1497,-322.832 1497,-235.181 1497,-190.386"/>
<polygon fill="black" stroke="black" points="1500.5,-190.232 1497,-180.232 1493.5,-190.232 1500.5,-190.232"/>
</g>
<!-- [root] digitalocean_record.ssh -->
<g id="node7" class="node"><title>[root] digitalocean_record.ssh</title>
<polygon fill="none" stroke="black" points="1241.5,-396 1096.5,-396 1096.5,-360 1241.5,-360 1241.5,-396"/>
<text text-anchor="middle" x="1169" y="-374.3" font-family="Times,serif" font-size="14.00">digitalocean_record.ssh</text>
</g>
<!-- [root] digitalocean_record.ssh&#45;&gt;[root] digitalocean_droplet.miab -->
<g id="edge16" class="edge"><title>[root] digitalocean_record.ssh&#45;&gt;[root] digitalocean_droplet.miab</title>
<path fill="none" stroke="black" d="M1156.09,-359.912C1139.62,-339.419 1109.15,-305.632 1075,-288 1019.87,-259.532 951.101,-246.319 897.028,-240.204"/>
<polygon fill="black" stroke="black" points="897.079,-236.69 886.764,-239.108 896.336,-243.65 897.079,-236.69"/>
</g>
<!-- [root] digitalocean_spaces_bucket.miab&#45;&gt;[root] provider.digitalocean -->
<g id="edge17" class="edge"><title>[root] digitalocean_spaces_bucket.miab&#45;&gt;[root] provider.digitalocean</title>
<path fill="none" stroke="black" d="M1245.19,-143.966C1209.11,-132.326 1161.76,-117.05 1127.18,-105.896"/>
<polygon fill="black" stroke="black" points="1127.93,-102.46 1117.33,-102.721 1125.78,-109.122 1127.93,-102.46"/>
</g>
<!-- [root] var.droplet_name -->
<g id="node14" class="node"><title>[root] var.droplet_name</title>
<polygon fill="none" stroke="black" points="1327.5,-108 1220.5,-108 1220.5,-72 1333.5,-72 1333.5,-102 1327.5,-108"/>
<polyline fill="none" stroke="black" points="1327.5,-108 1327.5,-102 "/>
<polyline fill="none" stroke="black" points="1333.5,-102 1327.5,-102 "/>
<text text-anchor="middle" x="1277" y="-86.3" font-family="Times,serif" font-size="14.00">var.droplet_name</text>
</g>
<!-- [root] digitalocean_spaces_bucket.miab&#45;&gt;[root] var.droplet_name -->
<g id="edge18" class="edge"><title>[root] digitalocean_spaces_bucket.miab&#45;&gt;[root] var.droplet_name</title>
<path fill="none" stroke="black" d="M1292.81,-143.697C1290.47,-135.898 1287.65,-126.509 1285.05,-117.829"/>
<polygon fill="black" stroke="black" points="1288.36,-116.677 1282.13,-108.104 1281.65,-118.688 1288.36,-116.677"/>
</g>
<!-- [root] var.droplet_region -->
<g id="node16" class="node"><title>[root] var.droplet_region</title>
<polygon fill="none" stroke="black" points="1462.5,-108 1351.5,-108 1351.5,-72 1468.5,-72 1468.5,-102 1462.5,-108"/>
<polyline fill="none" stroke="black" points="1462.5,-108 1462.5,-102 "/>
<polyline fill="none" stroke="black" points="1468.5,-102 1462.5,-102 "/>
<text text-anchor="middle" x="1410" y="-86.3" font-family="Times,serif" font-size="14.00">var.droplet_region</text>
</g>
<!-- [root] digitalocean_spaces_bucket.miab&#45;&gt;[root] var.droplet_region -->
<g id="edge19" class="edge"><title>[root] digitalocean_spaces_bucket.miab&#45;&gt;[root] var.droplet_region</title>
<path fill="none" stroke="black" d="M1325.4,-143.876C1339.91,-134.808 1357.92,-123.552 1373.59,-113.759"/>
<polygon fill="black" stroke="black" points="1375.87,-116.458 1382.5,-108.19 1372.16,-110.522 1375.87,-116.458"/>
</g>
<!-- [root] digitalocean_ssh_key.miab&#45;&gt;[root] provider.digitalocean -->
<g id="edge20" class="edge"><title>[root] digitalocean_ssh_key.miab&#45;&gt;[root] provider.digitalocean</title>
<path fill="none" stroke="black" d="M164.268,-145.149C167.211,-144.736 170.128,-144.351 173,-144 457.888,-109.217 795.942,-97.1084 968.065,-93.0109"/>
<polygon fill="black" stroke="black" points="968.237,-96.5079 978.152,-92.7754 968.073,-89.5099 968.237,-96.5079"/>
</g>
<!-- [root] var.ssh_private_key -->
<g id="node23" class="node"><title>[root] var.ssh_private_key</title>
<polygon fill="none" stroke="black" points="138.5,-108 19.5,-108 19.5,-72 144.5,-72 144.5,-102 138.5,-108"/>
<polyline fill="none" stroke="black" points="138.5,-108 138.5,-102 "/>
<polyline fill="none" stroke="black" points="144.5,-102 138.5,-102 "/>
<text text-anchor="middle" x="82" y="-86.3" font-family="Times,serif" font-size="14.00">var.ssh_private_key</text>
</g>
<!-- [root] digitalocean_ssh_key.miab&#45;&gt;[root] var.ssh_private_key -->
<g id="edge21" class="edge"><title>[root] digitalocean_ssh_key.miab&#45;&gt;[root] var.ssh_private_key</title>
<path fill="none" stroke="black" d="M82,-143.697C82,-135.983 82,-126.712 82,-118.112"/>
<polygon fill="black" stroke="black" points="85.5001,-118.104 82,-108.104 78.5001,-118.104 85.5001,-118.104"/>
</g>
<!-- [root] output.floating_ip_address -->
<g id="node10" class="node"><title>[root] output.floating_ip_address</title>
<polygon fill="none" stroke="black" points="905.5,-396 750.5,-396 750.5,-360 911.5,-360 911.5,-390 905.5,-396"/>
<polyline fill="none" stroke="black" points="905.5,-396 905.5,-390 "/>
<polyline fill="none" stroke="black" points="911.5,-390 905.5,-390 "/>
<text text-anchor="middle" x="831" y="-374.3" font-family="Times,serif" font-size="14.00">output.floating_ip_address</text>
</g>
<!-- [root] output.floating_ip_address&#45;&gt;[root] digitalocean_floating_ip.miab -->
<g id="edge27" class="edge"><title>[root] output.floating_ip_address&#45;&gt;[root] digitalocean_floating_ip.miab</title>
<path fill="none" stroke="black" d="M866.471,-359.876C886.117,-350.392 910.722,-338.513 931.632,-328.419"/>
<polygon fill="black" stroke="black" points="933.16,-331.568 940.644,-324.068 930.117,-325.264 933.16,-331.568"/>
</g>
<!-- [root] var.do_token -->
<g id="node12" class="node"><title>[root] var.do_token</title>
<polygon fill="none" stroke="black" points="991,-36 909,-36 909,-0 997,-0 997,-30 991,-36"/>
<polyline fill="none" stroke="black" points="991,-36 991,-30 "/>
<polyline fill="none" stroke="black" points="997,-30 991,-30 "/>
<text text-anchor="middle" x="953" y="-14.3" font-family="Times,serif" font-size="14.00">var.do_token</text>
</g>
<!-- [root] provider.digitalocean&#45;&gt;[root] var.do_token -->
<g id="edge32" class="edge"><title>[root] provider.digitalocean&#45;&gt;[root] var.do_token</title>
<path fill="none" stroke="black" d="M1056.32,-75.5033C1038.47,-65.744 1013.97,-52.3428 993.303,-41.0409"/>
<polygon fill="black" stroke="black" points="994.868,-37.9073 984.415,-36.1799 991.509,-44.0489 994.868,-37.9073"/>
</g>
<!-- [root] var.spaces_access_id -->
<g id="node20" class="node"><title>[root] var.spaces_access_id</title>
<polygon fill="none" stroke="black" points="1140.5,-36 1015.5,-36 1015.5,-0 1146.5,-0 1146.5,-30 1140.5,-36"/>
<polyline fill="none" stroke="black" points="1140.5,-36 1140.5,-30 "/>
<polyline fill="none" stroke="black" points="1146.5,-30 1140.5,-30 "/>
<text text-anchor="middle" x="1081" y="-14.3" font-family="Times,serif" font-size="14.00">var.spaces_access_id</text>
</g>
<!-- [root] provider.digitalocean&#45;&gt;[root] var.spaces_access_id -->
<g id="edge33" class="edge"><title>[root] provider.digitalocean&#45;&gt;[root] var.spaces_access_id</title>
<path fill="none" stroke="black" d="M1081,-71.6966C1081,-63.9827 1081,-54.7125 1081,-46.1124"/>
<polygon fill="black" stroke="black" points="1084.5,-46.1043 1081,-36.1043 1077.5,-46.1044 1084.5,-46.1043"/>
</g>
<!-- [root] var.spaces_secret_key -->
<g id="node21" class="node"><title>[root] var.spaces_secret_key</title>
<polygon fill="none" stroke="black" points="1295.5,-36 1164.5,-36 1164.5,-0 1301.5,-0 1301.5,-30 1295.5,-36"/>
<polyline fill="none" stroke="black" points="1295.5,-36 1295.5,-30 "/>
<polyline fill="none" stroke="black" points="1301.5,-30 1295.5,-30 "/>
<text text-anchor="middle" x="1233" y="-14.3" font-family="Times,serif" font-size="14.00">var.spaces_secret_key</text>
</g>
<!-- [root] provider.digitalocean&#45;&gt;[root] var.spaces_secret_key -->
<g id="edge34" class="edge"><title>[root] provider.digitalocean&#45;&gt;[root] var.spaces_secret_key</title>
<path fill="none" stroke="black" d="M1109.23,-75.9976C1130.93,-66.0057 1161.36,-51.9915 1186.62,-40.3599"/>
<polygon fill="black" stroke="black" points="1188.4,-43.3941 1196.02,-36.032 1185.47,-37.0359 1188.4,-43.3941"/>
</g>
<!-- [root] meta.count&#45;boundary (EachMode fixup) -->
<g id="node25" class="node"><title>[root] meta.count&#45;boundary (EachMode fixup)</title>
<ellipse fill="none" stroke="black" cx="1004" cy="-450" rx="176.569" ry="18"/>
<text text-anchor="middle" x="1004" y="-446.3" font-family="Times,serif" font-size="14.00">[root] meta.count&#45;boundary (EachMode fixup)</text>
</g>
<!-- [root] meta.count&#45;boundary (EachMode fixup)&#45;&gt;[root] digitalocean_record.box -->
<g id="edge22" class="edge"><title>[root] meta.count&#45;boundary (EachMode fixup)&#45;&gt;[root] digitalocean_record.box</title>
<path fill="none" stroke="black" d="M1004,-431.697C1004,-423.983 1004,-414.712 1004,-406.112"/>
<polygon fill="black" stroke="black" points="1007.5,-406.104 1004,-396.104 1000.5,-406.104 1007.5,-406.104"/>
</g>
<!-- [root] meta.count&#45;boundary (EachMode fixup)&#45;&gt;[root] digitalocean_record.ns1 -->
<g id="edge23" class="edge"><title>[root] meta.count&#45;boundary (EachMode fixup)&#45;&gt;[root] digitalocean_record.ns1</title>
<path fill="none" stroke="black" d="M1076.61,-433.552C1127.82,-422.654 1196.54,-408.034 1249.94,-396.672"/>
<polygon fill="black" stroke="black" points="1250.67,-400.095 1259.73,-394.59 1249.22,-393.248 1250.67,-400.095"/>
</g>
<!-- [root] meta.count&#45;boundary (EachMode fixup)&#45;&gt;[root] digitalocean_record.ns2 -->
<g id="edge24" class="edge"><title>[root] meta.count&#45;boundary (EachMode fixup)&#45;&gt;[root] digitalocean_record.ns2</title>
<path fill="none" stroke="black" d="M1120.39,-436.386C1200.29,-427.159 1308.98,-413.503 1413.62,-396.167"/>
<polygon fill="black" stroke="black" points="1414.45,-399.577 1423.73,-394.477 1413.29,-392.673 1414.45,-399.577"/>
</g>
<!-- [root] meta.count&#45;boundary (EachMode fixup)&#45;&gt;[root] digitalocean_record.ssh -->
<g id="edge25" class="edge"><title>[root] meta.count&#45;boundary (EachMode fixup)&#45;&gt;[root] digitalocean_record.ssh</title>
<path fill="none" stroke="black" d="M1043.1,-432.411C1065.9,-422.739 1094.88,-410.444 1119.29,-400.089"/>
<polygon fill="black" stroke="black" points="1120.9,-403.206 1128.74,-396.078 1118.17,-396.762 1120.9,-403.206"/>
</g>
<!-- [root] meta.count&#45;boundary (EachMode fixup)&#45;&gt;[root] output.floating_ip_address -->
<g id="edge26" class="edge"><title>[root] meta.count&#45;boundary (EachMode fixup)&#45;&gt;[root] output.floating_ip_address</title>
<path fill="none" stroke="black" d="M963.001,-432.411C938.991,-422.696 908.441,-410.335 882.78,-399.951"/>
<polygon fill="black" stroke="black" points="883.791,-396.585 873.208,-396.078 881.165,-403.074 883.791,-396.585"/>
</g>
<!-- [root] provider.digitalocean (close) -->
<g id="node26" class="node"><title>[root] provider.digitalocean (close)</title>
<ellipse fill="none" stroke="black" cx="1333" cy="-450" rx="134.576" ry="18"/>
<text text-anchor="middle" x="1333" y="-446.3" font-family="Times,serif" font-size="14.00">[root] provider.digitalocean (close)</text>
</g>
<!-- [root] provider.digitalocean (close)&#45;&gt;[root] digitalocean_record.box -->
<g id="edge28" class="edge"><title>[root] provider.digitalocean (close)&#45;&gt;[root] digitalocean_record.box</title>
<path fill="none" stroke="black" d="M1264.43,-434.411C1213.2,-423.51 1142.87,-408.548 1088.22,-396.919"/>
<polygon fill="black" stroke="black" points="1088.71,-393.446 1078.2,-394.788 1087.26,-400.292 1088.71,-393.446"/>
</g>
<!-- [root] provider.digitalocean (close)&#45;&gt;[root] digitalocean_record.ns1 -->
<g id="edge29" class="edge"><title>[root] provider.digitalocean (close)&#45;&gt;[root] digitalocean_record.ns1</title>
<path fill="none" stroke="black" d="M1333,-431.697C1333,-423.983 1333,-414.712 1333,-406.112"/>
<polygon fill="black" stroke="black" points="1336.5,-406.104 1333,-396.104 1329.5,-406.104 1336.5,-406.104"/>
</g>
<!-- [root] provider.digitalocean (close)&#45;&gt;[root] digitalocean_record.ns2 -->
<g id="edge30" class="edge"><title>[root] provider.digitalocean (close)&#45;&gt;[root] digitalocean_record.ns2</title>
<path fill="none" stroke="black" d="M1371.45,-432.588C1394.18,-422.885 1423.21,-410.496 1447.62,-400.075"/>
<polygon fill="black" stroke="black" points="1449.25,-403.185 1457.08,-396.04 1446.51,-396.747 1449.25,-403.185"/>
</g>
<!-- [root] provider.digitalocean (close)&#45;&gt;[root] digitalocean_record.ssh -->
<g id="edge31" class="edge"><title>[root] provider.digitalocean (close)&#45;&gt;[root] digitalocean_record.ssh</title>
<path fill="none" stroke="black" d="M1294.55,-432.588C1271.82,-422.885 1242.79,-410.496 1218.38,-400.075"/>
<polygon fill="black" stroke="black" points="1219.49,-396.747 1208.92,-396.04 1216.75,-403.185 1219.49,-396.747"/>
</g>
<!-- [root] provisioner.remote&#45;exec (close) -->
<g id="node27" class="node"><title>[root] provisioner.remote&#45;exec (close)</title>
<ellipse fill="none" stroke="black" cx="722" cy="-306" rx="145.674" ry="18"/>
<text text-anchor="middle" x="722" y="-302.3" font-family="Times,serif" font-size="14.00">[root] provisioner.remote&#45;exec (close)</text>
</g>
<!-- [root] provisioner.remote&#45;exec (close)&#45;&gt;[root] digitalocean_droplet.miab -->
<g id="edge35" class="edge"><title>[root] provisioner.remote&#45;exec (close)&#45;&gt;[root] digitalocean_droplet.miab</title>
<path fill="none" stroke="black" d="M742.576,-288.055C753.355,-279.179 766.724,-268.169 778.485,-258.483"/>
<polygon fill="black" stroke="black" points="780.824,-261.09 786.319,-252.032 776.374,-255.687 780.824,-261.09"/>
</g>
<!-- [root] root -->
<g id="node28" class="node"><title>[root] root</title>
<ellipse fill="none" stroke="black" cx="1004" cy="-522" rx="47.3916" ry="18"/>
<text text-anchor="middle" x="1004" y="-518.3" font-family="Times,serif" font-size="14.00">[root] root</text>
</g>
<!-- [root] root&#45;&gt;[root] meta.count&#45;boundary (EachMode fixup) -->
<g id="edge36" class="edge"><title>[root] root&#45;&gt;[root] meta.count&#45;boundary (EachMode fixup)</title>
<path fill="none" stroke="black" d="M1004,-503.697C1004,-495.983 1004,-486.712 1004,-478.112"/>
<polygon fill="black" stroke="black" points="1007.5,-478.104 1004,-468.104 1000.5,-478.104 1007.5,-478.104"/>
</g>
<!-- [root] root&#45;&gt;[root] provider.digitalocean (close) -->
<g id="edge37" class="edge"><title>[root] root&#45;&gt;[root] provider.digitalocean (close)</title>
<path fill="none" stroke="black" d="M1044.34,-512.417C1096.49,-501.322 1188.43,-481.76 1254.55,-467.692"/>
<polygon fill="black" stroke="black" points="1255.47,-471.075 1264.52,-465.57 1254.01,-464.228 1255.47,-471.075"/>
</g>
<!-- [root] root&#45;&gt;[root] provisioner.remote&#45;exec (close) -->
<g id="edge38" class="edge"><title>[root] root&#45;&gt;[root] provisioner.remote&#45;exec (close)</title>
<path fill="none" stroke="black" d="M960.382,-514.587C921.176,-507.465 863.009,-493.456 818,-468 777.218,-444.935 764.062,-436.784 741,-396 730.273,-377.03 725.59,-352.666 723.552,-334.227"/>
<polygon fill="black" stroke="black" points="727.026,-333.781 722.631,-324.14 720.055,-334.417 727.026,-333.781"/>
</g>
</g>
</svg>
