<?xml version="1.0" encoding="UTF-8" standalone="no"?>
<!DOCTYPE svg PUBLIC "-//W3C//DTD SVG 1.1//EN"
 "http://www.w3.org/Graphics/SVG/1.1/DTD/svg11.dtd">
<!-- Generated by graphviz version 2.38.0 (20140413.2041)
 -->
<!-- Title: %3 Pages: 1 -->
<svg width="1577pt" height="548pt"
 viewBox="0.00 0.00 1577.09 548.00" xmlns="http://www.w3.org/2000/svg" xmlns:xlink="http://www.w3.org/1999/xlink">
<g id="graph0" class="graph" transform="scale(1 1) rotate(0) translate(4 544)">
<title>%3</title>
<polygon fill="white" stroke="none" points="-4,4 -4,-544 1573.09,-544 1573.09,4 -4,4"/>
<!-- [root] digitalocean_domain.miab -->
<g id="node1" class="node"><title>[root] digitalocean_domain.miab</title>
<polygon fill="none" stroke="black" points="653.5,-180 491.5,-180 491.5,-144 653.5,-144 653.5,-180"/>
<text text-anchor="middle" x="572.5" y="-158.3" font-family="Times,serif" font-size="14.00">digitalocean_domain.miab</text>
</g>
<!-- [root] provider.digitalocean -->
<g id="node9" class="node"><title>[root] provider.digitalocean</title>
<polygon fill="none" stroke="black" points="530.5,-108 409.342,-90 530.5,-72 651.658,-90 530.5,-108"/>
<text text-anchor="middle" x="530.5" y="-86.3" font-family="Times,serif" font-size="14.00">provider.digitalocean</text>
</g>
<!-- [root] digitalocean_domain.miab&#45;&gt;[root] provider.digitalocean -->
<g id="edge1" class="edge"><title>[root] digitalocean_domain.miab&#45;&gt;[root] provider.digitalocean</title>
<path fill="none" stroke="black" d="M562.118,-143.697C557.017,-135.194 550.781,-124.802 545.2,-115.5"/>
<polygon fill="black" stroke="black" points="548.049,-113.445 539.903,-106.671 542.047,-117.047 548.049,-113.445"/>
</g>
<!-- [root] var.fqdn -->
<g id="node16" class="node"><title>[root] var.fqdn</title>
<polygon fill="none" stroke="black" points="725.5,-108 669.5,-108 669.5,-72 731.5,-72 731.5,-102 725.5,-108"/>
<polyline fill="none" stroke="black" points="725.5,-108 725.5,-102 "/>
<polyline fill="none" stroke="black" points="731.5,-102 725.5,-102 "/>
<text text-anchor="middle" x="700.5" y="-86.3" font-family="Times,serif" font-size="14.00">var.fqdn</text>
</g>
<!-- [root] digitalocean_domain.miab&#45;&gt;[root] var.fqdn -->
<g id="edge2" class="edge"><title>[root] digitalocean_domain.miab&#45;&gt;[root] var.fqdn</title>
<path fill="none" stroke="black" d="M603.812,-143.876C620.703,-134.639 641.747,-123.131 659.885,-113.212"/>
<polygon fill="black" stroke="black" points="661.973,-116.059 669.067,-108.19 658.614,-109.917 661.973,-116.059"/>
</g>
<!-- [root] digitalocean_droplet.miab -->
<g id="node2" class="node"><title>[root] digitalocean_droplet.miab</title>
<polygon fill="none" stroke="black" points="894,-252 735,-252 735,-216 894,-216 894,-252"/>
<text text-anchor="middle" x="814.5" y="-230.3" font-family="Times,serif" font-size="14.00">digitalocean_droplet.miab</text>
</g>
<!-- [root] digitalocean_droplet.miab&#45;&gt;[root] digitalocean_domain.miab -->
<g id="edge3" class="edge"><title>[root] digitalocean_droplet.miab&#45;&gt;[root] digitalocean_domain.miab</title>
<path fill="none" stroke="black" d="M755.61,-215.966C721.209,-206.015 677.619,-193.406 641.599,-182.987"/>
<polygon fill="black" stroke="black" points="642.233,-179.527 631.654,-180.111 640.288,-186.252 642.233,-179.527"/>
</g>
<!-- [root] digitalocean_spaces_bucket.miab -->
<g id="node6" class="node"><title>[root] digitalocean_spaces_bucket.miab</title>
<polygon fill="none" stroke="black" points="291,-180 92,-180 92,-144 291,-144 291,-180"/>
<text text-anchor="middle" x="191.5" y="-158.3" font-family="Times,serif" font-size="14.00">digitalocean_spaces_bucket.miab</text>
</g>
<!-- [root] digitalocean_droplet.miab&#45;&gt;[root] digitalocean_spaces_bucket.miab -->
<g id="edge4" class="edge"><title>[root] digitalocean_droplet.miab&#45;&gt;[root] digitalocean_spaces_bucket.miab</title>
<path fill="none" stroke="black" d="M734.663,-226.064C635.546,-217.161 461.084,-200.537 301.28,-180.063"/>
<polygon fill="black" stroke="black" points="301.628,-176.579 291.263,-178.772 300.733,-183.521 301.628,-176.579"/>
</g>
<!-- [root] digitalocean_ssh_key.miab -->
<g id="node7" class="node"><title>[root] digitalocean_ssh_key.miab</title>
<polygon fill="none" stroke="black" points="473.5,-180 309.5,-180 309.5,-144 473.5,-144 473.5,-180"/>
<text text-anchor="middle" x="391.5" y="-158.3" font-family="Times,serif" font-size="14.00">digitalocean_ssh_key.miab</text>
</g>
<!-- [root] digitalocean_droplet.miab&#45;&gt;[root] digitalocean_ssh_key.miab -->
<g id="edge5" class="edge"><title>[root] digitalocean_droplet.miab&#45;&gt;[root] digitalocean_ssh_key.miab</title>
<path fill="none" stroke="black" d="M734.91,-220.898C669.961,-210.882 575.545,-196.007 483.835,-180.21"/>
<polygon fill="black" stroke="black" points="484.272,-176.734 473.822,-178.48 483.08,-183.631 484.272,-176.734"/>
</g>
<!-- [root] var.droplet_image -->
<g id="node11" class="node"><title>[root] var.droplet_image</title>
<polygon fill="none" stroke="black" points="781.5,-180 671.5,-180 671.5,-144 787.5,-144 787.5,-174 781.5,-180"/>
<polyline fill="none" stroke="black" points="781.5,-180 781.5,-174 "/>
<polyline fill="none" stroke="black" points="787.5,-174 781.5,-174 "/>
<text text-anchor="middle" x="729.5" y="-158.3" font-family="Times,serif" font-size="14.00">var.droplet_image</text>
</g>
<!-- [root] digitalocean_droplet.miab&#45;&gt;[root] var.droplet_image -->
<g id="edge7" class="edge"><title>[root] digitalocean_droplet.miab&#45;&gt;[root] var.droplet_image</title>
<path fill="none" stroke="black" d="M793.489,-215.697C782.784,-206.881 769.61,-196.032 758.004,-186.474"/>
<polygon fill="black" stroke="black" points="760.214,-183.76 750.27,-180.104 755.764,-189.163 760.214,-183.76"/>
</g>
<!-- [root] var.droplet_private_networking -->
<g id="node13" class="node"><title>[root] var.droplet_private_networking</title>
<polygon fill="none" stroke="black" points="987.5,-180 805.5,-180 805.5,-144 993.5,-144 993.5,-174 987.5,-180"/>
<polyline fill="none" stroke="black" points="987.5,-180 987.5,-174 "/>
<polyline fill="none" stroke="black" points="993.5,-174 987.5,-174 "/>
<text text-anchor="middle" x="899.5" y="-158.3" font-family="Times,serif" font-size="14.00">var.droplet_private_networking</text>
</g>
<!-- [root] digitalocean_droplet.miab&#45;&gt;[root] var.droplet_private_networking -->
<g id="edge8" class="edge"><title>[root] digitalocean_droplet.miab&#45;&gt;[root] var.droplet_private_networking</title>
<path fill="none" stroke="black" d="M835.511,-215.697C846.216,-206.881 859.39,-196.032 870.996,-186.474"/>
<polygon fill="black" stroke="black" points="873.236,-189.163 878.73,-180.104 868.786,-183.76 873.236,-189.163"/>
</g>
<!-- [root] var.droplet_size -->
<g id="node15" class="node"><title>[root] var.droplet_size</title>
<polygon fill="none" stroke="black" points="1109.5,-180 1011.5,-180 1011.5,-144 1115.5,-144 1115.5,-174 1109.5,-180"/>
<polyline fill="none" stroke="black" points="1109.5,-180 1109.5,-174 "/>
<polyline fill="none" stroke="black" points="1115.5,-174 1109.5,-174 "/>
<text text-anchor="middle" x="1063.5" y="-158.3" font-family="Times,serif" font-size="14.00">var.droplet_size</text>
</g>
<!-- [root] digitalocean_droplet.miab&#45;&gt;[root] var.droplet_size -->
<g id="edge9" class="edge"><title>[root] digitalocean_droplet.miab&#45;&gt;[root] var.droplet_size</title>
<path fill="none" stroke="black" d="M875.094,-215.966C913.416,-205.192 962.821,-191.303 1001.42,-180.451"/>
<polygon fill="black" stroke="black" points="1002.82,-183.694 1011.5,-177.619 1000.93,-176.956 1002.82,-183.694"/>
</g>
<!-- [root] var.miab_STORAGE_ROOT -->
<g id="node17" class="node"><title>[root] var.miab_STORAGE_ROOT</title>
<polygon fill="none" stroke="black" points="1305.5,-180 1133.5,-180 1133.5,-144 1311.5,-144 1311.5,-174 1305.5,-180"/>
<polyline fill="none" stroke="black" points="1305.5,-180 1305.5,-174 "/>
<polyline fill="none" stroke="black" points="1311.5,-174 1305.5,-174 "/>
<text text-anchor="middle" x="1222.5" y="-158.3" font-family="Times,serif" font-size="14.00">var.miab_STORAGE_ROOT</text>
</g>
<!-- [root] digitalocean_droplet.miab&#45;&gt;[root] var.miab_STORAGE_ROOT -->
<g id="edge10" class="edge"><title>[root] digitalocean_droplet.miab&#45;&gt;[root] var.miab_STORAGE_ROOT</title>
<path fill="none" stroke="black" d="M894.151,-219.437C954.388,-209.167 1039.44,-194.64 1123.34,-180.197"/>
<polygon fill="black" stroke="black" points="1124.04,-183.628 1133.3,-178.482 1122.85,-176.73 1124.04,-183.628"/>
</g>
<!-- [root] provisioner.remote&#45;exec -->
<g id="node21" class="node"><title>[root] provisioner.remote&#45;exec</title>
<ellipse fill="none" stroke="black" cx="1449.5" cy="-162" rx="119.679" ry="18"/>
<text text-anchor="middle" x="1449.5" y="-158.3" font-family="Times,serif" font-size="14.00">[root] provisioner.remote&#45;exec</text>
</g>
<!-- [root] digitalocean_droplet.miab&#45;&gt;[root] provisioner.remote&#45;exec -->
<g id="edge6" class="edge"><title>[root] digitalocean_droplet.miab&#45;&gt;[root] provisioner.remote&#45;exec</title>
<path fill="none" stroke="black" d="M894.324,-225.303C994.099,-215.529 1170.07,-197.788 1320.5,-180 1331.23,-178.731 1342.46,-177.342 1353.63,-175.923"/>
<polygon fill="black" stroke="black" points="1354.37,-179.356 1363.84,-174.613 1353.48,-172.413 1354.37,-179.356"/>
</g>
<!-- [root] digitalocean_floating_ip.miab -->
<g id="node3" class="node"><title>[root] digitalocean_floating_ip.miab</title>
<polygon fill="none" stroke="black" points="750.5,-324 570.5,-324 570.5,-288 750.5,-288 750.5,-324"/>
<text text-anchor="middle" x="660.5" y="-302.3" font-family="Times,serif" font-size="14.00">digitalocean_floating_ip.miab</text>
</g>
<!-- [root] digitalocean_floating_ip.miab&#45;&gt;[root] digitalocean_droplet.miab -->
<g id="edge11" class="edge"><title>[root] digitalocean_floating_ip.miab&#45;&gt;[root] digitalocean_droplet.miab</title>
<path fill="none" stroke="black" d="M698.173,-287.876C719.132,-278.349 745.405,-266.407 767.677,-256.283"/>
<polygon fill="black" stroke="black" points="769.294,-259.393 776.95,-252.068 766.398,-253.02 769.294,-259.393"/>
</g>
<!-- [root] digitalocean_record.box -->
<g id="node4" class="node"><title>[root] digitalocean_record.box</title>
<polygon fill="none" stroke="black" points="734.5,-396 586.5,-396 586.5,-360 734.5,-360 734.5,-396"/>
<text text-anchor="middle" x="660.5" y="-374.3" font-family="Times,serif" font-size="14.00">digitalocean_record.box</text>
</g>
<!-- [root] digitalocean_record.box&#45;&gt;[root] digitalocean_floating_ip.miab -->
<g id="edge12" class="edge"><title>[root] digitalocean_record.box&#45;&gt;[root] digitalocean_floating_ip.miab</title>
<path fill="none" stroke="black" d="M660.5,-359.697C660.5,-351.983 660.5,-342.712 660.5,-334.112"/>
<polygon fill="black" stroke="black" points="664,-334.104 660.5,-324.104 657,-334.104 664,-334.104"/>
</g>
<!-- [root] digitalocean_record.ssh -->
<g id="node5" class="node"><title>[root] digitalocean_record.ssh</title>
<polygon fill="none" stroke="black" points="898,-396 753,-396 753,-360 898,-360 898,-396"/>
<text text-anchor="middle" x="825.5" y="-374.3" font-family="Times,serif" font-size="14.00">digitalocean_record.ssh</text>
</g>
<!-- [root] digitalocean_record.ssh&#45;&gt;[root] digitalocean_droplet.miab -->
<g id="edge13" class="edge"><title>[root] digitalocean_record.ssh&#45;&gt;[root] digitalocean_droplet.miab</title>
<path fill="none" stroke="black" d="M824.173,-359.871C822.298,-335.67 818.854,-291.211 816.622,-262.393"/>
<polygon fill="black" stroke="black" points="820.094,-261.889 815.832,-252.189 813.114,-262.43 820.094,-261.889"/>
</g>
<!-- [root] digitalocean_spaces_bucket.miab&#45;&gt;[root] provider.digitalocean -->
<g id="edge14" class="edge"><title>[root] digitalocean_spaces_bucket.miab&#45;&gt;[root] provider.digitalocean</title>
<path fill="none" stroke="black" d="M273.995,-143.966C335.435,-131.279 417.798,-114.272 472.43,-102.991"/>
<polygon fill="black" stroke="black" points="473.212,-106.403 482.297,-100.953 471.796,-99.548 473.212,-106.403"/>
</g>
<!-- [root] var.droplet_name -->
<g id="node12" class="node"><title>[root] var.droplet_name</title>
<polygon fill="none" stroke="black" points="242,-108 135,-108 135,-72 248,-72 248,-102 242,-108"/>
<polyline fill="none" stroke="black" points="242,-108 242,-102 "/>
<polyline fill="none" stroke="black" points="248,-102 242,-102 "/>
<text text-anchor="middle" x="191.5" y="-86.3" font-family="Times,serif" font-size="14.00">var.droplet_name</text>
</g>
<!-- [root] digitalocean_spaces_bucket.miab&#45;&gt;[root] var.droplet_name -->
<g id="edge15" class="edge"><title>[root] digitalocean_spaces_bucket.miab&#45;&gt;[root] var.droplet_name</title>
<path fill="none" stroke="black" d="M191.5,-143.697C191.5,-135.983 191.5,-126.712 191.5,-118.112"/>
<polygon fill="black" stroke="black" points="195,-118.104 191.5,-108.104 188,-118.104 195,-118.104"/>
</g>
<!-- [root] var.droplet_region -->
<g id="node14" class="node"><title>[root] var.droplet_region</title>
<polygon fill="none" stroke="black" points="111,-108 -7.10543e-15,-108 -7.10543e-15,-72 117,-72 117,-102 111,-108"/>
<polyline fill="none" stroke="black" points="111,-108 111,-102 "/>
<polyline fill="none" stroke="black" points="117,-102 111,-102 "/>
<text text-anchor="middle" x="58.5" y="-86.3" font-family="Times,serif" font-size="14.00">var.droplet_region</text>
</g>
<!-- [root] digitalocean_spaces_bucket.miab&#45;&gt;[root] var.droplet_region -->
<g id="edge16" class="edge"><title>[root] digitalocean_spaces_bucket.miab&#45;&gt;[root] var.droplet_region</title>
<path fill="none" stroke="black" d="M158.965,-143.876C141.253,-134.554 119.147,-122.919 100.184,-112.939"/>
<polygon fill="black" stroke="black" points="101.64,-109.75 91.1605,-108.19 98.3796,-115.944 101.64,-109.75"/>
</g>
<!-- [root] digitalocean_ssh_key.miab&#45;&gt;[root] provider.digitalocean -->
<g id="edge17" class="edge"><title>[root] digitalocean_ssh_key.miab&#45;&gt;[root] provider.digitalocean</title>
<path fill="none" stroke="black" d="M425.503,-143.876C446.647,-133.228 473.782,-119.563 495.17,-108.792"/>
<polygon fill="black" stroke="black" points="496.892,-111.844 504.249,-104.22 493.744,-105.592 496.892,-111.844"/>
</g>
<!-- [root] var.ssh_private_key -->
<g id="node20" class="node"><title>[root] var.ssh_private_key</title>
<polygon fill="none" stroke="black" points="385,-108 266,-108 266,-72 391,-72 391,-102 385,-108"/>
<polyline fill="none" stroke="black" points="385,-108 385,-102 "/>
<polyline fill="none" stroke="black" points="391,-102 385,-102 "/>
<text text-anchor="middle" x="328.5" y="-86.3" font-family="Times,serif" font-size="14.00">var.ssh_private_key</text>
</g>
<!-- [root] digitalocean_ssh_key.miab&#45;&gt;[root] var.ssh_private_key -->
<g id="edge18" class="edge"><title>[root] digitalocean_ssh_key.miab&#45;&gt;[root] var.ssh_private_key</title>
<path fill="none" stroke="black" d="M375.927,-143.697C368.298,-135.22 358.977,-124.864 350.624,-115.583"/>
<polygon fill="black" stroke="black" points="353.185,-113.196 343.894,-108.104 347.982,-117.879 353.185,-113.196"/>
</g>
<!-- [root] output.floating_ip_address -->
<g id="node8" class="node"><title>[root] output.floating_ip_address</title>
<polygon fill="none" stroke="black" points="562,-396 407,-396 407,-360 568,-360 568,-390 562,-396"/>
<polyline fill="none" stroke="black" points="562,-396 562,-390 "/>
<polyline fill="none" stroke="black" points="568,-390 562,-390 "/>
<text text-anchor="middle" x="487.5" y="-374.3" font-family="Times,serif" font-size="14.00">output.floating_ip_address</text>
</g>
<!-- [root] output.floating_ip_address&#45;&gt;[root] digitalocean_floating_ip.miab -->
<g id="edge22" class="edge"><title>[root] output.floating_ip_address&#45;&gt;[root] digitalocean_floating_ip.miab</title>
<path fill="none" stroke="black" d="M529.821,-359.876C553.681,-350.222 583.672,-338.087 608.903,-327.878"/>
<polygon fill="black" stroke="black" points="610.36,-331.064 618.317,-324.068 607.734,-324.575 610.36,-331.064"/>
</g>
<!-- [root] var.do_token -->
<g id="node10" class="node"><title>[root] var.do_token</title>
<polygon fill="none" stroke="black" points="440.5,-36 358.5,-36 358.5,-0 446.5,-0 446.5,-30 440.5,-36"/>
<polyline fill="none" stroke="black" points="440.5,-36 440.5,-30 "/>
<polyline fill="none" stroke="black" points="446.5,-30 440.5,-30 "/>
<text text-anchor="middle" x="402.5" y="-14.3" font-family="Times,serif" font-size="14.00">var.do_token</text>
</g>
<!-- [root] provider.digitalocean&#45;&gt;[root] var.do_token -->
<g id="edge25" class="edge"><title>[root] provider.digitalocean&#45;&gt;[root] var.do_token</title>
<path fill="none" stroke="black" d="M505.82,-75.5033C487.975,-65.744 463.47,-52.3428 442.803,-41.0409"/>
<polygon fill="black" stroke="black" points="444.368,-37.9073 433.915,-36.1799 441.009,-44.0489 444.368,-37.9073"/>
</g>
<!-- [root] var.spaces_access_id -->
<g id="node18" class="node"><title>[root] var.spaces_access_id</title>
<polygon fill="none" stroke="black" points="590,-36 465,-36 465,-0 596,-0 596,-30 590,-36"/>
<polyline fill="none" stroke="black" points="590,-36 590,-30 "/>
<polyline fill="none" stroke="black" points="596,-30 590,-30 "/>
<text text-anchor="middle" x="530.5" y="-14.3" font-family="Times,serif" font-size="14.00">var.spaces_access_id</text>
</g>
<!-- [root] provider.digitalocean&#45;&gt;[root] var.spaces_access_id -->
<g id="edge26" class="edge"><title>[root] provider.digitalocean&#45;&gt;[root] var.spaces_access_id</title>
<path fill="none" stroke="black" d="M530.5,-71.6966C530.5,-63.9827 530.5,-54.7125 530.5,-46.1124"/>
<polygon fill="black" stroke="black" points="534,-46.1043 530.5,-36.1043 527,-46.1044 534,-46.1043"/>
</g>
<!-- [root] var.spaces_secret_key -->
<g id="node19" class="node"><title>[root] var.spaces_secret_key</title>
<polygon fill="none" stroke="black" points="745,-36 614,-36 614,-0 751,-0 751,-30 745,-36"/>
<polyline fill="none" stroke="black" points="745,-36 745,-30 "/>
<polyline fill="none" stroke="black" points="751,-30 745,-30 "/>
<text text-anchor="middle" x="682.5" y="-14.3" font-family="Times,serif" font-size="14.00">var.spaces_secret_key</text>
</g>
<!-- [root] provider.digitalocean&#45;&gt;[root] var.spaces_secret_key -->
<g id="edge27" class="edge"><title>[root] provider.digitalocean&#45;&gt;[root] var.spaces_secret_key</title>
<path fill="none" stroke="black" d="M558.734,-75.9976C580.43,-66.0057 610.861,-51.9915 636.119,-40.3599"/>
<polygon fill="black" stroke="black" points="637.897,-43.3941 645.516,-36.032 634.969,-37.0359 637.897,-43.3941"/>
</g>
<!-- [root] meta.count&#45;boundary (EachMode fixup) -->
<g id="node22" class="node"><title>[root] meta.count&#45;boundary (EachMode fixup)</title>
<ellipse fill="none" stroke="black" cx="496.5" cy="-450" rx="176.569" ry="18"/>
<text text-anchor="middle" x="496.5" y="-446.3" font-family="Times,serif" font-size="14.00">[root] meta.count&#45;boundary (EachMode fixup)</text>
</g>
<!-- [root] meta.count&#45;boundary (EachMode fixup)&#45;&gt;[root] digitalocean_record.box -->
<g id="edge19" class="edge"><title>[root] meta.count&#45;boundary (EachMode fixup)&#45;&gt;[root] digitalocean_record.box</title>
<path fill="none" stroke="black" d="M535.366,-432.411C558.027,-422.739 586.832,-410.444 611.092,-400.089"/>
<polygon fill="black" stroke="black" points="612.664,-403.223 620.488,-396.078 609.916,-396.785 612.664,-403.223"/>
</g>
<!-- [root] meta.count&#45;boundary (EachMode fixup)&#45;&gt;[root] digitalocean_record.ssh -->
<g id="edge20" class="edge"><title>[root] meta.count&#45;boundary (EachMode fixup)&#45;&gt;[root] digitalocean_record.ssh</title>
<path fill="none" stroke="black" d="M569.108,-433.552C620.502,-422.617 689.517,-407.933 742.997,-396.554"/>
<polygon fill="black" stroke="black" points="743.741,-399.974 752.794,-394.469 742.284,-393.127 743.741,-399.974"/>
</g>
<!-- [root] meta.count&#45;boundary (EachMode fixup)&#45;&gt;[root] output.floating_ip_address -->
<g id="edge21" class="edge"><title>[root] meta.count&#45;boundary (EachMode fixup)&#45;&gt;[root] output.floating_ip_address</title>
<path fill="none" stroke="black" d="M494.275,-431.697C493.283,-423.983 492.092,-414.712 490.986,-406.112"/>
<polygon fill="black" stroke="black" points="494.446,-405.576 489.699,-396.104 487.503,-406.469 494.446,-405.576"/>
</g>
<!-- [root] provider.digitalocean (close) -->
<g id="node23" class="node"><title>[root] provider.digitalocean (close)</title>
<ellipse fill="none" stroke="black" cx="825.5" cy="-450" rx="134.576" ry="18"/>
<text text-anchor="middle" x="825.5" y="-446.3" font-family="Times,serif" font-size="14.00">[root] provider.digitalocean (close)</text>
</g>
<!-- [root] provider.digitalocean (close)&#45;&gt;[root] digitalocean_record.box -->
<g id="edge23" class="edge"><title>[root] provider.digitalocean (close)&#45;&gt;[root] digitalocean_record.box</title>
<path fill="none" stroke="black" d="M786.815,-432.588C763.942,-422.885 734.74,-410.496 710.177,-400.075"/>
<polygon fill="black" stroke="black" points="711.238,-396.724 700.666,-396.04 708.505,-403.168 711.238,-396.724"/>
</g>
<!-- [root] provider.digitalocean (close)&#45;&gt;[root] digitalocean_record.ssh -->
<g id="edge24" class="edge"><title>[root] provider.digitalocean (close)&#45;&gt;[root] digitalocean_record.ssh</title>
<path fill="none" stroke="black" d="M825.5,-431.697C825.5,-423.983 825.5,-414.712 825.5,-406.112"/>
<polygon fill="black" stroke="black" points="829,-406.104 825.5,-396.104 822,-406.104 829,-406.104"/>
</g>
<!-- [root] provisioner.remote&#45;exec (close) -->
<g id="node24" class="node"><title>[root] provisioner.remote&#45;exec (close)</title>
<ellipse fill="none" stroke="black" cx="988.5" cy="-306" rx="145.674" ry="18"/>
<text text-anchor="middle" x="988.5" y="-302.3" font-family="Times,serif" font-size="14.00">[root] provisioner.remote&#45;exec (close)</text>
</g>
<!-- [root] provisioner.remote&#45;exec (close)&#45;&gt;[root] digitalocean_droplet.miab -->
<g id="edge28" class="edge"><title>[root] provisioner.remote&#45;exec (close)&#45;&gt;[root] digitalocean_droplet.miab</title>
<path fill="none" stroke="black" d="M947.705,-288.588C923.371,-278.799 892.244,-266.276 866.2,-255.799"/>
<polygon fill="black" stroke="black" points="867.44,-252.525 856.857,-252.04 864.828,-259.019 867.44,-252.525"/>
</g>
<!-- [root] root -->
<g id="node25" class="node"><title>[root] root</title>
<ellipse fill="none" stroke="black" cx="825.5" cy="-522" rx="47.3916" ry="18"/>
<text text-anchor="middle" x="825.5" y="-518.3" font-family="Times,serif" font-size="14.00">[root] root</text>
</g>
<!-- [root] root&#45;&gt;[root] meta.count&#45;boundary (EachMode fixup) -->
<g id="edge29" class="edge"><title>[root] root&#45;&gt;[root] meta.count&#45;boundary (EachMode fixup)</title>
<path fill="none" stroke="black" d="M785.158,-512.417C734.074,-501.548 644.798,-482.553 579.019,-468.557"/>
<polygon fill="black" stroke="black" points="579.592,-465.101 569.082,-466.443 578.135,-471.948 579.592,-465.101"/>
</g>
<!-- [root] root&#45;&gt;[root] provider.digitalocean (close) -->
<g id="edge30" class="edge"><title>[root] root&#45;&gt;[root] provider.digitalocean (close)</title>
<path fill="none" stroke="black" d="M825.5,-503.697C825.5,-495.983 825.5,-486.712 825.5,-478.112"/>
<polygon fill="black" stroke="black" points="829,-478.104 825.5,-468.104 822,-478.104 829,-478.104"/>
</g>
<!-- [root] root&#45;&gt;[root] provisioner.remote&#45;exec (close) -->
<g id="edge31" class="edge"><title>[root] root&#45;&gt;[root] provisioner.remote&#45;exec (close)</title>
<path fill="none" stroke="black" d="M871.113,-516.621C903.742,-510.944 945.91,-497.911 969.5,-468 999.827,-429.547 997.706,-368.988 993.235,-334.138"/>
<polygon fill="black" stroke="black" points="996.694,-333.6 991.806,-324.2 989.765,-334.597 996.694,-333.6"/>
</g>
</g>
</svg>
